PowerhouseFilarMono-BoldItalic.ufo
<glyph name="exclam" format="2">
  <advance width="600"/>
  <unicode hex="0021"/>
  <outline>
    <contour>
      <point x="459" y="700" type="line"/>
      <point x="300" y="700" type="line"/>
      <point x="255" y="247" type="line"/>
      <point x="344" y="247" type="line"/>
    </contour>
    <component base="period" xScale="-1" yScale="-1" xOffset="544" yOffset="179" identifier="EF7EDD8B"/>
  </outline>
</glyph>
<glyph name="quotedbl" format="2">
  <advance width="600"/>
  <unicode hex="0022"/>
  <outline>
    <contour>
      <point x="197" y="700" type="line"/>
      <point x="161" y="349" type="line"/>
      <point x="273" y="349" type="line"/>
      <point x="361" y="700" type="line"/>
    </contour>
    <contour>
      <point x="398" y="700" type="line"/>
      <point x="362" y="349" type="line"/>
      <point x="474" y="349" type="line"/>
      <point x="562" y="700" type="line"/>
    </contour>
  </outline>
</glyph>
<glyph name="numbersign" format="2">
  <advance width="600"/>
  <unicode hex="0023"/>
  <outline>
    <contour>
      <point x="423" y="700" type="line"/>
      <point x="293" y="700" type="line"/>
      <point x="4" y="0" type="line"/>
      <point x="134" y="0" type="line"/>
    </contour>
    <contour>
      <point x="639" y="539" type="line"/>
      <point x="114" y="539" type="line"/>
      <point x="94" y="425" type="line"/>
      <point x="619" y="425" type="line"/>
    </contour>
    <contour>
      <point x="622" y="700" type="line"/>
      <point x="492" y="700" type="line"/>
      <point x="203" y="0" type="line"/>
      <point x="333" y="0" type="line"/>
    </contour>
    <contour>
      <point x="546" y="303" type="line"/>
      <point x="21" y="303" type="line"/>
      <point x="1" y="189" type="line"/>
      <point x="526" y="189" type="line"/>
    </contour>
  </outline>
</glyph>
<glyph name="ampersand" format="2">
  <advance width="600"/>
  <unicode hex="0026"/>
  <outline>
    <contour>
      <point x="245" y="305" type="curve"/>
      <point x="223" y="412" type="line"/>
      <point x="88" y="376"/>
      <point x="9" y="299"/>
      <point x="9" y="179" type="curve" smooth="yes"/>
      <point x="9" y="58"/>
      <point x="109" y="-12"/>
      <point x="226" y="-12" type="curve" smooth="yes"/>
      <point x="423" y="-12"/>
      <point x="537" y="152"/>
      <point x="597" y="349" type="curve"/>
      <point x="477" y="363" type="line"/>
      <point x="431" y="189"/>
      <point x="349" y="104"/>
      <point x="257" y="104" type="curve" smooth="yes"/>
      <point x="193" y="104"/>
      <point x="161" y="145"/>
      <point x="161" y="195" type="curve" smooth="yes"/>
      <point x="161" y="247"/>
      <point x="189" y="283"/>
    </contour>
    <contour>
      <point x="553" y="0" type="line"/>
      <point x="294" y="437" type="line" smooth="yes"/>
      <point x="282" y="457"/>
      <point x="277" y="485"/>
      <point x="277" y="508" type="curve" smooth="yes"/>
      <point x="277" y="549"/>
      <point x="292" y="602"/>
      <point x="350" y="602" type="curve" smooth="yes"/>
      <point x="379" y="602"/>
      <point x="396" y="585"/>
      <point x="396" y="551" type="curve" smooth="yes"/>
      <point x="396" y="516"/>
      <point x="385" y="462"/>
      <point x="281" y="429" type="curve"/>
      <point x="312" y="322" type="line"/>
      <point x="425" y="365"/>
      <point x="527" y="438"/>
      <point x="527" y="557" type="curve" smooth="yes"/>
      <point x="527" y="659"/>
      <point x="441" y="712"/>
      <point x="354" y="712" type="curve" smooth="yes"/>
      <point x="231" y="712"/>
      <point x="144" y="631"/>
      <point x="144" y="508" type="curve" smooth="yes"/>
      <point x="144" y="453"/>
      <point x="163" y="409"/>
      <point x="184" y="373" type="curve" smooth="yes"/>
      <point x="406" y="0" type="line"/>
    </contour>
  </outline>
</glyph>
<glyph name="parenleft" format="2">
  <advance width="600"/>
  <unicode hex="0028"/>
  <outline>
    <contour>
      <point x="592" y="745" type="curve"/>
      <point x="427" y="745" type="line"/>
      <point x="259" y="629"/>
      <point x="137" y="455"/>
      <point x="137" y="259" type="curve" smooth="yes"/>
      <point x="137" y="116"/>
      <point x="204" y="-21"/>
      <point x="298" y="-113" type="curve"/>
      <point x="441" y="-113" type="line"/>
      <point x="343" y="-9"/>
      <point x="290" y="116"/>
      <point x="290" y="257" type="curve" smooth="yes"/>
      <point x="290" y="466"/>
      <point x="415" y="617"/>
    </contour>
  </outline>
</glyph>
<glyph name="asterisk" format="2">
  <advance width="600"/>
  <unicode hex="002A"/>
  <guideline x="139" y="316" angle="320.8446" identifier="7kKAbu3Ebv"/>
  <guideline x="395" y="259" angle="32.3474" identifier="OpEd49Nq7e"/>
  <guideline x="575" y="495" angle="277.9575" identifier="Bk5BbIS3oe"/>
  <guideline x="155" y="585" angle="64.4185" identifier="WILheLne5M"/>
  <outline>
    <contour>
      <point x="209" y="259" type="line"/>
      <point x="324" y="389" type="line"/>
      <point x="395" y="259" type="line"/>
      <point x="478" y="311" type="line"/>
      <point x="408" y="439" type="line"/>
      <point x="576" y="490" type="line"/>
      <point x="562" y="588" type="line"/>
      <point x="401" y="540" type="line"/>
      <point x="427" y="700" type="line"/>
      <point x="328" y="700" type="line"/>
      <point x="301" y="537" type="line"/>
      <point x="153" y="583" type="line"/>
      <point x="111" y="493" type="line"/>
      <point x="248" y="450" type="line"/>
      <point x="133" y="322" type="line"/>
    </contour>
  </outline>
</glyph>
<glyph name="hyphen" format="2">
  <advance width="600"/>
  <unicode hex="002D"/>
  <outline>
    <contour>
      <point x="131" y="227" type="line"/>
      <point x="461" y="227" type="line"/>
      <point x="485" y="365" type="line"/>
      <point x="155" y="365" type="line"/>
    </contour>
  </outline>
</glyph>
<glyph name="two" format="2">
  <advance width="600"/>
  <unicode hex="0032"/>
  <outline>
    <contour>
      <point x="127" y="120" type="line"/>
      <point x="149" y="59" type="line"/>
      <point x="420" y="242"/>
      <point x="588" y="360"/>
      <point x="588" y="524" type="curve" smooth="yes"/>
      <point x="588" y="624"/>
      <point x="522" y="712"/>
      <point x="373" y="712" type="curve" smooth="yes"/>
      <point x="211" y="712"/>
      <point x="101" y="605"/>
      <point x="101" y="475" type="curve" smooth="yes"/>
      <point x="101" y="459"/>
      <point x="103" y="440"/>
      <point x="110" y="422" type="curve"/>
      <point x="248" y="437" type="line"/>
      <point x="243" y="451"/>
      <point x="241" y="464"/>
      <point x="241" y="476" type="curve" smooth="yes"/>
      <point x="241" y="534"/>
      <point x="287" y="586"/>
      <point x="357" y="586" type="curve"/>
      <point x="417" y="586"/>
      <point x="443" y="552"/>
      <point x="443" y="505" type="curve" smooth="yes"/>
      <point x="443" y="398"/>
      <point x="306" y="316"/>
      <point x="39" y="117" type="curve"/>
      <point x="18" y="0" type="line"/>
      <point x="502" y="0" type="line"/>
      <point x="523" y="120" type="line"/>
    </contour>
  </outline>
</glyph>
<glyph name="equal" format="2">
  <advance width="600"/>
  <unicode hex="003D"/>
  <outline>
    <contour>
      <point x="569" y="392" type="line"/>
      <point x="590" y="512" type="line"/>
      <point x="102" y="512" type="line"/>
      <point x="81" y="392" type="line"/>
    </contour>
    <contour>
      <point x="529" y="168" type="line"/>
      <point x="550" y="288" type="line"/>
      <point x="62" y="288" type="line"/>
      <point x="41" y="168" type="line"/>
    </contour>
  </outline>
</glyph>
<glyph name="at" format="2">
  <advance width="600"/>
  <unicode hex="0040"/>
  <outline>
    <contour>
      <point x="23" y="251" type="curve" smooth="yes"/>
      <point x="-20" y="4"/>
      <point x="76" y="-140"/>
      <point x="270" y="-140" type="curve" smooth="yes"/>
      <point x="333" y="-140"/>
      <point x="398" y="-124"/>
      <point x="449" y="-94" type="curve"/>
      <point x="427" y="-16" type="line"/>
      <point x="377" y="-38"/>
      <point x="325" y="-51"/>
      <point x="269" y="-51" type="curve" smooth="yes"/>
      <point x="133" y="-51"/>
      <point x="83" y="58"/>
      <point x="115" y="241" type="curve" smooth="yes"/>
      <point x="150" y="439"/>
      <point x="250" y="559"/>
      <point x="378" y="559" type="curve" smooth="yes"/>
      <point x="453" y="559"/>
      <point x="530" y="514"/>
      <point x="493" y="306" type="curve" smooth="yes"/>
      <point x="475" y="203"/>
      <point x="442" y="146"/>
      <point x="416" y="146" type="curve" smooth="yes"/>
      <point x="399" y="146"/>
      <point x="393" y="158"/>
      <point x="399" y="181" type="curve" smooth="yes"/>
      <point x="475" y="451" type="line"/>
      <point x="375" y="451" type="line"/>
      <point x="362" y="405" type="line"/>
      <point x="359" y="438"/>
      <point x="340" y="457"/>
      <point x="312" y="457" type="curve" smooth="yes"/>
      <point x="247" y="457"/>
      <point x="181" y="380"/>
      <point x="157" y="243" type="curve" smooth="yes"/>
      <point x="132" y="105"/>
      <point x="175" y="52"/>
      <point x="230" y="52" type="curve" smooth="yes"/>
      <point x="259" y="52"/>
      <point x="284" y="71"/>
      <point x="307" y="109" type="curve"/>
      <point x="316" y="72"/>
      <point x="351" y="52"/>
      <point x="392" y="52" type="curve" smooth="yes"/>
      <point x="477" y="52"/>
      <point x="558" y="140"/>
      <point x="585" y="296" type="curve" smooth="yes"/>
      <point x="625" y="523"/>
      <point x="537" y="646"/>
      <point x="377" y="646" type="curve" smooth="yes"/>
      <point x="199" y="646"/>
      <point x="65" y="486"/>
    </contour>
    <contour>
      <point x="322" y="249" type="curve" smooth="yes"/>
      <point x="306" y="183"/>
      <point x="285" y="142"/>
      <point x="263" y="142" type="curve" smooth="yes"/>
      <point x="247" y="142"/>
      <point x="234" y="155"/>
      <point x="259" y="257" type="curve" smooth="yes"/>
      <point x="278" y="332"/>
      <point x="298" y="367"/>
      <point x="322" y="367" type="curve" smooth="yes"/>
      <point x="342" y="367"/>
      <point x="344" y="340"/>
    </contour>
  </outline>
</glyph>
<glyph name="A" format="2">
  <advance width="600"/>
  <unicode hex="0041"/>
  <outline>
    <contour>
      <point x="128" y="267" type="line"/>
      <point x="106" y="145" type="line"/>
      <point x="455" y="145" type="line"/>
      <point x="477" y="267" type="line"/>
    </contour>
    <contour>
      <point x="412" y="0" type="line"/>
      <point x="551" y="0" type="line"/>
      <point x="467" y="700" type="line"/>
      <point x="295" y="700" type="line"/>
      <point x="-39" y="0" type="line"/>
      <point x="110" y="0" type="line"/>
      <point x="411" y="647" type="line"/>
      <point x="345" y="647" type="line"/>
    </contour>
  </outline>
</glyph>
<glyph name="B" format="2">
  <advance width="600"/>
  <unicode hex="0042"/>
  <outline>
    <contour>
      <point x="136" y="700" type="line"/>
      <point x="12" y="0" type="line"/>
      <point x="161" y="0" type="line"/>
      <point x="285" y="700" type="line"/>
    </contour>
    <contour>
      <point x="281" y="0" type="line"/>
      <point x="465" y="0"/>
      <point x="562" y="121"/>
      <point x="562" y="233" type="curve" smooth="yes"/>
      <point x="562" y="308"/>
      <point x="517" y="347"/>
      <point x="469" y="370" type="curve"/>
      <point x="466" y="352" type="line"/>
      <point x="534" y="370"/>
      <point x="599" y="433"/>
      <point x="599" y="531" type="curve" smooth="yes"/>
      <point x="599" y="628"/>
      <point x="534" y="700"/>
      <point x="405" y="700" type="curve" smooth="yes"/>
      <point x="200" y="700" type="line"/>
      <point x="178" y="577" type="line"/>
      <point x="372" y="577" type="line" smooth="yes"/>
      <point x="419" y="577"/>
      <point x="452" y="556"/>
      <point x="452" y="511" type="curve" smooth="yes"/>
      <point x="452" y="469"/>
      <point x="421" y="420"/>
      <point x="348" y="420" type="curve" smooth="yes"/>
      <point x="149" y="420" type="line"/>
      <point x="128" y="298" type="line"/>
      <point x="324" y="298" type="line" smooth="yes"/>
      <point x="370" y="298"/>
      <point x="412" y="277"/>
      <point x="412" y="223" type="curve" smooth="yes"/>
      <point x="412" y="160"/>
      <point x="359" y="123"/>
      <point x="295" y="123" type="curve" smooth="yes"/>
      <point x="98" y="123" type="line"/>
      <point x="76" y="0" type="line"/>
    </contour>
  </outline>
</glyph>
<glyph name="C" format="2">
  <advance width="600"/>
  <unicode hex="0043"/>
  <outline>
    <contour>
      <point x="62" y="260" type="curve" smooth="yes"/>
      <point x="62" y="80"/>
      <point x="153" y="-12"/>
      <point x="296" y="-12" type="curve" smooth="yes"/>
      <point x="433" y="-12"/>
      <point x="517" y="83"/>
      <point x="564" y="203" type="curve"/>
      <point x="437" y="247" type="line"/>
      <point x="407" y="163"/>
      <point x="364" y="116"/>
      <point x="305" y="116" type="curve" smooth="yes"/>
      <point x="245" y="116"/>
      <point x="211" y="156"/>
      <point x="211" y="258" type="curve" smooth="yes"/>
      <point x="211" y="428"/>
      <point x="275" y="584"/>
      <point x="378" y="584" type="curve" smooth="yes"/>
      <point x="441" y="584"/>
      <point x="473" y="540"/>
      <point x="478" y="448" type="curve"/>
      <point x="610" y="484" type="line"/>
      <point x="597" y="640"/>
      <point x="512" y="712"/>
      <point x="381" y="712" type="curve" smooth="yes"/>
      <point x="146" y="712"/>
      <point x="62" y="442"/>
    </contour>
  </outline>
</glyph>
<glyph name="D" format="2">
  <advance width="600"/>
  <unicode hex="0044"/>
  <outline>
    <contour>
      <point x="97" y="123" type="line"/>
      <point x="75" y="0" type="line"/>
      <point x="253" y="0" type="line" smooth="yes"/>
      <point x="504" y="0"/>
      <point x="592" y="225"/>
      <point x="592" y="416" type="curve" smooth="yes"/>
      <point x="592" y="591"/>
      <point x="505" y="700"/>
      <point x="352" y="700" type="curve" smooth="yes"/>
      <point x="198" y="700" type="line"/>
      <point x="177" y="577" type="line"/>
      <point x="312" y="577" type="line" smooth="yes"/>
      <point x="389" y="577"/>
      <point x="438" y="527"/>
      <point x="438" y="416" type="curve" smooth="yes"/>
      <point x="438" y="314"/>
      <point x="406" y="123"/>
      <point x="249" y="123" type="curve" smooth="yes"/>
    </contour>
    <contour>
      <point x="135" y="700" type="line"/>
      <point x="12" y="0" type="line"/>
      <point x="162" y="0" type="line"/>
      <point x="285" y="700" type="line"/>
    </contour>
  </outline>
</glyph>
<glyph name="E" format="2">
  <advance width="600"/>
  <unicode hex="0045"/>
  <outline>
    <contour>
      <point x="161" y="700" type="line"/>
      <point x="38" y="0" type="line"/>
      <point x="188" y="0" type="line"/>
      <point x="311" y="700" type="line"/>
    </contour>
    <contour>
      <point x="200" y="576" type="line"/>
      <point x="590" y="576" type="line"/>
      <point x="612" y="700" type="line"/>
      <point x="222" y="700" type="line"/>
    </contour>
    <contour>
      <point x="161" y="294" type="line"/>
      <point x="430" y="294" type="line"/>
      <point x="451" y="417" type="line"/>
      <point x="182" y="417" type="line"/>
    </contour>
    <contour>
      <point x="103" y="0" type="line"/>
      <point x="503" y="0" type="line"/>
      <point x="525" y="124" type="line"/>
      <point x="125" y="124" type="line"/>
    </contour>
  </outline>
</glyph>
<glyph name="G" format="2">
  <advance width="600"/>
  <unicode hex="0047"/>
  <outline>
    <contour>
      <point x="416" y="144" type="line"/>
      <point x="391" y="0" type="line"/>
      <point x="513" y="0" type="line"/>
      <point x="580" y="382" type="line"/>
      <point x="356" y="382" type="line"/>
      <point x="336" y="268" type="line"/>
      <point x="472" y="268" type="line"/>
      <point x="445" y="311" type="line"/>
      <point x="437" y="269" type="line" smooth="yes"/>
      <point x="418" y="168"/>
      <point x="379" y="115"/>
      <point x="303" y="115" type="curve" smooth="yes"/>
      <point x="224" y="115"/>
      <point x="164" y="168"/>
      <point x="199" y="360" type="curve" smooth="yes"/>
      <point x="230" y="531"/>
      <point x="296" y="585"/>
      <point x="364" y="585" type="curve" smooth="yes"/>
      <point x="422" y="585"/>
      <point x="462" y="545"/>
      <point x="466" y="479" type="curve"/>
      <point x="598" y="514" type="line"/>
      <point x="584" y="644"/>
      <point x="492" y="712"/>
      <point x="370" y="712" type="curve" smooth="yes"/>
      <point x="199" y="712"/>
      <point x="89" y="585"/>
      <point x="51" y="370" type="curve" smooth="yes"/>
      <point x="7" y="124"/>
      <point x="107" y="-12"/>
      <point x="258" y="-12" type="curve" smooth="yes"/>
      <point x="342" y="-12"/>
      <point x="415" y="51"/>
      <point x="439" y="146" type="curve"/>
    </contour>
  </outline>
</glyph>
<glyph name="H" format="2">
  <advance width="600"/>
  <unicode hex="0048"/>
  <outline>
    <contour>
      <point x="128" y="299" type="line"/>
      <point x="491" y="299" type="line"/>
      <point x="513" y="423" type="line"/>
      <point x="150" y="423" type="line"/>
    </contour>
    <contour>
      <point x="472" y="700" type="line"/>
      <point x="349" y="0" type="line"/>
      <point x="500" y="0" type="line"/>
      <point x="623" y="700" type="line"/>
    </contour>
    <contour>
      <point x="135" y="700" type="line"/>
      <point x="12" y="0" type="line"/>
      <point x="163" y="0" type="line"/>
      <point x="286" y="700" type="line"/>
    </contour>
  </outline>
</glyph>
<glyph name="I" format="2">
  <advance width="600"/>
  <unicode hex="0049"/>
  <outline>
    <contour>
      <point x="304" y="700" type="line"/>
      <point x="181" y="0" type="line"/>
      <point x="332" y="0" type="line"/>
      <point x="455" y="700" type="line"/>
    </contour>
    <contour>
      <point x="26" y="0" type="line"/>
      <point x="487" y="0" type="line"/>
      <point x="509" y="124" type="line"/>
      <point x="48" y="124" type="line"/>
    </contour>
    <contour>
      <point x="127" y="576" type="line"/>
      <point x="588" y="576" type="line"/>
      <point x="610" y="700" type="line"/>
      <point x="149" y="700" type="line"/>
    </contour>
  </outline>
</glyph>
<glyph name="K" format="2">
  <advance width="600"/>
  <unicode hex="004B"/>
  <outline>
    <contour>
      <point x="133" y="310" type="line"/>
      <point x="124" y="128" type="line"/>
      <point x="314" y="343" type="line"/>
      <point x="346" y="362" type="line"/>
      <point x="653" y="700" type="line"/>
      <point x="474" y="700" type="line"/>
    </contour>
    <contour>
      <point x="135" y="700" type="line"/>
      <point x="12" y="0" type="line"/>
      <point x="156" y="0" type="line"/>
      <point x="279" y="700" type="line"/>
    </contour>
    <contour>
      <point x="259" y="346" type="line"/>
      <point x="400" y="0" type="line"/>
      <point x="551" y="0" type="line"/>
      <point x="366" y="449" type="line"/>
    </contour>
  </outline>
</glyph>
<glyph name="L" format="2">
  <advance width="600"/>
  <unicode hex="004C"/>
  <outline>
    <contour>
      <point x="167" y="700" type="line"/>
      <point x="44" y="0" type="line"/>
      <point x="195" y="0" type="line"/>
      <point x="318" y="700" type="line"/>
    </contour>
    <contour>
      <point x="105" y="0" type="line"/>
      <point x="501" y="0" type="line"/>
      <point x="523" y="124" type="line"/>
      <point x="127" y="124" type="line"/>
    </contour>
  </outline>
</glyph>
<glyph name="M" format="2">
  <advance width="600"/>
  <unicode hex="004D"/>
  <outline>
    <contour>
      <point x="216" y="597" type="line"/>
      <point x="264" y="168" type="line"/>
      <point x="307" y="168" type="line"/>
      <point x="517" y="626" type="line"/>
      <point x="485" y="626" type="line"/>
      <point x="375" y="0" type="line"/>
      <point x="504" y="0" type="line"/>
      <point x="627" y="700" type="line"/>
      <point x="451" y="700" type="line"/>
      <point x="298" y="366" type="line"/>
      <point x="336" y="366" type="line"/>
      <point x="299" y="700" type="line"/>
      <point x="131" y="700" type="line"/>
      <point x="8" y="0" type="line"/>
      <point x="137" y="0" type="line"/>
      <point x="247" y="623" type="line"/>
    </contour>
  </outline>
</glyph>
<glyph name="N" format="2">
  <advance width="600"/>
  <unicode hex="004E"/>
  <outline>
    <contour>
      <point x="439" y="108" type="line"/>
      <point x="330" y="700" type="line"/>
      <point x="135" y="700" type="line"/>
      <point x="12" y="0" type="line"/>
      <point x="141" y="0" type="line"/>
      <point x="252" y="631" type="line"/>
      <point x="221" y="629" type="line"/>
      <point x="337" y="0" type="line"/>
      <point x="500" y="0" type="line"/>
      <point x="623" y="700" type="line"/>
      <point x="494" y="700" type="line"/>
      <point x="390" y="108" type="line"/>
    </contour>
  </outline>
</glyph>
<glyph name="O" format="2">
  <advance width="600"/>
  <unicode hex="004F"/>
  <outline>
    <contour>
      <point x="445" y="442" type="curve" smooth="yes"/>
      <point x="445" y="272"/>
      <point x="381" y="116"/>
      <point x="281" y="116" type="curve" smooth="yes"/>
      <point x="221" y="116"/>
      <point x="191" y="156"/>
      <point x="191" y="258" type="curve" smooth="yes"/>
      <point x="191" y="428"/>
      <point x="255" y="584"/>
      <point x="355" y="584" type="curve" smooth="yes"/>
      <point x="415" y="584"/>
      <point x="445" y="544"/>
    </contour>
    <contour>
      <point x="42" y="260" type="curve" smooth="yes"/>
      <point x="42" y="80"/>
      <point x="132" y="-12"/>
      <point x="275" y="-12" type="curve" smooth="yes"/>
      <point x="510" y="-12"/>
      <point x="594" y="258"/>
      <point x="594" y="440" type="curve" smooth="yes"/>
      <point x="594" y="620"/>
      <point x="504" y="712"/>
      <point x="361" y="712" type="curve" smooth="yes"/>
      <point x="126" y="712"/>
      <point x="42" y="442"/>
    </contour>
  </outline>
</glyph>
<glyph name="P" format="2">
  <advance width="600"/>
  <unicode hex="0050"/>
  <outline>
    <contour>
      <point x="135" y="700" type="line"/>
      <point x="12" y="0" type="line"/>
      <point x="162" y="0" type="line"/>
      <point x="285" y="700" type="line"/>
    </contour>
    <contour>
      <point x="373" y="577" type="line"/>
      <point x="431" y="577"/>
      <point x="461" y="551"/>
      <point x="461" y="504" type="curve" smooth="yes"/>
      <point x="461" y="456"/>
      <point x="430" y="407"/>
      <point x="343" y="407" type="curve" smooth="yes"/>
      <point x="156" y="407" type="line"/>
      <point x="134" y="284" type="line"/>
      <point x="336" y="284" type="line" smooth="yes"/>
      <point x="543" y="284"/>
      <point x="616" y="406"/>
      <point x="616" y="524" type="curve" smooth="yes"/>
      <point x="616" y="630"/>
      <point x="552" y="700"/>
      <point x="405" y="700" type="curve" smooth="yes"/>
      <point x="208" y="700" type="line"/>
      <point x="186" y="577" type="line"/>
    </contour>
  </outline>
</glyph>
<glyph name="Q" format="2">
  <advance width="600"/>
  <unicode hex="0051"/>
  <outline>
    <contour>
      <point x="175" y="-45" type="curve" smooth="yes"/>
      <point x="175" y="-124"/>
      <point x="232" y="-186"/>
      <point x="349" y="-186" type="curve" smooth="yes"/>
      <point x="374" y="-186"/>
      <point x="405" y="-182"/>
      <point x="420" y="-178" type="curve"/>
      <point x="439" y="-67" type="line"/>
      <point x="422" y="-70"/>
      <point x="401" y="-71"/>
      <point x="388" y="-71" type="curve" smooth="yes"/>
      <point x="346" y="-71"/>
      <point x="329" y="-52"/>
      <point x="329" y="-27" type="curve" smooth="yes"/>
      <point x="329" y="-24"/>
      <point x="329" y="-20"/>
      <point x="330" y="-17" type="curve" smooth="yes"/>
      <point x="337" y="22" type="line"/>
      <point x="184" y="22" type="line"/>
      <point x="178" y="-13" type="line" smooth="yes"/>
      <point x="176" y="-24"/>
      <point x="175" y="-34"/>
    </contour>
    <contour>
      <point x="445" y="442" type="curve" smooth="yes"/>
      <point x="445" y="272"/>
      <point x="381" y="116"/>
      <point x="281" y="116" type="curve" smooth="yes"/>
      <point x="221" y="116"/>
      <point x="191" y="156"/>
      <point x="191" y="258" type="curve" smooth="yes"/>
      <point x="191" y="428"/>
      <point x="255" y="584"/>
      <point x="355" y="584" type="curve" smooth="yes"/>
      <point x="415" y="584"/>
      <point x="445" y="544"/>
    </contour>
    <contour>
      <point x="42" y="260" type="curve" smooth="yes"/>
      <point x="42" y="80"/>
      <point x="132" y="-12"/>
      <point x="275" y="-12" type="curve" smooth="yes"/>
      <point x="510" y="-12"/>
      <point x="594" y="258"/>
      <point x="594" y="440" type="curve" smooth="yes"/>
      <point x="594" y="620"/>
      <point x="504" y="712"/>
      <point x="361" y="712" type="curve" smooth="yes"/>
      <point x="126" y="712"/>
      <point x="42" y="442"/>
    </contour>
  </outline>
</glyph>
<glyph name="R" format="2">
  <advance width="600"/>
  <unicode hex="0052"/>
  <outline>
    <contour>
      <point x="135" y="700" type="line"/>
      <point x="12" y="0" type="line"/>
      <point x="160" y="0" type="line"/>
      <point x="283" y="700" type="line"/>
    </contour>
    <contour>
      <point x="252" y="308" type="line"/>
      <point x="285" y="214"/>
      <point x="353" y="79"/>
      <point x="400" y="0" type="curve"/>
      <point x="549" y="0" type="line"/>
      <point x="549" y="7" type="line"/>
      <point x="503" y="82"/>
      <point x="433" y="215"/>
      <point x="399" y="308" type="curve"/>
    </contour>
    <contour>
      <point x="338" y="397" type="curve" smooth="yes"/>
      <point x="155" y="397" type="line"/>
      <point x="133" y="277" type="line"/>
      <point x="333" y="277" type="line" smooth="yes"/>
      <point x="525" y="277"/>
      <point x="612" y="388"/>
      <point x="612" y="519" type="curve" smooth="yes"/>
      <point x="612" y="638"/>
      <point x="539" y="700"/>
      <point x="404" y="700" type="curve" smooth="yes"/>
      <point x="213" y="700" type="line"/>
      <point x="191" y="579" type="line"/>
      <point x="369" y="579" type="line" smooth="yes"/>
      <point x="425" y="579"/>
      <point x="455" y="552"/>
      <point x="455" y="503" type="curve" smooth="yes"/>
      <point x="455" y="444"/>
      <point x="412" y="397"/>
    </contour>
  </outline>
</glyph>
<glyph name="U" format="2">
  <advance width="600"/>
  <unicode hex="0055"/>
  <outline>
    <contour>
      <point x="538" y="207" type="curve" smooth="yes"/>
      <point x="625" y="700" type="line"/>
      <point x="474" y="700" type="line"/>
      <point x="388" y="212" type="line" smooth="yes"/>
      <point x="378" y="156"/>
      <point x="352" y="117"/>
      <point x="288" y="117" type="curve" smooth="yes"/>
      <point x="231" y="117"/>
      <point x="198" y="150"/>
      <point x="198" y="201" type="curve" smooth="yes"/>
      <point x="198" y="208"/>
      <point x="199" y="216"/>
      <point x="200" y="224" type="curve" smooth="yes"/>
      <point x="284" y="700" type="line"/>
      <point x="133" y="700" type="line"/>
      <point x="53" y="247" type="line" smooth="yes"/>
      <point x="50" y="229"/>
      <point x="48" y="211"/>
      <point x="48" y="195" type="curve" smooth="yes"/>
      <point x="48" y="68"/>
      <point x="136" y="-12"/>
      <point x="283" y="-12" type="curve" smooth="yes"/>
      <point x="432" y="-12"/>
      <point x="518" y="91"/>
    </contour>
  </outline>
</glyph>
<glyph name="V" format="2">
  <advance width="600"/>
  <unicode hex="0056"/>
  <outline>
    <contour>
      <point x="232" y="700" type="line"/>
      <point x="84" y="700" type="line"/>
      <point x="170" y="0" type="line"/>
      <point x="342" y="0" type="line"/>
      <point x="674" y="700" type="line"/>
      <point x="514" y="700" type="line"/>
      <point x="217" y="52" type="line"/>
      <point x="302" y="52" type="line"/>
    </contour>
  </outline>
</glyph>
<glyph name="W" format="2">
  <advance width="600"/>
  <unicode hex="0057"/>
  <outline>
    <contour>
      <point x="455" y="0" type="line"/>
      <point x="675" y="700" type="line"/>
      <point x="540" y="700" type="line"/>
      <point x="365" y="114" type="line"/>
      <point x="412" y="114" type="line"/>
      <point x="410" y="560" type="line"/>
      <point x="296" y="560" type="line"/>
      <point x="138" y="114" type="line"/>
      <point x="186" y="114" type="line"/>
      <point x="217" y="700" type="line"/>
      <point x="83" y="700" type="line"/>
      <point x="57" y="0" type="line"/>
      <point x="187" y="0" type="line"/>
      <point x="360" y="491" type="line"/>
      <point x="324" y="491" type="line"/>
      <point x="327" y="0" type="line"/>
    </contour>
  </outline>
</glyph>
<glyph name="X" format="2">
  <advance width="600"/>
  <unicode hex="0058"/>
  <outline>
    <contour>
      <point x="111" y="700" type="line"/>
      <point x="262" y="323" type="line"/>
      <point x="283" y="282" type="line"/>
      <point x="390" y="0" type="line"/>
      <point x="541" y="0" type="line"/>
      <point x="376" y="413" type="line"/>
      <point x="357" y="448" type="line"/>
      <point x="262" y="700" type="line"/>
    </contour>
    <contour>
      <point x="647" y="700" type="line"/>
      <point x="480" y="700" type="line"/>
      <point x="291" y="426" type="line"/>
      <point x="269" y="414" type="line"/>
      <point x="-29" y="0" type="line"/>
      <point x="139" y="0" type="line"/>
      <point x="351" y="303" type="line"/>
      <point x="378" y="321" type="line"/>
    </contour>
  </outline>
</glyph>
<glyph name="Y" format="2">
  <advance width="600"/>
  <unicode hex="0059"/>
  <outline>
    <contour>
      <point x="353" y="326" type="line"/>
      <point x="228" y="700" type="line"/>
      <point x="84" y="700" type="line"/>
      <point x="229" y="281" type="line"/>
      <point x="180" y="0" type="line"/>
      <point x="331" y="0" type="line"/>
      <point x="380" y="281" type="line"/>
      <point x="674" y="700" type="line"/>
      <point x="511" y="700" type="line"/>
      <point x="250" y="326" type="line"/>
    </contour>
  </outline>
</glyph>
<glyph name="Z" format="2">
  <advance width="600"/>
  <unicode hex="005A"/>
  <outline>
    <contour>
      <point x="23" y="0" type="line"/>
      <point x="493" y="0" type="line"/>
      <point x="515" y="124" type="line"/>
      <point x="123" y="124" type="line"/>
      <point x="183" y="60" type="line"/>
      <point x="593" y="602" type="line"/>
      <point x="610" y="700" type="line"/>
      <point x="144" y="700" type="line"/>
      <point x="122" y="576" type="line"/>
      <point x="515" y="576" type="line"/>
      <point x="436" y="623" type="line"/>
      <point x="40" y="99" type="line"/>
    </contour>
  </outline>
</glyph>
<glyph name="bracketleft" format="2">
  <advance width="600"/>
  <unicode hex="005B"/>
  <outline>
    <contour>
      <point x="144" y="-113" type="line"/>
      <point x="419" y="-113" type="line"/>
      <point x="438" y="-6" type="line"/>
      <point x="308" y="-6" type="line"/>
      <point x="421" y="638" type="line"/>
      <point x="551" y="638" type="line"/>
      <point x="570" y="745" type="line"/>
      <point x="295" y="745" type="line"/>
    </contour>
  </outline>
</glyph>
<glyph name="a" format="2">
  <advance width="600"/>
  <unicode hex="0061"/>
  <outline>
    <contour>
      <point x="369" y="97" type="line"/>
      <point x="368" y="89"/>
      <point x="367" y="81"/>
      <point x="367" y="74" type="curve" smooth="yes"/>
      <point x="367" y="15"/>
      <point x="410" y="-7"/>
      <point x="481" y="-7" type="curve" smooth="yes"/>
      <point x="492" y="-7"/>
      <point x="505" y="-6"/>
      <point x="514" y="-5" type="curve"/>
      <point x="532" y="100" type="line"/>
      <point x="529" y="100"/>
      <point x="528" y="100"/>
      <point x="524" y="100" type="curve" smooth="yes"/>
      <point x="509" y="100"/>
      <point x="500" y="107"/>
      <point x="500" y="123" type="curve" smooth="yes"/>
      <point x="500" y="126"/>
      <point x="500" y="129"/>
      <point x="501" y="134" type="curve" smooth="yes"/>
      <point x="536" y="334" type="line" smooth="yes"/>
      <point x="538" y="347"/>
      <point x="539" y="358"/>
      <point x="539" y="369" type="curve" smooth="yes"/>
      <point x="539" y="471"/>
      <point x="451" y="512"/>
      <point x="335" y="512" type="curve" smooth="yes"/>
      <point x="171" y="512"/>
      <point x="110" y="434"/>
      <point x="92" y="358" type="curve"/>
      <point x="226" y="329" type="line"/>
      <point x="237" y="375"/>
      <point x="261" y="405"/>
      <point x="326" y="405" type="curve" smooth="yes"/>
      <point x="373" y="405"/>
      <point x="400" y="386"/>
      <point x="400" y="352" type="curve" smooth="yes"/>
      <point x="400" y="348"/>
      <point x="400" y="344"/>
      <point x="399" y="340" type="curve" smooth="yes"/>
      <point x="372" y="183" type="line" smooth="yes"/>
      <point x="361" y="119"/>
      <point x="303" y="91"/>
      <point x="246" y="91" type="curve" smooth="yes"/>
      <point x="202" y="91"/>
      <point x="175" y="112"/>
      <point x="175" y="145" type="curve" smooth="yes"/>
      <point x="175" y="182"/>
      <point x="205" y="205"/>
      <point x="257" y="209" type="curve" smooth="yes"/>
      <point x="444" y="223" type="line"/>
      <point x="461" y="317" type="line"/>
      <point x="224" y="300" type="line" smooth="yes"/>
      <point x="115" y="292"/>
      <point x="36" y="234"/>
      <point x="36" y="135" type="curve" smooth="yes"/>
      <point x="36" y="49"/>
      <point x="99" y="-12"/>
      <point x="203" y="-12" type="curve" smooth="yes"/>
      <point x="288" y="-12"/>
      <point x="355" y="22"/>
      <point x="395" y="90" type="curve"/>
    </contour>
  </outline>
</glyph>
<glyph name="c" format="2">
  <advance width="600"/>
  <unicode hex="0063"/>
  <guideline x="64" y="250" angle="80"/>
  <outline>
    <contour>
      <point x="576" y="341" type="line"/>
      <point x="558" y="441"/>
      <point x="481" y="512"/>
      <point x="349" y="512" type="curve" smooth="yes"/>
      <point x="172" y="512"/>
      <point x="63" y="366"/>
      <point x="63" y="213" type="curve" smooth="yes"/>
      <point x="63" y="82"/>
      <point x="148" y="-12"/>
      <point x="291" y="-12" type="curve" smooth="yes"/>
      <point x="402" y="-12"/>
      <point x="495" y="48"/>
      <point x="544" y="139" type="curve"/>
      <point x="414" y="178" type="line"/>
      <point x="388" y="121"/>
      <point x="351" y="102"/>
      <point x="304" y="102" type="curve" smooth="yes"/>
      <point x="239" y="102"/>
      <point x="204" y="141"/>
      <point x="204" y="217" type="curve" smooth="yes"/>
      <point x="204" y="313"/>
      <point x="251" y="398"/>
      <point x="348" y="398" type="curve" smooth="yes"/>
      <point x="394" y="398"/>
      <point x="435" y="370"/>
      <point x="440" y="312" type="curve"/>
    </contour>
  </outline>
</glyph>
<glyph name="e" format="2">
  <advance width="600"/>
  <unicode hex="0065"/>
  <outline>
    <contour>
      <point x="45" y="209" type="curve" smooth="yes"/>
      <point x="45" y="85"/>
      <point x="131" y="-12"/>
      <point x="276" y="-12" type="curve" smooth="yes"/>
      <point x="385" y="-12"/>
      <point x="469" y="39"/>
      <point x="520" y="130" type="curve"/>
      <point x="401" y="168" type="line"/>
      <point x="376" y="123"/>
      <point x="342" y="98"/>
      <point x="290" y="98" type="curve" smooth="yes"/>
      <point x="222" y="98"/>
      <point x="185" y="138"/>
      <point x="185" y="219" type="curve" smooth="yes"/>
      <point x="185" y="301"/>
      <point x="228" y="400"/>
      <point x="327" y="400" type="curve" smooth="yes"/>
      <point x="386" y="400"/>
      <point x="415" y="369"/>
      <point x="415" y="303" type="curve" smooth="yes"/>
      <point x="415" y="287"/>
      <point x="413" y="269"/>
      <point x="409" y="248" type="curve"/>
      <point x="466" y="308" type="line"/>
      <point x="127" y="308" type="line"/>
      <point x="110" y="204" type="line"/>
      <point x="540" y="204" type="line"/>
      <point x="546" y="236" type="line" smooth="yes"/>
      <point x="550" y="258"/>
      <point x="552" y="278"/>
      <point x="552" y="299" type="curve" smooth="yes"/>
      <point x="552" y="425"/>
      <point x="469" y="512"/>
      <point x="336" y="512" type="curve" smooth="yes"/>
      <point x="160" y="512"/>
      <point x="45" y="375"/>
    </contour>
  </outline>
</glyph>
<glyph name="f" format="2">
  <advance width="600"/>
  <unicode hex="0066"/>
  <outline>
    <contour>
      <point x="84" y="393" type="line"/>
      <point x="562" y="393" type="line"/>
      <point x="581" y="500" type="line"/>
      <point x="103" y="500" type="line"/>
    </contour>
    <contour>
      <point x="406" y="525" type="line"/>
      <point x="414" y="570"/>
      <point x="457" y="594"/>
      <point x="517" y="594" type="curve" smooth="yes"/>
      <point x="543" y="594"/>
      <point x="571" y="591"/>
      <point x="596" y="585" type="curve"/>
      <point x="615" y="692" type="line"/>
      <point x="591" y="699"/>
      <point x="557" y="705"/>
      <point x="509" y="705" type="curve" smooth="yes"/>
      <point x="372" y="705"/>
      <point x="285" y="638"/>
      <point x="267" y="534" type="curve" smooth="yes"/>
      <point x="173" y="0" type="line"/>
      <point x="313" y="0" type="line"/>
    </contour>
  </outline>
</glyph>
<glyph name="h" format="2">
  <advance width="600"/>
  <unicode hex="0068"/>
  <outline>
    <contour>
      <point x="150" y="700" type="line"/>
      <point x="27" y="0" type="line"/>
      <point x="167" y="0" type="line"/>
      <point x="219" y="292" type="line" smooth="yes"/>
      <point x="230" y="352"/>
      <point x="274" y="391"/>
      <point x="331" y="391" type="curve" smooth="yes"/>
      <point x="383" y="391"/>
      <point x="410" y="357"/>
      <point x="410" y="313" type="curve" smooth="yes"/>
      <point x="410" y="307"/>
      <point x="409" y="301"/>
      <point x="408" y="294" type="curve" smooth="yes"/>
      <point x="356" y="0" type="line"/>
      <point x="496" y="0" type="line"/>
      <point x="553" y="321" type="line" smooth="yes"/>
      <point x="556" y="336"/>
      <point x="557" y="350"/>
      <point x="557" y="363" type="curve" smooth="yes"/>
      <point x="557" y="458"/>
      <point x="494" y="512"/>
      <point x="400" y="512" type="curve" smooth="yes"/>
      <point x="316" y="512"/>
      <point x="254" y="464"/>
      <point x="216" y="393" type="curve"/>
      <point x="238" y="402" type="line"/>
      <point x="290" y="700" type="line"/>
    </contour>
  </outline>
</glyph>
<glyph name="l" format="2">
  <advance width="600"/>
  <unicode hex="006C"/>
  <outline>
    <contour>
      <point x="322" y="700" type="line"/>
      <point x="199" y="0" type="line"/>
      <point x="339" y="0" type="line"/>
      <point x="462" y="700" type="line"/>
    </contour>
    <contour>
      <point x="124" y="593" type="line"/>
      <point x="373" y="593" type="line"/>
      <point x="392" y="700" type="line"/>
      <point x="143" y="700" type="line"/>
    </contour>
    <contour>
      <point x="20" y="0" type="line"/>
      <point x="513" y="0" type="line"/>
      <point x="532" y="107" type="line"/>
      <point x="39" y="107" type="line"/>
    </contour>
  </outline>
</glyph>
<glyph name="m" format="2">
  <advance width="600"/>
  <unicode hex="006D"/>
  <outline>
    <contour>
      <point x="-10" y="0" type="line"/>
      <point x="112" y="0" type="line"/>
      <point x="174" y="353" type="line" smooth="yes"/>
      <point x="179" y="382"/>
      <point x="200" y="401"/>
      <point x="225" y="401" type="curve" smooth="yes"/>
      <point x="250" y="401"/>
      <point x="263" y="384"/>
      <point x="258" y="356" type="curve" smooth="yes"/>
      <point x="195" y="0" type="line"/>
      <point x="317" y="0" type="line"/>
      <point x="379" y="353" type="line" smooth="yes"/>
      <point x="384" y="382"/>
      <point x="405" y="401"/>
      <point x="430" y="401" type="curve" smooth="yes"/>
      <point x="455" y="401"/>
      <point x="468" y="384"/>
      <point x="463" y="356" type="curve" smooth="yes"/>
      <point x="400" y="0" type="line"/>
      <point x="522" y="0" type="line"/>
      <point x="591" y="392" type="line" smooth="yes"/>
      <point x="604" y="463"/>
      <point x="571" y="512"/>
      <point x="503" y="512" type="curve" smooth="yes"/>
      <point x="459" y="512"/>
      <point x="419" y="491"/>
      <point x="386" y="448" type="curve"/>
      <point x="377" y="488"/>
      <point x="346" y="512"/>
      <point x="299" y="512" type="curve" smooth="yes"/>
      <point x="257" y="512"/>
      <point x="218" y="488"/>
      <point x="192" y="453" type="curve"/>
      <point x="200" y="500" type="line"/>
      <point x="78" y="500" type="line"/>
    </contour>
  </outline>
</glyph>
<glyph name="o" format="2">
  <advance width="600"/>
  <unicode hex="006F"/>
  <outline>
    <contour>
      <point x="417" y="280" type="curve" smooth="yes"/>
      <point x="417" y="196"/>
      <point x="374" y="104"/>
      <point x="278" y="104" type="curve" smooth="yes"/>
      <point x="217" y="104"/>
      <point x="183" y="147"/>
      <point x="183" y="220" type="curve" smooth="yes"/>
      <point x="183" y="304"/>
      <point x="226" y="396"/>
      <point x="322" y="396" type="curve" smooth="yes"/>
      <point x="383" y="396"/>
      <point x="417" y="353"/>
    </contour>
    <contour>
      <point x="267" y="-12" type="curve" smooth="yes"/>
      <point x="448" y="-12"/>
      <point x="558" y="132"/>
      <point x="558" y="287" type="curve" smooth="yes"/>
      <point x="558" y="422"/>
      <point x="466" y="512"/>
      <point x="333" y="512" type="curve" smooth="yes"/>
      <point x="152" y="512"/>
      <point x="42" y="368"/>
      <point x="42" y="213" type="curve" smooth="yes"/>
      <point x="42" y="78"/>
      <point x="134" y="-12"/>
    </contour>
  </outline>
</glyph>
<glyph name="q" format="2">
  <advance width="600"/>
  <unicode hex="0071"/>
  <outline>
    <contour>
      <point x="377" y="117" type="line"/>
      <point x="325" y="-180" type="line"/>
      <point x="465" y="-180" type="line"/>
      <point x="585" y="500" type="line"/>
      <point x="445" y="500" type="line"/>
      <point x="423" y="377" type="line"/>
      <point x="456" y="376" type="line"/>
      <point x="439" y="460"/>
      <point x="374" y="513"/>
      <point x="283" y="513" type="curve" smooth="yes"/>
      <point x="128" y="513"/>
      <point x="30" y="363"/>
      <point x="30" y="198" type="curve" smooth="yes"/>
      <point x="30" y="66"/>
      <point x="111" y="-12"/>
      <point x="211" y="-12" type="curve" smooth="yes"/>
      <point x="298" y="-12"/>
      <point x="366" y="38"/>
      <point x="406" y="116" type="curve"/>
    </contour>
    <contour>
      <point x="410" y="286" type="curve" smooth="yes"/>
      <point x="410" y="198"/>
      <point x="366" y="104"/>
      <point x="272" y="104" type="curve" smooth="yes"/>
      <point x="211" y="104"/>
      <point x="173" y="145"/>
      <point x="173" y="217" type="curve" smooth="yes"/>
      <point x="173" y="305"/>
      <point x="217" y="396"/>
      <point x="311" y="396" type="curve" smooth="yes"/>
      <point x="372" y="396"/>
      <point x="410" y="357"/>
    </contour>
  </outline>
</glyph>
<glyph name="r" format="2">
  <advance width="600"/>
  <unicode hex="0072"/>
  <outline>
    <contour>
      <point x="232" y="192" type="line"/>
      <point x="255" y="321"/>
      <point x="341" y="381"/>
      <point x="455" y="381" type="curve" smooth="yes"/>
      <point x="506" y="381"/>
      <point x="542" y="370"/>
      <point x="569" y="359" type="curve"/>
      <point x="591" y="488" type="line"/>
      <point x="565" y="501"/>
      <point x="526" y="510"/>
      <point x="482" y="510" type="curve" smooth="yes"/>
      <point x="374" y="510"/>
      <point x="276" y="447"/>
      <point x="238" y="336" type="curve"/>
      <point x="259" y="347" type="line"/>
      <point x="286" y="500" type="line"/>
      <point x="146" y="500" type="line"/>
      <point x="58" y="0" type="line"/>
      <point x="198" y="0" type="line"/>
    </contour>
  </outline>
</glyph>
<glyph name="s" format="2">
  <advance width="600"/>
  <unicode hex="0073"/>
  <outline>
    <contour>
      <point x="42" y="176" type="line"/>
      <point x="41" y="169"/>
      <point x="41" y="161"/>
      <point x="41" y="151" type="curve" smooth="yes"/>
      <point x="41" y="59"/>
      <point x="128" y="-12"/>
      <point x="275" y="-12" type="curve" smooth="yes"/>
      <point x="444" y="-12"/>
      <point x="527" y="72"/>
      <point x="527" y="172" type="curve" smooth="yes"/>
      <point x="527" y="242"/>
      <point x="483" y="279"/>
      <point x="389" y="296" type="curve" smooth="yes"/>
      <point x="294" y="313" type="line" smooth="yes"/>
      <point x="245" y="322"/>
      <point x="230" y="339"/>
      <point x="230" y="362" type="curve" smooth="yes"/>
      <point x="230" y="391"/>
      <point x="260" y="413"/>
      <point x="313" y="413" type="curve" smooth="yes"/>
      <point x="365" y="413"/>
      <point x="405" y="388"/>
      <point x="405" y="352" type="curve" smooth="yes"/>
      <point x="405" y="349"/>
      <point x="405" y="347"/>
      <point x="405" y="345" type="curve"/>
      <point x="546" y="334" type="line"/>
      <point x="547" y="341"/>
      <point x="548" y="349"/>
      <point x="548" y="358" type="curve" smooth="yes"/>
      <point x="548" y="449"/>
      <point x="450" y="512"/>
      <point x="322" y="512" type="curve" smooth="yes"/>
      <point x="171" y="512"/>
      <point x="84" y="437"/>
      <point x="84" y="333" type="curve" smooth="yes"/>
      <point x="84" y="266"/>
      <point x="127" y="222"/>
      <point x="225" y="204" type="curve" smooth="yes"/>
      <point x="320" y="187" type="line" smooth="yes"/>
      <point x="369" y="178"/>
      <point x="380" y="165"/>
      <point x="380" y="145" type="curve" smooth="yes"/>
      <point x="380" y="117"/>
      <point x="355" y="88"/>
      <point x="291" y="88" type="curve" smooth="yes"/>
      <point x="220" y="88"/>
      <point x="186" y="118"/>
      <point x="186" y="154" type="curve" smooth="yes"/>
      <point x="186" y="156"/>
      <point x="186" y="159"/>
      <point x="186" y="161" type="curve"/>
    </contour>
  </outline>
</glyph>
<glyph name="v" format="2">
  <advance width="600"/>
  <unicode hex="0076"/>
  <outline>
    <contour>
      <point x="179" y="0" type="line"/>
      <point x="334" y="0" type="line"/>
      <point x="623" y="500" type="line"/>
      <point x="468" y="500" type="line"/>
      <point x="213" y="39" type="line"/>
      <point x="299" y="39" type="line"/>
      <point x="204" y="500" type="line"/>
      <point x="65" y="500" type="line"/>
    </contour>
  </outline>
</glyph>
<glyph name="w" format="2">
  <advance width="600"/>
  <unicode hex="0077"/>
  <outline>
    <contour>
      <point x="65" y="0" type="line"/>
      <point x="193" y="0" type="line"/>
      <point x="334" y="345" type="line"/>
      <point x="295" y="345" type="line"/>
      <point x="318" y="0" type="line"/>
      <point x="448" y="0" type="line"/>
      <point x="632" y="500" type="line"/>
      <point x="504" y="500" type="line"/>
      <point x="371" y="93" type="line"/>
      <point x="405" y="95" type="line"/>
      <point x="380" y="410" type="line"/>
      <point x="266" y="410" type="line"/>
      <point x="138" y="95" type="line"/>
      <point x="171" y="93" type="line"/>
      <point x="182" y="500" type="line"/>
      <point x="56" y="500" type="line"/>
    </contour>
  </outline>
</glyph>
<glyph name="bar" format="2">
  <advance width="600"/>
  <unicode hex="007C"/>
  <outline>
    <contour>
      <point x="314" y="745" type="line"/>
      <point x="163" y="-113" type="line"/>
      <point x="310" y="-113" type="line"/>
      <point x="461" y="745" type="line"/>
    </contour>
  </outline>
</glyph>
<glyph name="asciitilde" format="2">
  <advance width="600"/>
  <unicode hex="007E"/>
  <outline>
    <contour>
      <point x="398" y="232" type="curve" smooth="yes"/>
      <point x="462" y="232"/>
      <point x="540" y="294" name="inserted"/>
      <point x="566" y="408" type="curve"/>
      <point x="462" y="408" type="line"/>
      <point x="449" y="371"/>
      <point x="422" y="352" name="inserted"/>
      <point x="393" y="352" type="curve" smooth="yes"/>
      <point x="345" y="352"/>
      <point x="286" y="400" name="inserted"/>
      <point x="226" y="400" type="curve" smooth="yes"/>
      <point x="162" y="400"/>
      <point x="84" y="339" name="inserted"/>
      <point x="59" y="225" type="curve"/>
      <point x="163" y="225" type="line"/>
      <point x="175" y="262"/>
      <point x="202" y="280" name="inserted"/>
      <point x="231" y="280" type="curve" smooth="yes"/>
      <point x="279" y="280"/>
      <point x="338" y="232" name="inserted"/>
    </contour>
  </outline>
</glyph>
<glyph name="brokenbar" format="2">
  <advance width="600"/>
  <unicode hex="00A6"/>
  <outline>
    <contour>
      <point x="313" y="745" type="line"/>
      <point x="247" y="367" type="line"/>
      <point x="394" y="367" type="line"/>
      <point x="460" y="745" type="line"/>
    </contour>
    <contour>
      <point x="229" y="265" type="line"/>
      <point x="162" y="-113" type="line"/>
      <point x="309" y="-113" type="line"/>
      <point x="376" y="265" type="line"/>
    </contour>
  </outline>
</glyph>
<glyph name="section" format="2">
  <advance width="600"/>
  <unicode hex="00A7"/>
  <outline>
    <contour>
      <point x="420" y="105" type="line"/>
      <point x="510" y="175"/>
      <point x="550" y="231"/>
      <point x="550" y="307" type="curve" smooth="yes"/>
      <point x="550" y="372"/>
      <point x="513" y="420"/>
      <point x="423" y="453" type="curve" smooth="yes"/>
      <point x="328" y="488" type="line" smooth="yes"/>
      <point x="282" y="505"/>
      <point x="266" y="525"/>
      <point x="266" y="547" type="curve" smooth="yes"/>
      <point x="266" y="569"/>
      <point x="282" y="613"/>
      <point x="352" y="613" type="curve" smooth="yes"/>
      <point x="404" y="613"/>
      <point x="432" y="586"/>
      <point x="432" y="546" type="curve" smooth="yes"/>
      <point x="432" y="543"/>
      <point x="432" y="540"/>
      <point x="432" y="537" type="curve"/>
      <point x="571" y="525" type="line"/>
      <point x="572" y="533"/>
      <point x="573" y="543"/>
      <point x="573" y="553" type="curve" smooth="yes"/>
      <point x="573" y="649"/>
      <point x="494" y="712"/>
      <point x="363" y="712" type="curve" smooth="yes"/>
      <point x="200" y="712"/>
      <point x="123" y="620"/>
      <point x="123" y="518" type="curve" smooth="yes"/>
      <point x="123" y="453"/>
      <point x="164" y="411"/>
      <point x="255" y="377" type="curve" smooth="yes"/>
      <point x="350" y="342" type="line" smooth="yes"/>
      <point x="392" y="326"/>
      <point x="409" y="302"/>
      <point x="409" y="272" type="curve" smooth="yes"/>
      <point x="409" y="249"/>
      <point x="400" y="222"/>
      <point x="334" y="169" type="curve"/>
    </contour>
    <contour>
      <point x="30" y="80" type="line"/>
      <point x="28" y="69"/>
      <point x="27" y="56"/>
      <point x="27" y="44" type="curve" smooth="yes"/>
      <point x="27" y="-64"/>
      <point x="107" y="-126"/>
      <point x="253" y="-126" type="curve" smooth="yes"/>
      <point x="419" y="-126"/>
      <point x="494" y="-39"/>
      <point x="494" y="69" type="curve" smooth="yes"/>
      <point x="494" y="139"/>
      <point x="447" y="186"/>
      <point x="360" y="218" type="curve" smooth="yes"/>
      <point x="265" y="253" type="line" smooth="yes"/>
      <point x="221" y="269"/>
      <point x="206" y="289"/>
      <point x="206" y="318" type="curve" smooth="yes"/>
      <point x="206" y="346"/>
      <point x="230" y="387"/>
      <point x="293" y="424" type="curve"/>
      <point x="223" y="486" type="line"/>
      <point x="123" y="432"/>
      <point x="70" y="362"/>
      <point x="70" y="281" type="curve" smooth="yes"/>
      <point x="70" y="217"/>
      <point x="107" y="172"/>
      <point x="194" y="140" type="curve" smooth="yes"/>
      <point x="289" y="105" type="line" smooth="yes"/>
      <point x="332" y="89"/>
      <point x="350" y="67"/>
      <point x="350" y="40" type="curve" smooth="yes"/>
      <point x="350" y="10"/>
      <point x="326" y="-26"/>
      <point x="261" y="-26" type="curve" smooth="yes"/>
      <point x="203" y="-26"/>
      <point x="172" y="1"/>
      <point x="172" y="48" type="curve" smooth="yes"/>
      <point x="172" y="53"/>
      <point x="172" y="57"/>
      <point x="173" y="63" type="curve"/>
    </contour>
  </outline>
</glyph>
<glyph name="copyright" format="2">
  <advance width="600"/>
  <unicode hex="00A9"/>
  <outline>
    <contour>
      <point x="312" y="259" type="curve" smooth="yes"/>
      <point x="460" y="259"/>
      <point x="567" y="371"/>
      <point x="567" y="513" type="curve" smooth="yes"/>
      <point x="567" y="622"/>
      <point x="488" y="705"/>
      <point x="370" y="705" type="curve" smooth="yes"/>
      <point x="222" y="705"/>
      <point x="115" y="593"/>
      <point x="115" y="451" type="curve" smooth="yes"/>
      <point x="115" y="342"/>
      <point x="194" y="259"/>
    </contour>
    <contour>
      <point x="333" y="372" type="curve" smooth="yes"/>
      <point x="376" y="372"/>
      <point x="415" y="389"/>
      <point x="438" y="437" type="curve"/>
      <point x="378" y="454" type="line"/>
      <point x="369" y="436"/>
      <point x="356" y="429"/>
      <point x="337" y="429" type="curve" smooth="yes"/>
      <point x="314" y="429"/>
      <point x="302" y="448"/>
      <point x="302" y="473" type="curve" smooth="yes"/>
      <point x="302" y="513"/>
      <point x="325" y="537"/>
      <point x="351" y="537" type="curve" smooth="yes"/>
      <point x="371" y="537"/>
      <point x="381" y="523"/>
      <point x="383" y="505" type="curve"/>
      <point x="449" y="522" type="line"/>
      <point x="440" y="572"/>
      <point x="404" y="594"/>
      <point x="357" y="594" type="curve" smooth="yes"/>
      <point x="275" y="594"/>
      <point x="235" y="531"/>
      <point x="235" y="472" type="curve" smooth="yes"/>
      <point x="235" y="420"/>
      <point x="271" y="372"/>
    </contour>
    <contour>
      <point x="320" y="317" type="curve" smooth="yes"/>
      <point x="231" y="317"/>
      <point x="178" y="374"/>
      <point x="178" y="455" type="curve" smooth="yes"/>
      <point x="178" y="549"/>
      <point x="244" y="647"/>
      <point x="362" y="647" type="curve" smooth="yes"/>
      <point x="451" y="647"/>
      <point x="504" y="590"/>
      <point x="504" y="509" type="curve" smooth="yes"/>
      <point x="504" y="415"/>
      <point x="438" y="317"/>
    </contour>
  </outline>
</glyph>
<glyph name="ordfeminine" format="2">
  <advance width="600"/>
  <unicode hex="00AA"/>
  <outline>
    <contour>
      <point x="369" y="712" type="curve" smooth="yes"/>
      <point x="252" y="712"/>
      <point x="197" y="648"/>
      <point x="182" y="589" type="curve"/>
      <point x="296" y="567" type="line"/>
      <point x="303" y="602"/>
      <point x="315" y="624"/>
      <point x="359" y="624" type="curve" smooth="yes"/>
      <point x="400" y="624"/>
      <point x="413" y="606"/>
      <point x="407" y="570" type="curve" smooth="yes"/>
      <point x="386" y="452" type="line" smooth="yes"/>
      <point x="378" y="410"/>
      <point x="345" y="383"/>
      <point x="301" y="383" type="curve" smooth="yes"/>
      <point x="271" y="383"/>
      <point x="254" y="395"/>
      <point x="254" y="421" type="curve" smooth="yes"/>
      <point x="254" y="448"/>
      <point x="273" y="467"/>
      <point x="324" y="471" type="curve" smooth="yes"/>
      <point x="450" y="482" type="line"/>
      <point x="463" y="558" type="line"/>
      <point x="294" y="545" type="line" smooth="yes"/>
      <point x="195" y="538"/>
      <point x="136" y="490"/>
      <point x="136" y="411" type="curve" smooth="yes"/>
      <point x="136" y="340"/>
      <point x="187" y="300"/>
      <point x="267" y="300" type="curve" smooth="yes"/>
      <point x="334" y="300"/>
      <point x="377" y="331"/>
      <point x="413" y="384" type="curve"/>
      <point x="385" y="385" type="line"/>
      <point x="377" y="317"/>
      <point x="421.78947" y="298.17544"/>
      <point x="474" y="296" type="curve" smooth="yes"/>
      <point x="486" y="296"/>
      <point x="494" y="296"/>
      <point x="504" y="297" type="curve"/>
      <point x="518" y="381" type="line"/>
      <point x="516" y="381"/>
      <point x="515" y="381"/>
      <point x="512" y="381" type="curve" smooth="yes"/>
      <point x="500" y="381"/>
      <point x="491" y="388"/>
      <point x="494" y="408" type="curve" smooth="yes"/>
      <point x="523" y="574" type="line" smooth="yes"/>
      <point x="540" y="661"/>
      <point x="482.04348" y="712.0"/>
    </contour>
  </outline>
</glyph>
<glyph name="logicalnot" format="2">
  <advance width="600"/>
  <unicode hex="00AC"/>
  <outline>
    <contour>
      <point x="375" y="52" type="line"/>
      <point x="509" y="52" type="line"/>
      <point x="571" y="403" type="line"/>
      <point x="83" y="403" type="line"/>
      <point x="60" y="275" type="line"/>
      <point x="481" y="275" type="line"/>
      <point x="426" y="338" type="line"/>
    </contour>
  </outline>
</glyph>
<glyph name="degree" format="2">
  <advance width="600"/>
  <unicode hex="00B0"/>
  <outline>
    <contour>
      <point x="528" y="544" type="curve" smooth="yes"/>
      <point x="528" y="639"/>
      <point x="460" y="708"/>
      <point x="359" y="708" type="curve" smooth="yes"/>
      <point x="252" y="708"/>
      <point x="170" y="623"/>
      <point x="170" y="516" type="curve" smooth="yes"/>
      <point x="170" y="421"/>
      <point x="238" y="352"/>
      <point x="339" y="352" type="curve" smooth="yes"/>
      <point x="446" y="352"/>
      <point x="528" y="437"/>
    </contour>
    <contour>
      <point x="356" y="614" type="curve" smooth="yes"/>
      <point x="401" y="614"/>
      <point x="430" y="583"/>
      <point x="430" y="539" type="curve" smooth="yes"/>
      <point x="430" y="483"/>
      <point x="391" y="446"/>
      <point x="342" y="446" type="curve" smooth="yes"/>
      <point x="297" y="446"/>
      <point x="268" y="477"/>
      <point x="268" y="521" type="curve" smooth="yes"/>
      <point x="268" y="577"/>
      <point x="307" y="614"/>
    </contour>
  </outline>
</glyph>
<glyph name="paragraph" format="2">
  <advance width="600"/>
  <unicode hex="00B6"/>
  <outline>
    <contour>
      <point x="436" y="700" type="line"/>
      <point x="324" y="700" type="line"/>
      <point x="181" y="-113" type="line"/>
      <point x="293" y="-113" type="line"/>
    </contour>
    <contour>
      <point x="598" y="700" type="line"/>
      <point x="486" y="700" type="line"/>
      <point x="343" y="-113" type="line"/>
      <point x="455" y="-113" type="line"/>
    </contour>
    <contour>
      <point x="296" y="315" type="line"/>
      <point x="348" y="610" type="line"/>
      <point x="646" y="610" type="line"/>
      <point x="662" y="700" type="line"/>
      <point x="299" y="700" type="line" smooth="yes"/>
      <point x="168" y="700"/>
      <point x="65" y="630"/>
      <point x="65" y="494" type="curve" smooth="yes"/>
      <point x="65" y="385"/>
      <point x="144" y="315"/>
      <point x="252" y="315" type="curve" smooth="yes"/>
    </contour>
  </outline>
</glyph>
<glyph name="ordmasculine" format="2">
  <advance width="600"/>
  <unicode hex="00BA"/>
  <outline>
    <contour>
      <point x="429" y="537" type="curve" smooth="yes"/>
      <point x="429" y="473"/>
      <point x="399" y="393"/>
      <point x="328" y="393" type="curve" smooth="yes"/>
      <point x="286" y="393"/>
      <point x="261" y="421"/>
      <point x="261" y="473" type="curve" smooth="yes"/>
      <point x="261" y="537"/>
      <point x="291" y="617"/>
      <point x="362" y="617" type="curve" smooth="yes"/>
      <point x="404" y="617"/>
      <point x="429" y="589"/>
    </contour>
    <contour>
      <point x="142" y="469" type="curve" smooth="yes"/>
      <point x="142" y="363"/>
      <point x="212" y="298"/>
      <point x="316" y="298" type="curve" smooth="yes"/>
      <point x="468" y="298"/>
      <point x="548" y="418"/>
      <point x="548" y="541" type="curve" smooth="yes"/>
      <point x="548" y="647"/>
      <point x="478" y="712"/>
      <point x="374" y="712" type="curve" smooth="yes"/>
      <point x="222" y="712"/>
      <point x="142" y="592"/>
    </contour>
  </outline>
</glyph>
<glyph name="AE" format="2">
  <advance width="600"/>
  <unicode hex="00C6"/>
  <outline>
    <contour>
      <point x="-45" y="0" type="line"/>
      <point x="99" y="0" type="line"/>
      <point x="309" y="576" type="line"/>
      <point x="380" y="576" type="line"/>
      <point x="402" y="700" type="line"/>
      <point x="217" y="700" type="line"/>
    </contour>
    <contour>
      <point x="86" y="151" type="line"/>
      <point x="333" y="151" type="line"/>
      <point x="354" y="273" type="line"/>
      <point x="107" y="273" type="line"/>
    </contour>
    <contour>
      <point x="300" y="0" type="line"/>
      <point x="552" y="0" type="line"/>
      <point x="574" y="124" type="line"/>
      <point x="322" y="124" type="line"/>
    </contour>
    <contour>
      <point x="239" y="0" type="line"/>
      <point x="375" y="0" type="line"/>
      <point x="498" y="700" type="line"/>
      <point x="362" y="700" type="line"/>
    </contour>
    <contour>
      <point x="358" y="294" type="line"/>
      <point x="535" y="294" type="line"/>
      <point x="556" y="417" type="line"/>
      <point x="379" y="417" type="line"/>
    </contour>
    <contour>
      <point x="397" y="576" type="line"/>
      <point x="635" y="576" type="line"/>
      <point x="657" y="700" type="line"/>
      <point x="419" y="700" type="line"/>
    </contour>
  </outline>
</glyph>
<glyph name="Icircumflex" format="2">
  <advance width="600"/>
  <unicode hex="00CE"/>
  <outline>
    <contour>
      <point x="336" y="892" type="line"/>
      <point x="199" y="760" type="line"/>
      <point x="331" y="760" type="line"/>
      <point x="463" y="854" type="line"/>
      <point x="357" y="854" type="line"/>
      <point x="455" y="760" type="line"/>
      <point x="579" y="760" type="line"/>
      <point x="488" y="892" type="line"/>
    </contour>
    <component base="I"/>
  </outline>
</glyph>
<glyph name="Idieresis" format="2">
  <advance width="600"/>
  <unicode hex="00CF"/>
  <outline>
    <contour>
      <point x="234" y="908" type="line"/>
      <point x="208" y="760" type="line"/>
      <point x="360" y="760" type="line"/>
      <point x="386" y="908" type="line"/>
    </contour>
    <contour>
      <point x="446" y="908" type="line"/>
      <point x="420" y="760" type="line"/>
      <point x="572" y="760" type="line"/>
      <point x="598" y="908" type="line"/>
    </contour>
    <component base="I"/>
  </outline>
</glyph>
<glyph name="Eth" format="2">
  <advance width="600"/>
  <unicode hex="00D0"/>
  <outline>
    <contour>
      <point x="18" y="0" type="line"/>
      <point x="168" y="0" type="line"/>
      <point x="291" y="700" type="line"/>
      <point x="141" y="700" type="line"/>
    </contour>
    <contour>
      <point x="103" y="123" type="line"/>
      <point x="81" y="0" type="line"/>
      <point x="259" y="0" type="line" smooth="yes"/>
      <point x="510" y="0"/>
      <point x="598" y="225"/>
      <point x="598" y="416" type="curve" smooth="yes"/>
      <point x="598" y="591"/>
      <point x="511" y="700"/>
      <point x="358" y="700" type="curve" smooth="yes"/>
      <point x="204" y="700" type="line"/>
      <point x="183" y="577" type="line"/>
      <point x="318" y="577" type="line" smooth="yes"/>
      <point x="395" y="577"/>
      <point x="444" y="527"/>
      <point x="444" y="416" type="curve" smooth="yes"/>
      <point x="444" y="314"/>
      <point x="412" y="123"/>
      <point x="255" y="123" type="curve" smooth="yes"/>
    </contour>
    <contour>
      <point x="18" y="297" type="line"/>
      <point x="327" y="297" type="line"/>
      <point x="349" y="418" type="line"/>
      <point x="40" y="418" type="line"/>
    </contour>
  </outline>
</glyph>
<glyph name="Oslash" format="2">
  <advance width="600"/>
  <unicode hex="00D8"/>
  <outline>
    <contour>
      <point x="-3" y="32" type="line"/>
      <point x="90" y="-40" type="line"/>
      <point x="639" y="667" type="line"/>
      <point x="546" y="739" type="line"/>
    </contour>
    <contour>
      <point x="455" y="428" type="curve" smooth="yes"/>
      <point x="455" y="268"/>
      <point x="387" y="116"/>
      <point x="281" y="116" type="curve" smooth="yes"/>
      <point x="214" y="116"/>
      <point x="181" y="170"/>
      <point x="181" y="272" type="curve" smooth="yes"/>
      <point x="181" y="432"/>
      <point x="249" y="584"/>
      <point x="355" y="584" type="curve" smooth="yes"/>
      <point x="422" y="584"/>
      <point x="455" y="530"/>
    </contour>
    <contour>
      <point x="42" y="260" type="curve" smooth="yes"/>
      <point x="42" y="80"/>
      <point x="132" y="-12"/>
      <point x="275" y="-12" type="curve" smooth="yes"/>
      <point x="510" y="-12"/>
      <point x="594" y="258"/>
      <point x="594" y="440" type="curve" smooth="yes"/>
      <point x="594" y="620"/>
      <point x="504" y="712"/>
      <point x="361" y="712" type="curve" smooth="yes"/>
      <point x="126" y="712"/>
      <point x="42" y="442"/>
    </contour>
  </outline>
</glyph>
<glyph name="Thorn" format="2">
  <advance width="600"/>
  <unicode hex="00DE"/>
  <outline>
    <contour>
      <point x="135" y="700" type="line"/>
      <point x="12" y="0" type="line"/>
      <point x="162" y="0" type="line"/>
      <point x="285" y="700" type="line"/>
    </contour>
    <contour>
      <point x="349" y="440" type="line"/>
      <point x="407" y="440"/>
      <point x="437" y="414"/>
      <point x="437" y="367" type="curve" smooth="yes"/>
      <point x="437" y="319"/>
      <point x="406" y="270"/>
      <point x="319" y="270" type="curve" smooth="yes"/>
      <point x="132" y="270" type="line"/>
      <point x="110" y="147" type="line"/>
      <point x="312" y="147" type="line" smooth="yes"/>
      <point x="519" y="147"/>
      <point x="592" y="269"/>
      <point x="592" y="387" type="curve" smooth="yes"/>
      <point x="592" y="493"/>
      <point x="528" y="563"/>
      <point x="381" y="563" type="curve" smooth="yes"/>
      <point x="184" y="563" type="line"/>
      <point x="162" y="440" type="line"/>
    </contour>
  </outline>
</glyph>
<glyph name="ae" format="2">
  <advance width="600"/>
  <unicode hex="00E6"/>
  <outline>
    <contour>
      <point x="-14" y="129" type="curve" smooth="yes"/>
      <point x="-14" y="36"/>
      <point x="55" y="-12"/>
      <point x="127" y="-12" type="curve" smooth="yes"/>
      <point x="262" y="-12"/>
      <point x="290" y="119"/>
      <point x="303" y="194" type="curve"/>
      <point x="347" y="368" type="line"/>
      <point x="348" y="376"/>
      <point x="349" y="384"/>
      <point x="349" y="392" type="curve" smooth="yes"/>
      <point x="349" y="458"/>
      <point x="300" y="512"/>
      <point x="215" y="512" type="curve" smooth="yes"/>
      <point x="118" y="512"/>
      <point x="57" y="462"/>
      <point x="29" y="355" type="curve"/>
      <point x="143" y="334" type="line"/>
      <point x="158" y="389"/>
      <point x="176" y="408"/>
      <point x="209" y="408" type="curve" smooth="yes"/>
      <point x="230" y="408"/>
      <point x="247" y="398"/>
      <point x="247" y="369" type="curve" smooth="yes"/>
      <point x="247" y="364"/>
      <point x="246" y="358"/>
      <point x="245" y="352" type="curve" smooth="yes"/>
      <point x="208" y="143" type="line" smooth="yes"/>
      <point x="202" y="109"/>
      <point x="182" y="88"/>
      <point x="151" y="88" type="curve" smooth="yes"/>
      <point x="119" y="88"/>
      <point x="103" y="110"/>
      <point x="103" y="139" type="curve" smooth="yes"/>
      <point x="103" y="184"/>
      <point x="135" y="202"/>
      <point x="182" y="205" type="curve" smooth="yes"/>
      <point x="282" y="212" type="line"/>
      <point x="300" y="312" type="line"/>
      <point x="186" y="306" type="line" smooth="yes"/>
      <point x="75" y="301"/>
      <point x="-14" y="244"/>
    </contour>
    <contour>
      <point x="254" y="258" type="curve" smooth="yes"/>
      <point x="223" y="79"/>
      <point x="277" y="-12"/>
      <point x="393" y="-12" type="curve" smooth="yes"/>
      <point x="458" y="-12"/>
      <point x="520" y="25"/>
      <point x="566" y="131" type="curve"/>
      <point x="456" y="160" type="line"/>
      <point x="440" y="110"/>
      <point x="418" y="95"/>
      <point x="395" y="95" type="curve" smooth="yes"/>
      <point x="367" y="95"/>
      <point x="343" y="107"/>
      <point x="343" y="174" type="curve" smooth="yes"/>
      <point x="343" y="223"/>
      <point x="359" y="403"/>
      <point x="433" y="403" type="curve" smooth="yes"/>
      <point x="456" y="403"/>
      <point x="478" y="391"/>
      <point x="478" y="333" type="curve" smooth="yes"/>
      <point x="478" y="312"/>
      <point x="476" y="286"/>
      <point x="469" y="252" type="curve"/>
      <point x="543" y="308" type="line"/>
      <point x="297" y="308" type="line"/>
      <point x="279" y="205" type="line"/>
      <point x="578" y="205" type="line"/>
      <point x="581" y="224" type="line"/>
      <point x="587" y="265"/>
      <point x="591" y="288"/>
      <point x="591" y="323" type="curve" smooth="yes"/>
      <point x="591" y="448"/>
      <point x="535" y="512"/>
      <point x="448" y="512" type="curve" smooth="yes"/>
      <point x="340" y="512"/>
      <point x="277" y="387"/>
    </contour>
  </outline>
</glyph>
<glyph name="icircumflex" format="2">
  <advance width="600"/>
  <unicode hex="00EE"/>
  <outline>
    <contour>
      <point x="327" y="700" type="line"/>
      <point x="198" y="564" type="line"/>
      <point x="326" y="564" type="line"/>
      <point x="461" y="680" type="line"/>
      <point x="341" y="680" type="line"/>
      <point x="436" y="564" type="line"/>
      <point x="552" y="564" type="line"/>
      <point x="471" y="700" type="line"/>
    </contour>
    <component base="dotlessi"/>
  </outline>
</glyph>
<glyph name="idieresis" format="2">
  <advance width="600"/>
  <unicode hex="00EF"/>
  <outline>
    <contour>
      <point x="228" y="700" type="line"/>
      <point x="204" y="560" type="line"/>
      <point x="349" y="560" type="line"/>
      <point x="373" y="700" type="line"/>
    </contour>
    <contour>
      <point x="425" y="700" type="line"/>
      <point x="401" y="560" type="line"/>
      <point x="546" y="560" type="line"/>
      <point x="570" y="700" type="line"/>
    </contour>
    <component base="dotlessi"/>
  </outline>
</glyph>
<glyph name="eth" format="2">
  <advance width="600"/>
  <unicode hex="00F0"/>
  <guideline x="559" y="266" angle="80" identifier="yfbi3c0MeS"/>
  <guideline x="45" y="246" angle="80" identifier="nubVHrAz0m"/>
  <outline>
    <contour>
      <point x="417" y="270" type="curve" smooth="yes"/>
      <point x="417" y="191"/>
      <point x="374" y="104"/>
      <point x="280" y="104" type="curve" smooth="yes"/>
      <point x="218" y="104"/>
      <point x="183" y="144"/>
      <point x="183" y="212" type="curve" smooth="yes"/>
      <point x="183" y="291"/>
      <point x="226" y="376"/>
      <point x="320" y="376" type="curve" smooth="yes"/>
      <point x="382" y="376"/>
      <point x="417" y="339"/>
    </contour>
    <contour>
      <point x="568" y="347" type="curve" smooth="yes"/>
      <point x="568" y="525"/>
      <point x="460" y="648"/>
      <point x="334" y="713" type="curve"/>
      <point x="194" y="695" type="line"/>
      <point x="318" y="604"/>
      <point x="399" y="541"/>
      <point x="430" y="409" type="curve"/>
      <point x="435" y="409" type="line"/>
      <point x="410" y="463"/>
      <point x="359" y="493"/>
      <point x="297" y="493" type="curve" smooth="yes"/>
      <point x="154" y="493"/>
      <point x="41" y="357"/>
      <point x="41" y="207" type="curve" smooth="yes"/>
      <point x="41" y="79"/>
      <point x="129" y="-12"/>
      <point x="269" y="-12" type="curve" smooth="yes"/>
      <point x="464" y="-12"/>
      <point x="568" y="155"/>
    </contour>
    <contour>
      <point x="214" y="502" type="line"/>
      <point x="557" y="626" type="line"/>
      <point x="535" y="693" type="line"/>
      <point x="192" y="569" type="line"/>
    </contour>
  </outline>
</glyph>
<glyph name="divide" format="2">
  <advance width="600"/>
  <unicode hex="00F7"/>
  <outline>
    <contour>
      <point x="549" y="280" type="line"/>
      <point x="571" y="400" type="line"/>
      <point x="83" y="400" type="line"/>
      <point x="61" y="280" type="line"/>
    </contour>
    <contour>
      <point x="219" y="203" type="line"/>
      <point x="194" y="62" type="line"/>
      <point x="339" y="62" type="line"/>
      <point x="364" y="203" type="line"/>
    </contour>
    <contour>
      <point x="292" y="617" type="line"/>
      <point x="267" y="476" type="line"/>
      <point x="412" y="476" type="line"/>
      <point x="437" y="617" type="line"/>
    </contour>
  </outline>
</glyph>
<glyph name="thorn" format="2">
  <advance width="600"/>
  <unicode hex="00FE"/>
  <outline>
    <contour>
      <point x="571" y="305" type="curve" smooth="yes"/>
      <point x="571" y="436"/>
      <point x="494" y="512"/>
      <point x="394" y="512" type="curve" smooth="yes"/>
      <point x="309" y="512"/>
      <point x="234" y="462"/>
      <point x="190" y="384" type="curve"/>
      <point x="223" y="383" type="line"/>
      <point x="278" y="700" type="line"/>
      <point x="138" y="700" type="line"/>
      <point x="-17" y="-180" type="line"/>
      <point x="123" y="-180" type="line"/>
      <point x="177" y="123" type="line"/>
      <point x="144" y="124" type="line"/>
      <point x="161" y="40"/>
      <point x="224" y="-13"/>
      <point x="317" y="-13" type="curve" smooth="yes"/>
      <point x="472" y="-13"/>
      <point x="571" y="142"/>
    </contour>
    <contour>
      <point x="427" y="283" type="curve" smooth="yes"/>
      <point x="427" y="195"/>
      <point x="383" y="104"/>
      <point x="289" y="104" type="curve" smooth="yes"/>
      <point x="228" y="104"/>
      <point x="190" y="143"/>
      <point x="190" y="214" type="curve" smooth="yes"/>
      <point x="190" y="302"/>
      <point x="234" y="396"/>
      <point x="328" y="396" type="curve" smooth="yes"/>
      <point x="389" y="396"/>
      <point x="427" y="355"/>
    </contour>
  </outline>
</glyph>
<glyph name="Aogonek" format="2">
  <advance width="600"/>
  <unicode hex="0104"/>
  <outline>
    <contour>
      <point x="128" y="267" type="line"/>
      <point x="106" y="145" type="line"/>
      <point x="455" y="145" type="line"/>
      <point x="477" y="267" type="line"/>
    </contour>
    <contour>
      <point x="418" y="-45" type="line"/>
      <point x="551" y="0" type="line"/>
      <point x="467" y="700" type="line"/>
      <point x="295" y="700" type="line"/>
      <point x="-39" y="0" type="line"/>
      <point x="111" y="0" type="line"/>
      <point x="411" y="647" type="line"/>
      <point x="345" y="647" type="line"/>
    </contour>
    <contour>
      <point x="461" y="-203" type="curve" smooth="yes"/>
      <point x="481" y="-203"/>
      <point x="512" y="-200"/>
      <point x="535" y="-190" type="curve"/>
      <point x="543" y="-108" type="line"/>
      <point x="524" y="-113"/>
      <point x="510" y="-114"/>
      <point x="494" y="-114" type="curve" smooth="yes"/>
      <point x="467" y="-114"/>
      <point x="452" y="-103"/>
      <point x="452" y="-87" type="curve" smooth="yes"/>
      <point x="452" y="-61"/>
      <point x="479" y="-38"/>
      <point x="551" y="0" type="curve"/>
      <point x="438" y="0" type="line"/>
      <point x="386" y="-30"/>
      <point x="337" y="-64"/>
      <point x="337" y="-123" type="curve" smooth="yes"/>
      <point x="337" y="-167"/>
      <point x="374" y="-203"/>
    </contour>
  </outline>
</glyph>
<glyph name="aogonek" format="2">
  <advance width="600"/>
  <unicode hex="0105"/>
  <outline>
    <contour>
      <point x="424" y="-208" type="curve" smooth="yes"/>
      <point x="444" y="-208"/>
      <point x="475" y="-205"/>
      <point x="498" y="-195" type="curve"/>
      <point x="506" y="-113" type="line"/>
      <point x="487" y="-118"/>
      <point x="473" y="-119"/>
      <point x="457" y="-119" type="curve" smooth="yes"/>
      <point x="430" y="-119"/>
      <point x="415" y="-108"/>
      <point x="415" y="-92" type="curve" smooth="yes"/>
      <point x="415" y="-66"/>
      <point x="442" y="-43"/>
      <point x="514" y="-5" type="curve"/>
      <point x="429" y="11" type="line"/>
      <point x="368" y="-24"/>
      <point x="300" y="-58"/>
      <point x="300" y="-128" type="curve" smooth="yes"/>
      <point x="300" y="-172"/>
      <point x="337" y="-208"/>
    </contour>
    <component base="a"/>
  </outline>
</glyph>
<glyph name="dcroat" format="2">
  <advance width="600"/>
  <unicode hex="0111"/>
  <outline>
    <contour>
      <point x="325" y="547" type="line"/>
      <point x="643" y="547" type="line"/>
      <point x="657" y="627" type="line"/>
      <point x="339" y="627" type="line"/>
    </contour>
    <component base="d" xOffset="-10" identifier="CA4622EB"/>
  </outline>
</glyph>
<glyph name="Hbar" format="2">
  <advance width="600"/>
  <unicode hex="0126"/>
  <outline>
    <contour>
      <point x="38" y="500" type="line"/>
      <point x="650" y="500" type="line"/>
      <point x="669" y="608" type="line"/>
      <point x="57" y="608" type="line"/>
    </contour>
    <contour>
      <point x="124" y="279" type="line"/>
      <point x="487" y="279" type="line"/>
      <point x="509" y="403" type="line"/>
      <point x="146" y="403" type="line"/>
    </contour>
    <contour>
      <point x="472" y="700" type="line"/>
      <point x="349" y="0" type="line"/>
      <point x="500" y="0" type="line"/>
      <point x="623" y="700" type="line"/>
    </contour>
    <contour>
      <point x="135" y="700" type="line"/>
      <point x="12" y="0" type="line"/>
      <point x="163" y="0" type="line"/>
      <point x="286" y="700" type="line"/>
    </contour>
  </outline>
</glyph>
<glyph name="hbar" format="2">
  <advance width="600"/>
  <unicode hex="0127"/>
  <outline>
    <contour>
      <point x="388" y="547" type="line"/>
      <point x="402" y="627" type="line"/>
      <point x="84" y="627" type="line"/>
      <point x="70" y="547" type="line"/>
    </contour>
    <component base="h" xOffset="11"/>
  </outline>
</glyph>
<glyph name="Itilde" format="2">
  <advance width="600"/>
  <unicode hex="0128"/>
  <outline>
    <contour>
      <point x="340" y="893" type="curve" smooth="yes"/>
      <point x="291" y="893"/>
      <point x="240" y="848"/>
      <point x="226" y="760" type="curve"/>
      <point x="320" y="760" type="line"/>
      <point x="325" y="780"/>
      <point x="334" y="794"/>
      <point x="349" y="794" type="curve" smooth="yes"/>
      <point x="381" y="794"/>
      <point x="423" y="763"/>
      <point x="463" y="763" type="curve" smooth="yes"/>
      <point x="512" y="763"/>
      <point x="563" y="808"/>
      <point x="578" y="896" type="curve"/>
      <point x="483" y="896" type="line"/>
      <point x="477" y="876"/>
      <point x="470" y="862"/>
      <point x="455" y="862" type="curve" smooth="yes"/>
      <point x="423" y="862"/>
      <point x="380" y="893"/>
    </contour>
    <component base="I"/>
  </outline>
</glyph>
<glyph name="itilde" format="2">
  <advance width="600"/>
  <unicode hex="0129"/>
  <outline>
    <contour>
      <point x="326" y="696" type="curve" smooth="yes"/>
      <point x="279" y="696"/>
      <point x="230" y="649"/>
      <point x="215" y="564" type="curve"/>
      <point x="308" y="564" type="line"/>
      <point x="313" y="584"/>
      <point x="323" y="598"/>
      <point x="341" y="598" type="curve" smooth="yes"/>
      <point x="370" y="598"/>
      <point x="409" y="567"/>
      <point x="449" y="567" type="curve" smooth="yes"/>
      <point x="496" y="567"/>
      <point x="545" y="614"/>
      <point x="559" y="699" type="curve"/>
      <point x="465" y="699" type="line"/>
      <point x="461" y="678"/>
      <point x="451" y="665"/>
      <point x="433" y="665" type="curve" smooth="yes"/>
      <point x="407" y="665"/>
      <point x="369" y="696"/>
    </contour>
    <component base="dotlessi"/>
  </outline>
</glyph>
<glyph name="Imacron" format="2">
  <advance width="600"/>
  <unicode hex="012A"/>
  <outline>
    <contour>
      <point x="233" y="760" type="line"/>
      <point x="547" y="760" type="line"/>
      <point x="566" y="869" type="line"/>
      <point x="252" y="869" type="line"/>
    </contour>
    <component base="I"/>
  </outline>
</glyph>
<glyph name="imacron" format="2">
  <advance width="600"/>
  <unicode hex="012B"/>
  <outline>
    <contour>
      <point x="224" y="583" type="line"/>
      <point x="534" y="583" type="line"/>
      <point x="553" y="693" type="line"/>
      <point x="243" y="693" type="line"/>
    </contour>
    <component base="dotlessi"/>
  </outline>
</glyph>
<glyph name="Ibreve" format="2">
  <advance width="600"/>
  <unicode hex="012C"/>
  <outline>
    <contour>
      <point x="250" y="895" type="line"/>
      <point x="243" y="834"/>
      <point x="284" y="754"/>
      <point x="400" y="754" type="curve" smooth="yes"/>
      <point x="503" y="754"/>
      <point x="566" y="824"/>
      <point x="578" y="895" type="curve"/>
      <point x="467" y="895" type="line"/>
      <point x="462" y="866"/>
      <point x="442" y="844"/>
      <point x="409" y="844" type="curve" smooth="yes"/>
      <point x="376" y="844"/>
      <point x="359" y="864"/>
      <point x="361" y="895" type="curve"/>
    </contour>
    <component base="I"/>
  </outline>
</glyph>
<glyph name="ibreve" format="2">
  <advance width="600"/>
  <unicode hex="012D"/>
  <outline>
    <contour>
      <point x="239" y="700" type="line"/>
      <point x="228" y="637"/>
      <point x="275" y="558"/>
      <point x="385" y="558" type="curve" smooth="yes"/>
      <point x="491" y="558"/>
      <point x="548" y="629"/>
      <point x="559" y="700" type="curve"/>
      <point x="449" y="700" type="line"/>
      <point x="444" y="670"/>
      <point x="426" y="648"/>
      <point x="394" y="648" type="curve" smooth="yes"/>
      <point x="362" y="648"/>
      <point x="344" y="669"/>
      <point x="349" y="700" type="curve"/>
    </contour>
    <component base="dotlessi"/>
  </outline>
</glyph>
<glyph name="dotlessi" format="2">
  <advance width="600"/>
  <unicode hex="0131"/>
  <outline>
    <contour>
      <point x="46" y="107" type="line"/>
      <point x="27" y="0" type="line"/>
      <point x="520" y="0" type="line"/>
      <point x="539" y="107" type="line"/>
    </contour>
    <contour>
      <point x="115" y="500" type="line"/>
      <point x="96" y="393" type="line"/>
      <point x="345" y="393" type="line"/>
      <point x="364" y="500" type="line"/>
    </contour>
    <contour>
      <point x="294" y="500" type="line"/>
      <point x="206" y="0" type="line"/>
      <point x="346" y="0" type="line"/>
      <point x="434" y="500" type="line"/>
    </contour>
  </outline>
</glyph>
<glyph name="IJ" format="2">
  <advance width="600"/>
  <unicode hex="0132"/>
  <outline>
    <contour>
      <point x="119" y="700" type="line"/>
      <point x="-4" y="0" type="line"/>
      <point x="147" y="0" type="line"/>
      <point x="270" y="700" type="line"/>
    </contour>
    <contour>
      <point x="544" y="159" type="curve" smooth="yes"/>
      <point x="639" y="700" type="line"/>
      <point x="489" y="700" type="line"/>
      <point x="395" y="167" type="line" smooth="yes"/>
      <point x="389" y="131"/>
      <point x="363" y="109"/>
      <point x="318" y="109" type="curve" smooth="yes"/>
      <point x="285" y="109"/>
      <point x="258" y="116"/>
      <point x="233" y="120" type="curve"/>
      <point x="212" y="4" type="line"/>
      <point x="242" y="-3"/>
      <point x="287" y="-12"/>
      <point x="334" y="-12" type="curve" smooth="yes"/>
      <point x="459" y="-12"/>
      <point x="525" y="52"/>
    </contour>
  </outline>
</glyph>
<glyph name="jcircumflex" format="2">
  <advance width="600"/>
  <unicode hex="0135"/>
  <outline>
    <contour>
      <point x="380" y="700" type="line"/>
      <point x="251" y="564" type="line"/>
      <point x="379" y="564" type="line"/>
      <point x="514" y="680" type="line"/>
      <point x="394" y="680" type="line"/>
      <point x="489" y="564" type="line"/>
      <point x="605" y="564" type="line"/>
      <point x="524" y="700" type="line"/>
    </contour>
    <component base="dotlessj"/>
  </outline>
</glyph>
<glyph name="ldot" format="2">
  <advance width="600"/>
  <unicode hex="0140"/>
  <outline>
    <contour>
      <point x="583" y="446" type="line"/>
      <point x="557" y="303" type="line"/>
      <point x="688" y="303" type="line"/>
      <point x="714" y="446" type="line"/>
    </contour>
    <component base="l"/>
  </outline>
</glyph>
<glyph name="Lslash" format="2">
  <advance width="600"/>
  <unicode hex="0141"/>
  <outline>
    <contour>
      <point x="8" y="174" type="line"/>
      <point x="438" y="353" type="line"/>
      <point x="462" y="488" type="line"/>
      <point x="31" y="309" type="line"/>
    </contour>
    <component base="L" xOffset="21" identifier="24B9554D"/>
  </outline>
</glyph>
<glyph name="lslash" format="2">
  <advance width="600"/>
  <unicode hex="0142"/>
  <guideline x="571" y="537" angle="80"/>
  <guideline x="114" y="319" angle="80"/>
  <outline>
    <contour>
      <point x="114" y="319" type="line"/>
      <point x="96" y="216" type="line"/>
      <point x="552" y="434" type="line"/>
      <point x="571" y="537" type="line"/>
    </contour>
    <component base="l"/>
  </outline>
</glyph>
<glyph name="Eng" format="2">
  <advance width="600"/>
  <unicode hex="014A"/>
  <outline>
    <contour>
      <point x="221" y="-70" type="curve"/>
      <point x="201" y="-180" type="line"/>
      <point x="233" y="-187"/>
      <point x="269" y="-192"/>
      <point x="312" y="-192" type="curve" smooth="yes"/>
      <point x="416" y="-192"/>
      <point x="477" y="-128"/>
      <point x="492" y="-45" type="curve" smooth="yes"/>
      <point x="623" y="700" type="line"/>
      <point x="494" y="700" type="line"/>
      <point x="421" y="285" type="line"/>
      <point x="316" y="700" type="line"/>
      <point x="135" y="700" type="line"/>
      <point x="12" y="0" type="line"/>
      <point x="141" y="0" type="line"/>
      <point x="236" y="539" type="line"/>
      <point x="371" y="0" type="line"/>
      <point x="367" y="-23" type="line" smooth="yes"/>
      <point x="361" y="-59"/>
      <point x="337" y="-77"/>
      <point x="304" y="-77" type="curve" smooth="yes"/>
      <point x="269" y="-77"/>
      <point x="243" y="-74"/>
    </contour>
  </outline>
</glyph>
<glyph name="OE" format="2">
  <advance width="600"/>
  <unicode hex="0152"/>
  <outline>
    <contour>
      <point x="20" y="211" type="curve" smooth="yes"/>
      <point x="20" y="44"/>
      <point x="88" y="-12"/>
      <point x="161" y="-12" type="curve" smooth="yes"/>
      <point x="213" y="-12"/>
      <point x="253" y="13"/>
      <point x="285" y="63" type="curve"/>
      <point x="274" y="0" type="line"/>
      <point x="547" y="0" type="line"/>
      <point x="569" y="124" type="line"/>
      <point x="404" y="124" type="line"/>
      <point x="434" y="294" type="line"/>
      <point x="533" y="294" type="line"/>
      <point x="554" y="417" type="line"/>
      <point x="455" y="417" type="line"/>
      <point x="483" y="576" type="line"/>
      <point x="635" y="576" type="line"/>
      <point x="657" y="700" type="line"/>
      <point x="397" y="700" type="line"/>
      <point x="382" y="612" type="line"/>
      <point x="367" y="670"/>
      <point x="333" y="712"/>
      <point x="268" y="712" type="curve" smooth="yes"/>
      <point x="70" y="712"/>
      <point x="20" y="351"/>
    </contour>
    <contour>
      <point x="335" y="481" type="curve" smooth="yes"/>
      <point x="335" y="402"/>
      <point x="305" y="111"/>
      <point x="206" y="111" type="curve" smooth="yes"/>
      <point x="176" y="111"/>
      <point x="150" y="134"/>
      <point x="150" y="222" type="curve" smooth="yes"/>
      <point x="150" y="307"/>
      <point x="182" y="589"/>
      <point x="281" y="589" type="curve" smooth="yes"/>
      <point x="311" y="589"/>
      <point x="335" y="567"/>
    </contour>
  </outline>
</glyph>
<glyph name="oe" format="2">
  <advance width="600"/>
  <unicode hex="0153"/>
  <outline>
    <contour>
      <point x="461" y="512" type="curve" smooth="yes"/>
      <point x="312" y="512"/>
      <point x="263" y="268"/>
      <point x="263" y="153" type="curve" smooth="yes"/>
      <point x="263" y="42"/>
      <point x="310" y="-12"/>
      <point x="399" y="-12" type="curve" smooth="yes"/>
      <point x="455" y="-12"/>
      <point x="523" y="20"/>
      <point x="564" y="136" type="curve"/>
      <point x="449" y="165" type="line"/>
      <point x="434" y="112"/>
      <point x="421" y="98"/>
      <point x="398" y="98" type="curve" smooth="yes"/>
      <point x="377" y="98"/>
      <point x="357" y="109"/>
      <point x="357" y="168" type="curve" smooth="yes"/>
      <point x="357" y="214"/>
      <point x="378" y="400"/>
      <point x="445" y="400" type="curve" smooth="yes"/>
      <point x="465" y="400"/>
      <point x="482" y="389"/>
      <point x="482" y="338" type="curve" smooth="yes"/>
      <point x="482" y="317"/>
      <point x="479" y="289"/>
      <point x="472" y="252" type="curve"/>
      <point x="544" y="308" type="line"/>
      <point x="298" y="308" type="line"/>
      <point x="280" y="205" type="line"/>
      <point x="579" y="205" type="line"/>
      <point x="585" y="237" type="line" smooth="yes"/>
      <point x="591" y="271"/>
      <point x="594" y="292"/>
      <point x="594" y="335" type="curve" smooth="yes"/>
      <point x="594" y="461"/>
      <point x="537" y="512"/>
    </contour>
    <contour>
      <point x="248" y="337" type="curve" smooth="yes"/>
      <point x="248" y="290"/>
      <point x="227" y="98"/>
      <point x="162" y="98" type="curve" smooth="yes"/>
      <point x="140" y="98"/>
      <point x="125" y="111"/>
      <point x="125" y="161" type="curve" smooth="yes"/>
      <point x="125" y="211"/>
      <point x="145" y="400"/>
      <point x="211" y="400" type="curve" smooth="yes"/>
      <point x="233" y="400"/>
      <point x="248" y="388"/>
    </contour>
    <contour>
      <point x="219" y="512" type="curve" smooth="yes"/>
      <point x="51" y="512"/>
      <point x="7" y="288"/>
      <point x="7" y="168" type="curve" smooth="yes"/>
      <point x="7" y="30"/>
      <point x="75" y="-12"/>
      <point x="149" y="-12" type="curve" smooth="yes"/>
      <point x="308" y="-12"/>
      <point x="350" y="224"/>
      <point x="350" y="337" type="curve" smooth="yes"/>
      <point x="350" y="459"/>
      <point x="296" y="512"/>
    </contour>
  </outline>
</glyph>
<glyph name="Tbar" format="2">
  <advance width="600"/>
  <unicode hex="0166"/>
  <outline>
    <contour>
      <point x="112" y="281" type="line"/>
      <point x="499" y="281" type="line"/>
      <point x="521" y="403" type="line"/>
      <point x="134" y="403" type="line"/>
    </contour>
    <contour>
      <point x="296" y="651" type="line"/>
      <point x="181" y="0" type="line"/>
      <point x="332" y="0" type="line"/>
      <point x="447" y="651" type="line"/>
    </contour>
    <contour>
      <point x="93" y="576" type="line"/>
      <point x="621" y="576" type="line"/>
      <point x="643" y="700" type="line"/>
      <point x="115" y="700" type="line"/>
    </contour>
  </outline>
</glyph>
<glyph name="tbar" format="2">
  <advance width="600"/>
  <unicode hex="0167"/>
  <outline>
    <contour>
      <point x="22" y="223" type="line"/>
      <point x="526" y="223" type="line"/>
      <point x="545" y="330" type="line"/>
      <point x="41" y="330" type="line"/>
    </contour>
    <component base="t"/>
  </outline>
</glyph>
<glyph name="Uogonek" format="2">
  <advance width="600"/>
  <unicode hex="0172"/>
  <outline>
    <contour>
      <point x="538" y="207" type="curve" smooth="yes"/>
      <point x="625" y="700" type="line"/>
      <point x="474" y="700" type="line"/>
      <point x="388" y="212" type="line" smooth="yes"/>
      <point x="378" y="156"/>
      <point x="352" y="117"/>
      <point x="288" y="117" type="curve" smooth="yes"/>
      <point x="231" y="117"/>
      <point x="198" y="150"/>
      <point x="198" y="201" type="curve" smooth="yes"/>
      <point x="198" y="208"/>
      <point x="199" y="216"/>
      <point x="200" y="224" type="curve" smooth="yes"/>
      <point x="284" y="700" type="line"/>
      <point x="133" y="700" type="line"/>
      <point x="53" y="247" type="line" smooth="yes"/>
      <point x="50" y="229"/>
      <point x="48" y="211"/>
      <point x="48" y="194" type="curve" smooth="yes"/>
      <point x="48" y="86"/>
      <point x="113" y="12"/>
      <point x="223" y="-7" type="curve"/>
      <point x="176" y="-35"/>
      <point x="134" y="-69"/>
      <point x="134" y="-123" type="curve" smooth="yes"/>
      <point x="134" y="-167"/>
      <point x="171" y="-203"/>
      <point x="258" y="-203" type="curve" smooth="yes"/>
      <point x="278" y="-203"/>
      <point x="309" y="-200"/>
      <point x="332" y="-190" type="curve"/>
      <point x="340" y="-108" type="line"/>
      <point x="321" y="-113"/>
      <point x="307" y="-114"/>
      <point x="291" y="-114" type="curve" smooth="yes"/>
      <point x="264" y="-114"/>
      <point x="249" y="-103"/>
      <point x="249" y="-87" type="curve" smooth="yes"/>
      <point x="249" y="-63"/>
      <point x="278" y="-30"/>
      <point x="345" y="-9" type="curve" smooth="yes"/>
      <point x="460" y="27"/>
      <point x="520" y="105"/>
    </contour>
  </outline>
</glyph>
<glyph name="Bhook" format="2">
  <advance width="600"/>
  <unicode hex="0181"/>
  <outline>
    <contour>
      <point x="244" y="700" type="line"/>
      <point x="121" y="0" type="line"/>
      <point x="263" y="0" type="line"/>
      <point x="386" y="700" type="line"/>
    </contour>
    <contour>
      <point x="354" y="0" type="line"/>
      <point x="501" y="0"/>
      <point x="579" y="95"/>
      <point x="579" y="214" type="curve" smooth="yes"/>
      <point x="579" y="291"/>
      <point x="539" y="341"/>
      <point x="492" y="361" type="curve"/>
      <point x="489" y="343" type="line"/>
      <point x="566" y="367"/>
      <point x="622" y="454"/>
      <point x="622" y="540" type="curve" smooth="yes"/>
      <point x="622" y="632"/>
      <point x="555" y="700"/>
      <point x="437" y="700" type="curve" smooth="yes"/>
      <point x="309" y="700" type="line"/>
      <point x="288" y="577" type="line"/>
      <point x="413" y="577" type="line" smooth="yes"/>
      <point x="455" y="577"/>
      <point x="478" y="552"/>
      <point x="478" y="511" type="curve" smooth="yes"/>
      <point x="478" y="459"/>
      <point x="448" y="420"/>
      <point x="399" y="420" type="curve" smooth="yes"/>
      <point x="259" y="420" type="line"/>
      <point x="237" y="298" type="line"/>
      <point x="370" y="298" type="line" smooth="yes"/>
      <point x="414" y="298"/>
      <point x="440" y="270"/>
      <point x="440" y="225" type="curve" smooth="yes"/>
      <point x="440" y="158"/>
      <point x="400" y="123"/>
      <point x="347" y="123" type="curve" smooth="yes"/>
      <point x="208" y="123" type="line"/>
      <point x="186" y="0" type="line"/>
    </contour>
    <contour>
      <point x="330" y="700" type="line"/>
      <point x="228" y="700" type="line" smooth="yes"/>
      <point x="92" y="700"/>
      <point x="37" y="595"/>
      <point x="37" y="483" type="curve" smooth="yes"/>
      <point x="37" y="457"/>
      <point x="40" y="437"/>
      <point x="45" y="424" type="curve"/>
      <point x="173" y="429" type="line"/>
      <point x="166" y="447"/>
      <point x="162" y="468"/>
      <point x="162" y="489" type="curve" smooth="yes"/>
      <point x="162" y="530"/>
      <point x="172" y="577"/>
      <point x="229" y="577" type="curve" smooth="yes"/>
      <point x="312" y="577" type="line"/>
    </contour>
  </outline>
</glyph>
<glyph name="Oopen" format="2">
  <advance width="600"/>
  <unicode hex="0186"/>
  <guideline x="569" y="350" angle="80" identifier="uaT0HmqW3S"/>
  <outline>
    <contour>
      <point x="256" y="-12" type="curve" smooth="yes"/>
      <point x="491" y="-12"/>
      <point x="575" y="258"/>
      <point x="575" y="440" type="curve" smooth="yes"/>
      <point x="575" y="620"/>
      <point x="484" y="712"/>
      <point x="341" y="712" type="curve" smooth="yes"/>
      <point x="207" y="712"/>
      <point x="120" y="617"/>
      <point x="73" y="497" type="curve"/>
      <point x="202" y="453" type="line"/>
      <point x="232" y="537"/>
      <point x="276" y="584"/>
      <point x="332" y="584" type="curve" smooth="yes"/>
      <point x="392" y="584"/>
      <point x="426" y="544"/>
      <point x="426" y="442" type="curve" smooth="yes"/>
      <point x="426" y="272"/>
      <point x="362" y="116"/>
      <point x="259" y="116" type="curve" smooth="yes"/>
      <point x="196" y="116"/>
      <point x="164" y="162"/>
      <point x="159" y="252" type="curve"/>
      <point x="27" y="216" type="line"/>
      <point x="40" y="64"/>
      <point x="125" y="-12"/>
    </contour>
  </outline>
</glyph>
<glyph name="Dhook" format="2">
  <advance width="600"/>
  <unicode hex="018A"/>
  <outline>
    <contour>
      <point x="330" y="700" type="line"/>
      <point x="228" y="700" type="line" smooth="yes"/>
      <point x="92" y="700"/>
      <point x="37" y="595"/>
      <point x="37" y="483" type="curve" smooth="yes"/>
      <point x="37" y="457"/>
      <point x="40" y="437"/>
      <point x="45" y="424" type="curve"/>
      <point x="173" y="429" type="line"/>
      <point x="166" y="447"/>
      <point x="162" y="468"/>
      <point x="162" y="489" type="curve" smooth="yes"/>
      <point x="162" y="530"/>
      <point x="172" y="577"/>
      <point x="229" y="577" type="curve" smooth="yes"/>
      <point x="312" y="577" type="line"/>
    </contour>
    <contour>
      <point x="121" y="0" type="line"/>
      <point x="261" y="0" type="line"/>
      <point x="384" y="700" type="line"/>
      <point x="244" y="700" type="line"/>
    </contour>
    <contour>
      <point x="196" y="123" type="line"/>
      <point x="174" y="0" type="line"/>
      <point x="322" y="0" type="line" smooth="yes"/>
      <point x="517" y="0"/>
      <point x="611" y="251"/>
      <point x="611" y="430" type="curve" smooth="yes"/>
      <point x="611" y="602"/>
      <point x="531" y="700"/>
      <point x="395" y="700" type="curve" smooth="yes"/>
      <point x="297" y="700" type="line"/>
      <point x="276" y="577" type="line"/>
      <point x="365" y="577" type="line" smooth="yes"/>
      <point x="424" y="577"/>
      <point x="467" y="530"/>
      <point x="467" y="424" type="curve" smooth="yes"/>
      <point x="467" y="329"/>
      <point x="433" y="123"/>
      <point x="306" y="123" type="curve" smooth="yes"/>
    </contour>
  </outline>
</glyph>
<glyph name="Ereversed" format="2">
  <advance width="600"/>
  <unicode hex="018E"/>
  <outline>
    <contour>
      <point x="597" y="700" type="line"/>
      <point x="447" y="700" type="line"/>
      <point x="324" y="0" type="line"/>
      <point x="474" y="0" type="line"/>
    </contour>
    <contour>
      <point x="514" y="576" type="line"/>
      <point x="536" y="700" type="line"/>
      <point x="146" y="700" type="line"/>
      <point x="124" y="576" type="line"/>
    </contour>
    <contour>
      <point x="455" y="294" type="line"/>
      <point x="476" y="417" type="line"/>
      <point x="207" y="417" type="line"/>
      <point x="186" y="294" type="line"/>
    </contour>
    <contour>
      <point x="409" y="0" type="line"/>
      <point x="431" y="124" type="line"/>
      <point x="31" y="124" type="line"/>
      <point x="9" y="0" type="line"/>
    </contour>
  </outline>
</glyph>
<glyph name="Schwa" format="2">
  <advance width="600"/>
  <unicode hex="018F"/>
  <outline>
    <contour>
      <point x="273" y="-12" type="curve" smooth="yes"/>
      <point x="505" y="-12"/>
      <point x="591" y="261"/>
      <point x="591" y="442" type="curve" smooth="yes"/>
      <point x="591" y="622"/>
      <point x="501" y="712"/>
      <point x="359" y="712" type="curve" smooth="yes"/>
      <point x="240" y="712"/>
      <point x="143" y="641"/>
      <point x="94" y="518" type="curve"/>
      <point x="229" y="478" type="line"/>
      <point x="260" y="555"/>
      <point x="306" y="584"/>
      <point x="353" y="584" type="curve" smooth="yes"/>
      <point x="408" y="584"/>
      <point x="444" y="546"/>
      <point x="444" y="445" type="curve" smooth="yes"/>
      <point x="444" y="342"/>
      <point x="412" y="116"/>
      <point x="281" y="116" type="curve" smooth="yes"/>
      <point x="224" y="116"/>
      <point x="190" y="157"/>
      <point x="190" y="248" type="curve" smooth="yes"/>
      <point x="190" y="267"/>
      <point x="192" y="288"/>
      <point x="195" y="312" type="curve"/>
      <point x="170" y="280" type="line"/>
      <point x="495" y="280" type="line"/>
      <point x="517" y="403" type="line"/>
      <point x="63" y="403" type="line"/>
      <point x="54" y="350" type="line" smooth="yes"/>
      <point x="49" y="318"/>
      <point x="46" y="288"/>
      <point x="46" y="259" type="curve" smooth="yes"/>
      <point x="46" y="96"/>
      <point x="131" y="-12"/>
    </contour>
  </outline>
</glyph>
<glyph name="Eopen" format="2">
  <advance width="600"/>
  <unicode hex="0190"/>
  <outline>
    <contour>
      <point x="566" y="210" type="curve"/>
      <point x="415" y="204" type="line"/>
      <point x="407" y="143"/>
      <point x="373" y="107"/>
      <point x="301" y="107" type="curve" smooth="yes"/>
      <point x="227" y="107"/>
      <point x="190" y="148"/>
      <point x="190" y="199" type="curve" smooth="yes"/>
      <point x="190" y="272"/>
      <point x="244" y="303"/>
      <point x="321" y="303" type="curve" smooth="yes"/>
      <point x="384" y="303" type="line"/>
      <point x="405" y="421" type="line"/>
      <point x="353" y="421" type="line" smooth="yes"/>
      <point x="298" y="421"/>
      <point x="259" y="454"/>
      <point x="259" y="502" type="curve" smooth="yes"/>
      <point x="259" y="559"/>
      <point x="305" y="594"/>
      <point x="364" y="594" type="curve" smooth="yes"/>
      <point x="435" y="594"/>
      <point x="461" y="556"/>
      <point x="461" y="508" type="curve" smooth="yes"/>
      <point x="461" y="500"/>
      <point x="460" y="492"/>
      <point x="459" y="484" type="curve"/>
      <point x="607" y="478" type="line"/>
      <point x="610" y="493"/>
      <point x="611" y="507"/>
      <point x="611" y="521" type="curve" smooth="yes"/>
      <point x="611" y="641"/>
      <point x="509" y="712"/>
      <point x="372" y="712" type="curve" smooth="yes"/>
      <point x="224" y="712"/>
      <point x="106" y="628"/>
      <point x="106" y="507" type="curve" smooth="yes"/>
      <point x="106" y="435"/>
      <point x="157" y="373"/>
      <point x="218" y="365" type="curve"/>
      <point x="221" y="381" type="line"/>
      <point x="115" y="369"/>
      <point x="36" y="298"/>
      <point x="36" y="192" type="curve" smooth="yes"/>
      <point x="36" y="77"/>
      <point x="134" y="-12"/>
      <point x="285" y="-12" type="curve" smooth="yes"/>
      <point x="428" y="-12"/>
      <point x="541" y="52"/>
    </contour>
  </outline>
</glyph>
<glyph name="fhook" format="2">
  <advance width="600"/>
  <unicode hex="0192"/>
  <outline>
    <contour>
      <point x="171" y="366" type="line"/>
      <point x="533" y="366" type="line"/>
      <point x="551" y="470" type="line"/>
      <point x="189" y="470" type="line"/>
    </contour>
    <contour>
      <point x="298" y="149" type="curve" smooth="yes"/>
      <point x="494" y="542" type="line" smooth="yes"/>
      <point x="514" y="583"/>
      <point x="536" y="600"/>
      <point x="576" y="600" type="curve" smooth="yes"/>
      <point x="585" y="600"/>
      <point x="601" y="599"/>
      <point x="617" y="595" type="curve"/>
      <point x="636" y="705" type="line"/>
      <point x="614" y="711"/>
      <point x="591" y="712"/>
      <point x="575" y="712" type="curve" smooth="yes"/>
      <point x="466" y="712"/>
      <point x="406" y="661"/>
      <point x="353" y="554" type="curve" smooth="yes"/>
      <point x="156" y="158" type="line" smooth="yes"/>
      <point x="136" y="118"/>
      <point x="119" y="100"/>
      <point x="76" y="100" type="curve" smooth="yes"/>
      <point x="62" y="100"/>
      <point x="51" y="101"/>
      <point x="33" y="106" type="curve"/>
      <point x="13" y="-5" type="line"/>
      <point x="31" y="-9"/>
      <point x="51" y="-12"/>
      <point x="74" y="-12" type="curve" smooth="yes"/>
      <point x="181" y="-12"/>
      <point x="243" y="38"/>
    </contour>
  </outline>
</glyph>
<glyph name="Khook" format="2">
  <advance width="600"/>
  <unicode hex="0198"/>
  <outline>
    <contour>
      <point x="127" y="700" type="line"/>
      <point x="4" y="0" type="line"/>
      <point x="147" y="0" type="line"/>
      <point x="271" y="700" type="line"/>
    </contour>
    <contour>
      <point x="252" y="346" type="line"/>
      <point x="393" y="0" type="line"/>
      <point x="541" y="0" type="line"/>
      <point x="358" y="449" type="line"/>
    </contour>
    <contour>
      <point x="536" y="548" type="line"/>
      <point x="557" y="569"/>
      <point x="574" y="581"/>
      <point x="593" y="581" type="curve" smooth="yes"/>
      <point x="608" y="581"/>
      <point x="621" y="576"/>
      <point x="635" y="566" type="curve"/>
      <point x="662" y="693" type="line"/>
      <point x="644" y="705"/>
      <point x="623" y="712"/>
      <point x="594" y="712" type="curve" smooth="yes"/>
      <point x="541" y="712"/>
      <point x="500" y="696"/>
      <point x="457" y="651" type="curve" smooth="yes"/>
      <point x="135" y="321" type="line"/>
      <point x="118" y="146" type="line"/>
      <point x="310" y="331" type="line"/>
      <point x="343" y="355" type="line"/>
    </contour>
  </outline>
</glyph>
<glyph name="khook" format="2">
  <advance width="600"/>
  <unicode hex="0199"/>
  <outline>
    <contour>
      <point x="152" y="256" type="line"/>
      <point x="134" y="100" type="line"/>
      <point x="320" y="255" type="line"/>
      <point x="362" y="277" type="line"/>
      <point x="632" y="500" type="line"/>
      <point x="445" y="500" type="line"/>
    </contour>
    <contour>
      <point x="257" y="260" type="line"/>
      <point x="404" y="0" type="line"/>
      <point x="552" y="0" type="line"/>
      <point x="357" y="345" type="line"/>
    </contour>
    <contour>
      <point x="273" y="546" type="line"/>
      <point x="279" y="578"/>
      <point x="304" y="596"/>
      <point x="335" y="596" type="curve" smooth="yes"/>
      <point x="353" y="596"/>
      <point x="367" y="592"/>
      <point x="386" y="584" type="curve"/>
      <point x="407" y="689" type="line"/>
      <point x="387" y="699"/>
      <point x="355" y="707"/>
      <point x="320" y="707" type="curve" smooth="yes"/>
      <point x="233" y="707"/>
      <point x="154" y="664"/>
      <point x="135" y="554" type="curve" smooth="yes"/>
      <point x="37" y="0" type="line"/>
      <point x="177" y="0" type="line"/>
    </contour>
  </outline>
</glyph>
<glyph name="Nhookleft" format="2">
  <advance width="600"/>
  <unicode hex="019D"/>
  <outline>
    <contour>
      <point x="-107" y="-72" type="curve"/>
      <point x="-126" y="-182" type="line"/>
      <point x="-103" y="-188"/>
      <point x="-71" y="-192"/>
      <point x="-43" y="-192" type="curve" smooth="yes"/>
      <point x="51" y="-192"/>
      <point x="115" y="-146"/>
      <point x="132" y="-53" type="curve" smooth="yes"/>
      <point x="239" y="557" type="line"/>
      <point x="331" y="0" type="line"/>
      <point x="500" y="0" type="line"/>
      <point x="623" y="700" type="line"/>
      <point x="494" y="700" type="line"/>
      <point x="413" y="237" type="line"/>
      <point x="336" y="700" type="line"/>
      <point x="135" y="700" type="line"/>
      <point x="6" y="-35" type="line" smooth="yes"/>
      <point x="0" y="-67"/>
      <point x="-21" y="-77"/>
      <point x="-48" y="-77" type="curve" smooth="yes"/>
      <point x="-73" y="-77"/>
      <point x="-89" y="-75"/>
    </contour>
  </outline>
</glyph>
<glyph name="Uhorn" format="2">
  <advance width="600"/>
  <unicode hex="01AF"/>
  <outline>
    <contour>
      <point x="517" y="197" type="curve" smooth="yes"/>
      <point x="605" y="700" type="line"/>
      <point x="454" y="700" type="line"/>
      <point x="366" y="202" type="line" smooth="yes"/>
      <point x="358" y="156"/>
      <point x="338" y="117"/>
      <point x="280" y="117" type="curve" smooth="yes"/>
      <point x="229" y="117"/>
      <point x="197" y="150"/>
      <point x="197" y="195" type="curve" smooth="yes"/>
      <point x="197" y="201"/>
      <point x="198" y="208"/>
      <point x="199" y="214" type="curve" smooth="yes"/>
      <point x="284" y="700" type="line"/>
      <point x="133" y="700" type="line"/>
      <point x="52" y="237" type="line" smooth="yes"/>
      <point x="49" y="220"/>
      <point x="48" y="204"/>
      <point x="48" y="189" type="curve" smooth="yes"/>
      <point x="48" y="69"/>
      <point x="134" y="-12"/>
      <point x="275" y="-12" type="curve" smooth="yes"/>
      <point x="418" y="-12"/>
      <point x="498" y="91"/>
    </contour>
    <component base="horncmb.uc" xOffset="212"/>
  </outline>
</glyph>
<glyph name="Yhook" format="2">
  <advance width="600"/>
  <unicode hex="01B3"/>
  <outline>
    <contour>
      <point x="555" y="534" type="line"/>
      <point x="577" y="566"/>
      <point x="599" y="581"/>
      <point x="623" y="581" type="curve" smooth="yes"/>
      <point x="637" y="581"/>
      <point x="647" y="577"/>
      <point x="659" y="572" type="curve"/>
      <point x="686" y="698" type="line"/>
      <point x="671" y="706"/>
      <point x="640" y="712"/>
      <point x="616" y="712" type="curve" smooth="yes"/>
      <point x="541" y="712"/>
      <point x="499" y="678"/>
      <point x="464" y="628" type="curve" smooth="yes"/>
      <point x="250" y="326" type="line"/>
      <point x="354" y="326" type="line"/>
      <point x="228" y="700" type="line"/>
      <point x="84" y="700" type="line"/>
      <point x="229" y="281" type="line"/>
      <point x="180" y="0" type="line"/>
      <point x="331" y="0" type="line"/>
      <point x="380" y="281" type="line"/>
    </contour>
  </outline>
</glyph>
<glyph name="yhook" format="2">
  <advance width="600"/>
  <unicode hex="01B4"/>
  <outline>
    <contour>
      <point x="193" y="-61" type="line"/>
      <point x="285" y="116" type="line"/>
      <point x="206" y="500" type="line"/>
      <point x="65" y="500" type="line"/>
    </contour>
    <contour>
      <point x="535" y="346" type="line"/>
      <point x="555" y="380"/>
      <point x="578" y="396"/>
      <point x="604" y="396" type="curve" smooth="yes"/>
      <point x="612" y="396"/>
      <point x="623" y="394"/>
      <point x="632" y="390" type="curve"/>
      <point x="654" y="498" type="line"/>
      <point x="630" y="508"/>
      <point x="604" y="512"/>
      <point x="575" y="512" type="curve" smooth="yes"/>
      <point x="514" y="512"/>
      <point x="458" y="481"/>
      <point x="420" y="412" type="curve" smooth="yes"/>
      <point x="224" y="58" type="line"/>
      <point x="204" y="32" type="line"/>
      <point x="74" y="-180" type="line"/>
      <point x="231" y="-180" type="line"/>
    </contour>
  </outline>
</glyph>
<glyph name="Icaron" format="2">
  <advance width="600"/>
  <unicode hex="01CF"/>
  <outline>
    <contour>
      <point x="466" y="760" type="line"/>
      <point x="603" y="892" type="line"/>
      <point x="471" y="892" type="line"/>
      <point x="339" y="798" type="line"/>
      <point x="445" y="798" type="line"/>
      <point x="347" y="892" type="line"/>
      <point x="223" y="892" type="line"/>
      <point x="314" y="760" type="line"/>
    </contour>
    <component base="I"/>
  </outline>
</glyph>
<glyph name="icaron" format="2">
  <advance width="600"/>
  <unicode hex="01D0"/>
  <outline>
    <contour>
      <point x="448" y="564" type="line"/>
      <point x="577" y="700" type="line"/>
      <point x="449" y="700" type="line"/>
      <point x="314" y="584" type="line"/>
      <point x="434" y="584" type="line"/>
      <point x="339" y="700" type="line"/>
      <point x="223" y="700" type="line"/>
      <point x="304" y="564" type="line"/>
    </contour>
    <component base="dotlessi"/>
  </outline>
</glyph>
<glyph name="Oogonek" format="2">
  <advance width="600"/>
  <unicode hex="01EA"/>
  <outline>
    <contour>
      <point x="594" y="440" type="curve" smooth="yes"/>
      <point x="594" y="620"/>
      <point x="504" y="712"/>
      <point x="361" y="712" type="curve" smooth="yes"/>
      <point x="126" y="712"/>
      <point x="42" y="442"/>
      <point x="42" y="260" type="curve" smooth="yes"/>
      <point x="42" y="102"/>
      <point x="112" y="12"/>
      <point x="225" y="-8" type="curve"/>
      <point x="179" y="-36"/>
      <point x="138" y="-69"/>
      <point x="138" y="-123" type="curve" smooth="yes"/>
      <point x="138" y="-167"/>
      <point x="175" y="-203"/>
      <point x="262" y="-203" type="curve" smooth="yes"/>
      <point x="282" y="-203"/>
      <point x="313" y="-200"/>
      <point x="336" y="-190" type="curve"/>
      <point x="344" y="-108" type="line"/>
      <point x="325" y="-113"/>
      <point x="311" y="-114"/>
      <point x="295" y="-114" type="curve" smooth="yes"/>
      <point x="268" y="-114"/>
      <point x="253" y="-103"/>
      <point x="253" y="-87" type="curve" smooth="yes"/>
      <point x="253" y="-62"/>
      <point x="280" y="-30"/>
      <point x="353" y="-5" type="curve" smooth="yes"/>
      <point x="529" y="55"/>
      <point x="594" y="278"/>
    </contour>
    <contour>
      <point x="281" y="116" type="curve" smooth="yes"/>
      <point x="221" y="116"/>
      <point x="191" y="156"/>
      <point x="191" y="258" type="curve" smooth="yes"/>
      <point x="191" y="428"/>
      <point x="255" y="584"/>
      <point x="355" y="584" type="curve" smooth="yes"/>
      <point x="415" y="584"/>
      <point x="445" y="544"/>
      <point x="445" y="442" type="curve" smooth="yes"/>
      <point x="445" y="272"/>
      <point x="381" y="116"/>
    </contour>
  </outline>
</glyph>
<glyph name="oogonek" format="2">
  <advance width="600"/>
  <unicode hex="01EB"/>
  <outline>
    <contour>
      <point x="42" y="213" type="curve" smooth="yes"/>
      <point x="42" y="95"/>
      <point x="113" y="11"/>
      <point x="220" y="-8" type="curve"/>
      <point x="173" y="-36"/>
      <point x="132" y="-69"/>
      <point x="132" y="-123" type="curve" smooth="yes"/>
      <point x="132" y="-167"/>
      <point x="169" y="-203"/>
      <point x="256" y="-203" type="curve" smooth="yes"/>
      <point x="276" y="-203"/>
      <point x="307" y="-200"/>
      <point x="330" y="-190" type="curve"/>
      <point x="338" y="-108" type="line"/>
      <point x="319" y="-113"/>
      <point x="305" y="-114"/>
      <point x="289" y="-114" type="curve" smooth="yes"/>
      <point x="262" y="-114"/>
      <point x="247" y="-103"/>
      <point x="247" y="-87" type="curve" smooth="yes"/>
      <point x="247" y="-62"/>
      <point x="276" y="-28"/>
      <point x="348" y="-4" type="curve" smooth="yes"/>
      <point x="482" y="41"/>
      <point x="558" y="154"/>
      <point x="558" y="287" type="curve" smooth="yes"/>
      <point x="558" y="422"/>
      <point x="466" y="512"/>
      <point x="333" y="512" type="curve" smooth="yes"/>
      <point x="152" y="512"/>
      <point x="42" y="368"/>
    </contour>
    <contour>
      <point x="322" y="396" type="curve" smooth="yes"/>
      <point x="383" y="396"/>
      <point x="417" y="353"/>
      <point x="417" y="280" type="curve" smooth="yes"/>
      <point x="417" y="196"/>
      <point x="374" y="104"/>
      <point x="278" y="104" type="curve" smooth="yes"/>
      <point x="217" y="104"/>
      <point x="183" y="147"/>
      <point x="183" y="220" type="curve" smooth="yes"/>
      <point x="183" y="304"/>
      <point x="226" y="396"/>
    </contour>
  </outline>
</glyph>
<glyph name="dotlessj" format="2">
  <advance width="600"/>
  <unicode hex="0237"/>
  <outline>
    <contour>
      <point x="395" y="-25" type="curve" smooth="yes"/>
      <point x="487" y="500" type="line"/>
      <point x="347" y="500" type="line"/>
      <point x="260" y="3" type="line" smooth="yes"/>
      <point x="251" y="-48"/>
      <point x="219" y="-81"/>
      <point x="148" y="-81" type="curve" smooth="yes"/>
      <point x="100" y="-81"/>
      <point x="60" y="-76"/>
      <point x="18" y="-67" type="curve"/>
      <point x="0" y="-172" type="line"/>
      <point x="34" y="-181"/>
      <point x="96" y="-190"/>
      <point x="162" y="-190" type="curve" smooth="yes"/>
      <point x="299" y="-190"/>
      <point x="378" y="-125"/>
    </contour>
    <contour>
      <point x="113" y="393" type="line"/>
      <point x="397" y="393" type="line"/>
      <point x="416" y="500" type="line"/>
      <point x="132" y="500" type="line"/>
    </contour>
  </outline>
</glyph>
<glyph name="oopen" format="2">
  <advance width="600"/>
  <unicode hex="0254"/>
  <outline>
    <contour>
      <point x="60" y="360" type="curve"/>
      <point x="188" y="320" type="line"/>
      <point x="211" y="377"/>
      <point x="253" y="398"/>
      <point x="298" y="398" type="curve" smooth="yes"/>
      <point x="357" y="398"/>
      <point x="398" y="364"/>
      <point x="398" y="287" type="curve" smooth="yes"/>
      <point x="398" y="202"/>
      <point x="358" y="102"/>
      <point x="260" y="102" type="curve" smooth="yes"/>
      <point x="208" y="102"/>
      <point x="170" y="136"/>
      <point x="163" y="190" type="curve"/>
      <point x="30" y="161" type="line"/>
      <point x="43" y="60"/>
      <point x="130" y="-12"/>
      <point x="254" y="-12" type="curve" smooth="yes"/>
      <point x="439" y="-12"/>
      <point x="539" y="134"/>
      <point x="539" y="293" type="curve" smooth="yes"/>
      <point x="539" y="429"/>
      <point x="449" y="512"/>
      <point x="313" y="512" type="curve" smooth="yes"/>
      <point x="196" y="512"/>
      <point x="101" y="453"/>
    </contour>
  </outline>
</glyph>
<glyph name="eopen" format="2">
  <advance width="600"/>
  <unicode hex="025B"/>
  <outline>
    <contour>
      <point x="536" y="158" type="curve"/>
      <point x="396" y="152" type="line"/>
      <point x="385" y="115"/>
      <point x="360" y="88"/>
      <point x="288" y="88" type="curve" smooth="yes"/>
      <point x="217" y="88"/>
      <point x="183" y="116"/>
      <point x="183" y="148" type="curve" smooth="yes"/>
      <point x="183" y="183"/>
      <point x="216" y="208"/>
      <point x="286" y="208" type="curve" smooth="yes"/>
      <point x="348" y="208" type="line"/>
      <point x="365" y="308" type="line"/>
      <point x="316" y="308" type="line" smooth="yes"/>
      <point x="266" y="308"/>
      <point x="232" y="320"/>
      <point x="232" y="353" type="curve" smooth="yes"/>
      <point x="232" y="380"/>
      <point x="262" y="412"/>
      <point x="330" y="412" type="curve" smooth="yes"/>
      <point x="397" y="412"/>
      <point x="426" y="390"/>
      <point x="426" y="357" type="curve" smooth="yes"/>
      <point x="426" y="353"/>
      <point x="426" y="347"/>
      <point x="425" y="342" type="curve"/>
      <point x="564" y="335" type="line"/>
      <point x="566" y="344"/>
      <point x="567" y="356"/>
      <point x="567" y="368" type="curve" smooth="yes"/>
      <point x="567" y="460"/>
      <point x="478" y="512"/>
      <point x="336" y="512" type="curve" smooth="yes"/>
      <point x="187" y="512"/>
      <point x="91" y="439"/>
      <point x="91" y="356" type="curve" smooth="yes"/>
      <point x="91" y="301"/>
      <point x="138" y="272"/>
      <point x="168" y="260" type="curve"/>
      <point x="169" y="265" type="line"/>
      <point x="106" y="254"/>
      <point x="39" y="213"/>
      <point x="39" y="136" type="curve" smooth="yes"/>
      <point x="39" y="49"/>
      <point x="129" y="-12"/>
      <point x="280" y="-12" type="curve" smooth="yes"/>
      <point x="427" y="-12"/>
      <point x="517" y="40"/>
    </contour>
  </outline>
</glyph>
<glyph name="istroke" format="2">
  <advance width="600"/>
  <unicode hex="0268"/>
  <outline>
    <contour>
      <point x="557" y="212" type="line"/>
      <point x="574" y="306" type="line"/>
      <point x="81" y="306" type="line"/>
      <point x="64" y="212" type="line"/>
    </contour>
    <component base="i"/>
  </outline>
</glyph>
<glyph name="nretroflex" format="2">
  <advance width="600"/>
  <unicode hex="0273"/>
  <outline>
    <contour>
      <point x="115" y="500" type="line"/>
      <point x="27" y="0" type="line"/>
      <point x="167" y="0" type="line"/>
      <point x="219" y="292" type="line" smooth="yes"/>
      <point x="230" y="352"/>
      <point x="274" y="391"/>
      <point x="331" y="391" type="curve" smooth="yes"/>
      <point x="383" y="391"/>
      <point x="410" y="357"/>
      <point x="410" y="313" type="curve" smooth="yes"/>
      <point x="410" y="307"/>
      <point x="409" y="301"/>
      <point x="408" y="294" type="curve" smooth="yes"/>
      <point x="347" y="-51" type="line" smooth="yes"/>
      <point x="345" y="-62"/>
      <point x="344" y="-72"/>
      <point x="344" y="-82" type="curve" smooth="yes"/>
      <point x="344" y="-155"/>
      <point x="398" y="-190"/>
      <point x="468" y="-190" type="curve" smooth="yes"/>
      <point x="490" y="-190"/>
      <point x="515" y="-187"/>
      <point x="529" y="-183" type="curve"/>
      <point x="547" y="-79" type="line"/>
      <point x="538" y="-80"/>
      <point x="530" y="-81"/>
      <point x="522" y="-81" type="curve" smooth="yes"/>
      <point x="499" y="-81"/>
      <point x="488" y="-72"/>
      <point x="488" y="-52" type="curve" smooth="yes"/>
      <point x="488" y="-48"/>
      <point x="488" y="-44"/>
      <point x="489" y="-40" type="curve" smooth="yes"/>
      <point x="553" y="321" type="line" smooth="yes"/>
      <point x="556" y="336"/>
      <point x="557" y="350"/>
      <point x="557" y="363" type="curve" smooth="yes"/>
      <point x="557" y="458"/>
      <point x="494" y="512"/>
      <point x="400" y="512" type="curve" smooth="yes"/>
      <point x="334" y="512"/>
      <point x="282" y="482"/>
      <point x="244" y="435" type="curve"/>
      <point x="255" y="500" type="line"/>
    </contour>
  </outline>
</glyph>
<glyph name="vturned" format="2">
  <advance width="600"/>
  <unicode hex="028C"/>
  <outline>
    <contour>
      <point x="421" y="500" type="line"/>
      <point x="266" y="500" type="line"/>
      <point x="-23" y="0" type="line"/>
      <point x="132" y="0" type="line"/>
      <point x="387" y="461" type="line"/>
      <point x="301" y="461" type="line"/>
      <point x="396" y="0" type="line"/>
      <point x="535" y="0" type="line"/>
    </contour>
  </outline>
</glyph>
<glyph name="ringhalfleftmod" format="2">
  <advance width="600"/>
  <unicode hex="02BF"/>
  <outline>
    <contour>
      <point x="443" y="601" type="curve" smooth="yes"/>
      <point x="462" y="601" type="line"/>
      <point x="479" y="700" type="line"/>
      <point x="455" y="700" type="line" smooth="yes"/>
      <point x="315" y="700"/>
      <point x="247" y="609"/>
      <point x="247" y="509" type="curve" smooth="yes"/>
      <point x="247" y="429"/>
      <point x="293" y="370"/>
      <point x="407" y="370" type="curve" smooth="yes"/>
      <point x="421" y="370" type="line"/>
      <point x="438" y="469" type="line"/>
      <point x="423" y="469" type="line"/>
      <point x="382" y="469"/>
      <point x="360" y="492"/>
      <point x="360" y="527" type="curve" smooth="yes"/>
      <point x="360" y="572"/>
      <point x="395" y="601"/>
    </contour>
  </outline>
</glyph>
<glyph name="gravecmb" format="2">
  <advance width="600"/>
  <unicode hex="0300"/>
  <outline>
    <contour>
      <point x="404" y="700" type="line"/>
      <point x="447" y="564" type="line"/>
      <point x="342" y="564" type="line"/>
      <point x="268" y="700" type="line"/>
    </contour>
  </outline>
</glyph>
<glyph name="acutecmb" format="2">
  <advance width="600"/>
  <unicode hex="0301"/>
  <outline>
    <contour>
      <point x="347" y="700" type="line"/>
      <point x="495" y="700" type="line"/>
      <point x="379" y="564" type="line"/>
      <point x="261" y="564" type="line"/>
    </contour>
  </outline>
</glyph>
<glyph name="circumflexcmb" format="2">
  <advance width="600"/>
  <unicode hex="0302"/>
  <outline>
    <contour>
      <point x="307" y="700" type="line"/>
      <point x="178" y="564" type="line"/>
      <point x="306" y="564" type="line"/>
      <point x="441" y="680" type="line"/>
      <point x="321" y="680" type="line"/>
      <point x="416" y="564" type="line"/>
      <point x="532" y="564" type="line"/>
      <point x="451" y="700" type="line"/>
    </contour>
  </outline>
</glyph>
<glyph name="tildecmb" format="2">
  <advance width="600"/>
  <unicode hex="0303"/>
  <outline>
    <contour>
      <point x="306" y="696" type="curve" smooth="yes"/>
      <point x="259" y="696"/>
      <point x="210" y="649"/>
      <point x="195" y="564" type="curve"/>
      <point x="288" y="564" type="line"/>
      <point x="293" y="584"/>
      <point x="303" y="598"/>
      <point x="321" y="598" type="curve" smooth="yes"/>
      <point x="350" y="598"/>
      <point x="389" y="567"/>
      <point x="429" y="567" type="curve" smooth="yes"/>
      <point x="476" y="567"/>
      <point x="525" y="614"/>
      <point x="539" y="699" type="curve"/>
      <point x="445" y="699" type="line"/>
      <point x="441" y="678"/>
      <point x="431" y="665"/>
      <point x="413" y="665" type="curve" smooth="yes"/>
      <point x="387" y="665"/>
      <point x="349" y="696"/>
    </contour>
  </outline>
</glyph>
<glyph name="macroncmb" format="2">
  <advance width="600"/>
  <unicode hex="0304"/>
  <outline>
    <contour>
      <point x="204" y="583" type="line"/>
      <point x="514" y="583" type="line"/>
      <point x="533" y="693" type="line"/>
      <point x="223" y="693" type="line"/>
    </contour>
  </outline>
</glyph>
<glyph name="brevecmb" format="2">
  <advance width="600"/>
  <unicode hex="0306"/>
  <outline>
    <contour>
      <point x="222" y="700" type="line"/>
      <point x="211" y="637"/>
      <point x="258" y="558"/>
      <point x="368" y="558" type="curve" smooth="yes"/>
      <point x="474" y="558"/>
      <point x="531" y="629"/>
      <point x="542" y="700" type="curve"/>
      <point x="432" y="700" type="line"/>
      <point x="427" y="670"/>
      <point x="409" y="648"/>
      <point x="377" y="648" type="curve" smooth="yes"/>
      <point x="345" y="648"/>
      <point x="327" y="669"/>
      <point x="332" y="700" type="curve"/>
    </contour>
  </outline>
</glyph>
<glyph name="dotaccentcmb" format="2">
  <advance width="600"/>
  <unicode hex="0307"/>
  <outline>
    <contour>
      <point x="300" y="700" type="line"/>
      <point x="276" y="560" type="line"/>
      <point x="436" y="560" type="line"/>
      <point x="460" y="700" type="line"/>
    </contour>
  </outline>
</glyph>
<glyph name="dieresiscmb" format="2">
  <advance width="600"/>
  <unicode hex="0308"/>
  <outline>
    <contour>
      <point x="208" y="700" type="line"/>
      <point x="184" y="560" type="line"/>
      <point x="329" y="560" type="line"/>
      <point x="353" y="700" type="line"/>
    </contour>
    <contour>
      <point x="405" y="700" type="line"/>
      <point x="381" y="560" type="line"/>
      <point x="526" y="560" type="line"/>
      <point x="550" y="700" type="line"/>
    </contour>
  </outline>
</glyph>
<glyph name="hookabovecmb" format="2">
  <advance width="600"/>
  <unicode hex="0309"/>
  <outline>
    <contour>
      <point x="475" y="683" type="curve" smooth="yes"/>
      <point x="475" y="736"/>
      <point x="440" y="779"/>
      <point x="377" y="779" type="curve" smooth="yes"/>
      <point x="329" y="779"/>
      <point x="285" y="754"/>
      <point x="257" y="715" type="curve"/>
      <point x="308" y="667" type="line"/>
      <point x="319" y="683"/>
      <point x="335" y="698"/>
      <point x="358" y="698" type="curve" smooth="yes"/>
      <point x="375" y="698"/>
      <point x="389" y="691"/>
      <point x="389" y="672" type="curve" smooth="yes"/>
      <point x="389" y="647"/>
      <point x="364" y="626"/>
      <point x="310" y="615" type="curve"/>
      <point x="351" y="554" type="line"/>
      <point x="413" y="566"/>
      <point x="475" y="610"/>
    </contour>
  </outline>
</glyph>
<glyph name="ringabovecmb" format="2">
  <advance width="600"/>
  <unicode hex="030A"/>
  <outline>
    <contour>
      <point x="409" y="673" type="curve" smooth="yes"/>
      <point x="409" y="651"/>
      <point x="394" y="630"/>
      <point x="369" y="630" type="curve" smooth="yes"/>
      <point x="351" y="630"/>
      <point x="339" y="640"/>
      <point x="339" y="659" type="curve" smooth="yes"/>
      <point x="339" y="681"/>
      <point x="354" y="702"/>
      <point x="379" y="702" type="curve" smooth="yes"/>
      <point x="397" y="702"/>
      <point x="409" y="692"/>
    </contour>
    <contour>
      <point x="263" y="652" type="curve" smooth="yes"/>
      <point x="263" y="598"/>
      <point x="301" y="558"/>
      <point x="361" y="558" type="curve" smooth="yes"/>
      <point x="427" y="558"/>
      <point x="485" y="607"/>
      <point x="485" y="680" type="curve" smooth="yes"/>
      <point x="485" y="734"/>
      <point x="447" y="774"/>
      <point x="387" y="774" type="curve" smooth="yes"/>
      <point x="321" y="774"/>
      <point x="263" y="725"/>
    </contour>
  </outline>
</glyph>
<glyph name="hungarumlautcmb" format="2">
  <advance width="600"/>
  <unicode hex="030B"/>
  <outline>
    <contour>
      <point x="255" y="700" type="line"/>
      <point x="174" y="564" type="line"/>
      <point x="298" y="564" type="line"/>
      <point x="390" y="700" type="line"/>
    </contour>
    <contour>
      <point x="419" y="700" type="line"/>
      <point x="343" y="564" type="line"/>
      <point x="459" y="564" type="line"/>
      <point x="562" y="700" type="line"/>
    </contour>
  </outline>
</glyph>
<glyph name="caroncmb" format="2">
  <advance width="600"/>
  <unicode hex="030C"/>
  <outline>
    <contour>
      <point x="428" y="564" type="line"/>
      <point x="557" y="700" type="line"/>
      <point x="429" y="700" type="line"/>
      <point x="294" y="584" type="line"/>
      <point x="414" y="584" type="line"/>
      <point x="319" y="700" type="line"/>
      <point x="203" y="700" type="line"/>
      <point x="284" y="564" type="line"/>
    </contour>
  </outline>
</glyph>
<glyph name="commaturnedabovecmb" format="2">
  <advance width="600"/>
  <unicode hex="0312"/>
  <outline>
    <contour>
      <point x="436" y="560" type="line"/>
      <point x="460" y="700" type="line"/>
      <point x="375" y="700" type="line"/>
      <point x="377" y="708" type="line" smooth="yes"/>
      <point x="387" y="747"/>
      <point x="399" y="772"/>
      <point x="481" y="772" type="curve"/>
      <point x="492" y="836" type="line"/>
      <point x="364" y="836"/>
      <point x="314" y="778"/>
      <point x="300" y="699" type="curve" smooth="yes"/>
      <point x="276" y="560" type="line"/>
    </contour>
  </outline>
</glyph>
<glyph name="horncmb" format="2">
  <advance width="600"/>
  <unicode hex="031B"/>
  <outline>
    <contour>
      <point x="376" y="619" type="line"/>
      <point x="378" y="595"/>
      <point x="380" y="569"/>
      <point x="376" y="545" type="curve" smooth="yes"/>
      <point x="371" y="515"/>
      <point x="356" y="500"/>
      <point x="319" y="500" type="curve" smooth="yes"/>
      <point x="268" y="500" type="line"/>
      <point x="251" y="402" type="line"/>
      <point x="338" y="402" type="line" smooth="yes"/>
      <point x="423" y="402"/>
      <point x="468" y="447"/>
      <point x="479" y="510" type="curve" smooth="yes"/>
      <point x="486" y="551"/>
      <point x="484" y="589"/>
      <point x="478" y="619" type="curve"/>
    </contour>
  </outline>
</glyph>
<glyph name="dotbelowcmb" format="2">
  <advance width="600"/>
  <unicode hex="0323"/>
  <outline>
    <contour>
      <point x="166" y="-60" type="line"/>
      <point x="142" y="-200" type="line"/>
      <point x="302" y="-200" type="line"/>
      <point x="326" y="-60" type="line"/>
    </contour>
  </outline>
</glyph>
<glyph name="commaaccentbelowcmb" format="2">
  <advance width="600"/>
  <unicode hex="0326"/>
  <outline>
    <contour>
      <point x="164" y="-60" type="line"/>
      <point x="140" y="-200" type="line"/>
      <point x="225" y="-200" type="line"/>
      <point x="223" y="-208" type="line" smooth="yes"/>
      <point x="213" y="-247"/>
      <point x="201" y="-272"/>
      <point x="119" y="-272" type="curve"/>
      <point x="108" y="-336" type="line"/>
      <point x="236" y="-336"/>
      <point x="286" y="-278"/>
      <point x="300" y="-199" type="curve" smooth="yes"/>
      <point x="324" y="-60" type="line"/>
    </contour>
  </outline>
</glyph>
<glyph name="cedillacmb" format="2">
  <advance width="600"/>
  <unicode hex="0327"/>
  <outline>
    <contour>
      <point x="79" y="-212" type="line"/>
      <point x="119" y="-226"/>
      <point x="154" y="-236"/>
      <point x="206" y="-236" type="curve" smooth="yes"/>
      <point x="304" y="-236"/>
      <point x="371" y="-195"/>
      <point x="371" y="-121" type="curve" smooth="yes"/>
      <point x="371" y="-71"/>
      <point x="325" y="-43"/>
      <point x="272" y="-43" type="curve" smooth="yes"/>
      <point x="252" y="-43"/>
      <point x="233" y="-45"/>
      <point x="205" y="-56" type="curve"/>
      <point x="236" y="-65" type="line"/>
      <point x="302" y="11" type="line"/>
      <point x="220" y="11" type="line"/>
      <point x="148" y="-74" type="line"/>
      <point x="165" y="-116" type="line"/>
      <point x="191" y="-111"/>
      <point x="203" y="-109"/>
      <point x="218" y="-109" type="curve" smooth="yes"/>
      <point x="243" y="-109"/>
      <point x="260" y="-115"/>
      <point x="260" y="-129" type="curve" smooth="yes"/>
      <point x="260" y="-146"/>
      <point x="243" y="-157"/>
      <point x="212" y="-157" type="curve" smooth="yes"/>
      <point x="178" y="-157"/>
      <point x="147" y="-149"/>
      <point x="102" y="-136" type="curve"/>
    </contour>
  </outline>
</glyph>
<glyph name="ogonekcmb" format="2">
  <advance width="600"/>
  <unicode hex="0328"/>
  <outline>
    <contour>
      <point x="251" y="-203" type="curve" smooth="yes"/>
      <point x="271" y="-203"/>
      <point x="302" y="-200"/>
      <point x="325" y="-190" type="curve"/>
      <point x="333" y="-108" type="line"/>
      <point x="314" y="-113"/>
      <point x="300" y="-114"/>
      <point x="284" y="-114" type="curve" smooth="yes"/>
      <point x="257" y="-114"/>
      <point x="242" y="-103"/>
      <point x="242" y="-87" type="curve" smooth="yes"/>
      <point x="242" y="-61"/>
      <point x="269" y="-38"/>
      <point x="341" y="0" type="curve"/>
      <point x="228" y="0" type="line"/>
      <point x="176" y="-30"/>
      <point x="127" y="-64"/>
      <point x="127" y="-123" type="curve" smooth="yes"/>
      <point x="127" y="-167"/>
      <point x="164" y="-203"/>
    </contour>
  </outline>
</glyph>
<glyph name="overlaystrokeshortcmb" format="2">
  <advance width="600"/>
  <unicode hex="0335"/>
  <outline>
    <contour>
      <point x="125" y="296" type="line"/>
      <point x="490" y="296" type="line"/>
      <point x="512" y="420" type="line"/>
      <point x="147" y="420" type="line"/>
    </contour>
  </outline>
</glyph>
<glyph name="lmacrondot" format="2">
  <advance width="600"/>
  <unicode hex="1E39"/>
  <outline>
    <contour>
      <point x="246" y="760" type="line"/>
      <point x="560" y="760" type="line"/>
      <point x="579" y="869" type="line"/>
      <point x="265" y="869" type="line"/>
    </contour>
    <component base="l"/>
    <component base="dotbelowcmb" xOffset="13"/>
  </outline>
</glyph>
<glyph name="rlinebelow" format="2">
  <advance width="600"/>
  <unicode hex="1E5F"/>
  <outline>
    <contour>
      <point x="-58" y="-179" type="line"/>
      <point x="252" y="-179" type="line"/>
      <point x="271" y="-69" type="line"/>
      <point x="-39" y="-69" type="line"/>
    </contour>
    <component base="r"/>
  </outline>
</glyph>
<glyph name="Germandbls" format="2">
  <advance width="600"/>
  <unicode hex="1E9E"/>
  <outline>
    <contour>
      <point x="135" y="700" type="line"/>
      <point x="12" y="0" type="line"/>
      <point x="163" y="0" type="line"/>
      <point x="286" y="700" type="line"/>
    </contour>
    <contour>
      <point x="608" y="577" type="line"/>
      <point x="629" y="700" type="line"/>
      <point x="184" y="700" type="line"/>
      <point x="163" y="577" type="line"/>
      <point x="529" y="577" type="line"/>
      <point x="485" y="608" type="line"/>
      <point x="290" y="418" type="line"/>
      <point x="271" y="314" type="line"/>
      <point x="327" y="314" type="line" smooth="yes"/>
      <point x="385" y="314"/>
      <point x="423" y="282"/>
      <point x="423" y="226" type="curve" smooth="yes"/>
      <point x="423" y="152"/>
      <point x="377" y="108"/>
      <point x="303" y="108" type="curve" smooth="yes"/>
      <point x="275" y="108"/>
      <point x="253" y="111"/>
      <point x="228" y="116" type="curve"/>
      <point x="208" y="2" type="line"/>
      <point x="236" y="-6"/>
      <point x="272" y="-12"/>
      <point x="321" y="-12" type="curve" smooth="yes"/>
      <point x="480" y="-12"/>
      <point x="573" y="95"/>
      <point x="573" y="239" type="curve" smooth="yes"/>
      <point x="573" y="339"/>
      <point x="509" y="411"/>
      <point x="397" y="411" type="curve" smooth="yes"/>
      <point x="335" y="411" type="line"/>
      <point x="372" y="352" type="line"/>
    </contour>
  </outline>
</glyph>
<glyph name="Uhornhoi" format="2">
  <advance width="600"/>
  <unicode hex="1EEC"/>
  <outline>
    <contour>
      <point x="517" y="197" type="curve" smooth="yes"/>
      <point x="605" y="700" type="line"/>
      <point x="454" y="700" type="line"/>
      <point x="366" y="202" type="line" smooth="yes"/>
      <point x="358" y="156"/>
      <point x="338" y="117"/>
      <point x="280" y="117" type="curve" smooth="yes"/>
      <point x="229" y="117"/>
      <point x="197" y="150"/>
      <point x="197" y="195" type="curve" smooth="yes"/>
      <point x="197" y="201"/>
      <point x="198" y="208"/>
      <point x="199" y="214" type="curve" smooth="yes"/>
      <point x="284" y="700" type="line"/>
      <point x="133" y="700" type="line"/>
      <point x="52" y="237" type="line" smooth="yes"/>
      <point x="49" y="220"/>
      <point x="48" y="204"/>
      <point x="48" y="189" type="curve" smooth="yes"/>
      <point x="48" y="69"/>
      <point x="134" y="-12"/>
      <point x="275" y="-12" type="curve" smooth="yes"/>
      <point x="418" y="-12"/>
      <point x="498" y="91"/>
    </contour>
    <contour>
      <point x="597" y="819" type="line"/>
      <point x="599" y="787"/>
      <point x="598" y="763"/>
      <point x="595" y="744" type="curve" smooth="yes"/>
      <point x="590" y="717"/>
      <point x="569" y="700"/>
      <point x="538" y="700" type="curve" smooth="yes"/>
      <point x="464" y="700" type="line"/>
      <point x="447" y="601" type="line"/>
      <point x="567" y="601" type="line" smooth="yes"/>
      <point x="644" y="601"/>
      <point x="690" y="649"/>
      <point x="702" y="715" type="curve" smooth="yes"/>
      <point x="708" y="748"/>
      <point x="708" y="785"/>
      <point x="703" y="819" type="curve"/>
    </contour>
    <component base="hookabovecmb.uc" xOffset="-12" yOffset="13"/>
  </outline>
</glyph>
<glyph name="endash" format="2">
  <advance width="600"/>
  <unicode hex="2013"/>
  <outline>
    <contour>
      <point x="60" y="238" type="line"/>
      <point x="536" y="238" type="line"/>
      <point x="556" y="354" type="line"/>
      <point x="80" y="354" type="line"/>
    </contour>
  </outline>
</glyph>
<glyph name="emdash" format="2">
  <advance width="600"/>
  <unicode hex="2014"/>
  <outline>
    <contour>
      <point x="28" y="238" type="line"/>
      <point x="568" y="238" type="line"/>
      <point x="588" y="354" type="line"/>
      <point x="48" y="354" type="line"/>
    </contour>
  </outline>
</glyph>
<glyph name="quotedblleft" format="2">
  <advance width="600"/>
  <unicode hex="201C"/>
  <outline>
    <contour>
      <point x="494" y="371" type="line"/>
      <point x="525" y="550" type="line"/>
      <point x="446" y="550" type="line"/>
      <point x="449" y="563" type="line" smooth="yes"/>
      <point x="461" y="617"/>
      <point x="489" y="650"/>
      <point x="565" y="650" type="curve"/>
      <point x="576" y="712" type="line"/>
      <point x="435" y="712"/>
      <point x="386" y="622"/>
      <point x="376" y="562" type="curve" smooth="yes"/>
      <point x="343" y="371" type="line"/>
    </contour>
    <contour>
      <point x="298" y="371" type="line"/>
      <point x="329" y="550" type="line"/>
      <point x="250" y="550" type="line"/>
      <point x="253" y="563" type="line" smooth="yes"/>
      <point x="265" y="617"/>
      <point x="293" y="650"/>
      <point x="369" y="650" type="curve"/>
      <point x="380" y="712" type="line"/>
      <point x="239" y="712"/>
      <point x="190" y="622"/>
      <point x="180" y="562" type="curve" smooth="yes"/>
      <point x="147" y="371" type="line"/>
    </contour>
  </outline>
</glyph>
<glyph name="quotedblright" format="2">
  <advance width="600"/>
  <unicode hex="201D"/>
  <outline>
    <contour>
      <point x="206" y="700" type="line"/>
      <point x="175" y="521" type="line"/>
      <point x="254" y="521" type="line"/>
      <point x="251" y="508" type="line" smooth="yes"/>
      <point x="239" y="454"/>
      <point x="211" y="421"/>
      <point x="135" y="421" type="curve"/>
      <point x="124" y="359" type="line"/>
      <point x="265" y="359"/>
      <point x="314" y="449"/>
      <point x="324" y="509" type="curve" smooth="yes"/>
      <point x="357" y="700" type="line"/>
    </contour>
    <contour>
      <point x="402" y="700" type="line"/>
      <point x="371" y="521" type="line"/>
      <point x="450" y="521" type="line"/>
      <point x="447" y="508" type="line" smooth="yes"/>
      <point x="435" y="454"/>
      <point x="407" y="421"/>
      <point x="331" y="421" type="curve"/>
      <point x="320" y="359" type="line"/>
      <point x="461" y="359"/>
      <point x="510" y="449"/>
      <point x="520" y="509" type="curve" smooth="yes"/>
      <point x="553" y="700" type="line"/>
    </contour>
  </outline>
</glyph>
<glyph name="quotedblbase" format="2">
  <advance width="600"/>
  <unicode hex="201E"/>
  <outline>
    <contour>
      <point x="114" y="179" type="line"/>
      <point x="83" y="0" type="line"/>
      <point x="162" y="0" type="line"/>
      <point x="159" y="-13" type="line" smooth="yes"/>
      <point x="147" y="-67"/>
      <point x="119" y="-100"/>
      <point x="43" y="-100" type="curve"/>
      <point x="32" y="-162" type="line"/>
      <point x="173" y="-162"/>
      <point x="222" y="-72"/>
      <point x="232" y="-12" type="curve" smooth="yes"/>
      <point x="265" y="179" type="line"/>
    </contour>
    <contour>
      <point x="310" y="179" type="line"/>
      <point x="279" y="0" type="line"/>
      <point x="358" y="0" type="line"/>
      <point x="355" y="-13" type="line" smooth="yes"/>
      <point x="343" y="-67"/>
      <point x="315" y="-100"/>
      <point x="239" y="-100" type="curve"/>
      <point x="228" y="-162" type="line"/>
      <point x="369" y="-162"/>
      <point x="418" y="-72"/>
      <point x="428" y="-12" type="curve" smooth="yes"/>
      <point x="461" y="179" type="line"/>
    </contour>
  </outline>
</glyph>
<glyph name="dagger" format="2">
  <advance width="600"/>
  <unicode hex="2020"/>
  <outline>
    <contour>
      <point x="234" y="193" type="line"/>
      <point x="346" y="193" type="line"/>
      <point x="435" y="700" type="line"/>
      <point x="323" y="700" type="line"/>
    </contour>
    <contour>
      <point x="162" y="569" type="line"/>
      <point x="146" y="477" type="line"/>
      <point x="534" y="477" type="line"/>
      <point x="550" y="569" type="line"/>
    </contour>
  </outline>
</glyph>
<glyph name="daggerdbl" format="2">
  <advance width="600"/>
  <unicode hex="2021"/>
  <outline>
    <contour>
      <point x="234" y="193" type="line"/>
      <point x="346" y="193" type="line"/>
      <point x="435" y="700" type="line"/>
      <point x="323" y="700" type="line"/>
    </contour>
    <contour>
      <point x="166" y="588" type="line"/>
      <point x="149" y="496" type="line"/>
      <point x="537" y="496" type="line"/>
      <point x="554" y="588" type="line"/>
    </contour>
    <contour>
      <point x="134" y="409" type="line"/>
      <point x="118" y="317" type="line"/>
      <point x="506" y="317" type="line"/>
      <point x="522" y="409" type="line"/>
    </contour>
  </outline>
</glyph>
<glyph name="ellipsis" format="2">
  <advance width="600"/>
  <unicode hex="2026"/>
  <outline>
    <contour>
      <point x="23" y="153" type="line"/>
      <point x="-4" y="0" type="line"/>
      <point x="116" y="0" type="line"/>
      <point x="143" y="153" type="line"/>
    </contour>
    <contour>
      <point x="223" y="153" type="line"/>
      <point x="196" y="0" type="line"/>
      <point x="316" y="0" type="line"/>
      <point x="343" y="153" type="line"/>
    </contour>
    <contour>
      <point x="423" y="153" type="line"/>
      <point x="396" y="0" type="line"/>
      <point x="516" y="0" type="line"/>
      <point x="543" y="153" type="line"/>
    </contour>
  </outline>
</glyph>
<glyph name="perthousand" format="2">
  <advance width="600"/>
  <unicode hex="2030"/>
  <outline>
    <contour>
      <point x="243" y="575" type="curve" smooth="yes"/>
      <point x="243" y="548"/>
      <point x="226" y="473"/>
      <point x="187" y="473" type="curve" smooth="yes"/>
      <point x="167" y="473"/>
      <point x="155" y="487"/>
      <point x="155" y="520" type="curve" smooth="yes"/>
      <point x="155" y="551"/>
      <point x="171" y="623"/>
      <point x="212" y="623" type="curve" smooth="yes"/>
      <point x="231" y="623"/>
      <point x="243" y="608"/>
    </contour>
    <contour>
      <point x="240" y="156" type="curve" smooth="yes"/>
      <point x="240" y="104"/>
      <point x="217" y="73"/>
      <point x="198" y="73" type="curve" smooth="yes"/>
      <point x="185" y="73"/>
      <point x="175" y="84"/>
      <point x="175" y="110" type="curve" smooth="yes"/>
      <point x="175" y="162"/>
      <point x="198" y="193"/>
      <point x="217" y="193" type="curve" smooth="yes"/>
      <point x="230" y="193"/>
      <point x="240" y="182"/>
    </contour>
    <contour>
      <point x="489" y="156" type="curve" smooth="yes"/>
      <point x="489" y="104"/>
      <point x="466" y="73"/>
      <point x="447" y="73" type="curve" smooth="yes"/>
      <point x="434" y="73"/>
      <point x="424" y="84"/>
      <point x="424" y="110" type="curve" smooth="yes"/>
      <point x="424" y="162"/>
      <point x="447" y="193"/>
      <point x="466" y="193" type="curve" smooth="yes"/>
      <point x="479" y="193"/>
      <point x="489" y="182"/>
    </contour>
    <contour>
      <point x="65" y="521" type="curve" smooth="yes"/>
      <point x="65" y="434"/>
      <point x="117" y="391"/>
      <point x="183" y="391" type="curve" smooth="yes"/>
      <point x="294" y="391"/>
      <point x="332" y="507"/>
      <point x="332" y="576" type="curve" smooth="yes"/>
      <point x="332" y="662"/>
      <point x="280" y="705"/>
      <point x="217" y="705" type="curve" smooth="yes"/>
      <point x="109" y="705"/>
      <point x="65" y="601"/>
    </contour>
    <contour>
      <point x="89" y="112" type="curve" smooth="yes"/>
      <point x="89" y="33"/>
      <point x="134" y="-5"/>
      <point x="193" y="-5" type="curve" smooth="yes"/>
      <point x="286" y="-5"/>
      <point x="326" y="92"/>
      <point x="326" y="154" type="curve" smooth="yes"/>
      <point x="326" y="233"/>
      <point x="282" y="271"/>
      <point x="223" y="271" type="curve" smooth="yes"/>
      <point x="130" y="271"/>
      <point x="89" y="174"/>
    </contour>
    <contour>
      <point x="338" y="112" type="curve" smooth="yes"/>
      <point x="338" y="33"/>
      <point x="383" y="-5"/>
      <point x="442" y="-5" type="curve" smooth="yes"/>
      <point x="535" y="-5"/>
      <point x="575" y="92"/>
      <point x="575" y="154" type="curve" smooth="yes"/>
      <point x="575" y="233"/>
      <point x="531" y="271"/>
      <point x="472" y="271" type="curve" smooth="yes"/>
      <point x="379" y="271"/>
      <point x="338" y="174"/>
    </contour>
    <contour>
      <point x="650" y="632" type="line"/>
      <point x="21" y="268" type="line"/>
      <point x="5" y="178" type="line"/>
      <point x="634" y="542" type="line"/>
    </contour>
  </outline>
</glyph>
<glyph name="minute" format="2">
  <advance width="600"/>
  <unicode hex="2032"/>
  <outline>
    <contour>
      <point x="326" y="700" type="line"/>
      <point x="201" y="349" type="line"/>
      <point x="318" y="349" type="line"/>
      <point x="495" y="700" type="line"/>
    </contour>
  </outline>
</glyph>
<glyph name="second" format="2">
  <advance width="600"/>
  <unicode hex="2033"/>
  <outline>
    <contour>
      <point x="224" y="700" type="line"/>
      <point x="99" y="349" type="line"/>
      <point x="216" y="349" type="line"/>
      <point x="393" y="700" type="line"/>
    </contour>
    <contour>
      <point x="427" y="700" type="line"/>
      <point x="302" y="349" type="line"/>
      <point x="419" y="349" type="line"/>
      <point x="596" y="700" type="line"/>
    </contour>
  </outline>
</glyph>
<glyph name="guilsinglleft" format="2">
  <advance width="600"/>
  <unicode hex="2039"/>
  <outline>
    <contour>
      <point x="509" y="450" type="line"/>
      <point x="355" y="450" type="line"/>
      <point x="166" y="276" type="line"/>
      <point x="158" y="234" type="line"/>
      <point x="301" y="60" type="line"/>
      <point x="440" y="60" type="line"/>
      <point x="269" y="271" type="line"/>
      <point x="258" y="219" type="line"/>
    </contour>
  </outline>
</glyph>
<glyph name="fraction" format="2">
  <advance width="600"/>
  <unicode hex="2044"/>
  <outline>
    <contour>
      <point x="-22" y="0" type="line"/>
      <point x="82" y="0" type="line"/>
      <point x="657" y="700" type="line"/>
      <point x="553" y="700" type="line"/>
    </contour>
  </outline>
</glyph>
<glyph name="trademark" format="2">
  <advance width="600"/>
  <unicode hex="2122"/>
  <outline>
    <contour>
      <point x="164" y="678" type="line"/>
      <point x="248" y="678" type="line"/>
      <point x="192" y="357" type="line"/>
      <point x="108" y="357" type="line"/>
    </contour>
    <contour>
      <point x="85" y="622" type="line"/>
      <point x="98" y="700" type="line"/>
      <point x="322" y="700" type="line"/>
      <point x="309" y="622" type="line"/>
    </contour>
    <contour>
      <point x="405" y="677" type="line"/>
      <point x="435" y="427" type="line"/>
      <point x="460" y="427" type="line"/>
      <point x="578" y="677" type="line"/>
      <point x="559" y="677" type="line"/>
      <point x="503" y="357" type="line"/>
      <point x="581" y="357" type="line"/>
      <point x="641" y="700" type="line"/>
      <point x="527" y="700" type="line"/>
      <point x="457" y="549" type="line"/>
      <point x="478" y="549" type="line"/>
      <point x="460" y="700" type="line"/>
      <point x="350" y="700" type="line"/>
      <point x="290" y="357" type="line"/>
      <point x="368" y="357" type="line"/>
      <point x="424" y="677" type="line"/>
    </contour>
  </outline>
</glyph>
<glyph name="onetenth" format="2">
  <advance width="600"/>
  <unicode hex="2152"/>
  <outline>
    <contour>
      <point x="234" y="0" type="line"/>
      <point x="310" y="0" type="line"/>
      <point x="360" y="274" type="line"/>
      <point x="289" y="274" type="line"/>
      <point x="281" y="226"/>
      <point x="264" y="211"/>
      <point x="212" y="211" type="curve"/>
      <point x="202" y="153" type="line"/>
      <point x="304" y="153" type="line"/>
      <point x="270" y="205" type="line"/>
    </contour>
    <contour>
      <point x="451" y="-6" type="curve" smooth="yes"/>
      <point x="541" y="-6"/>
      <point x="590" y="81"/>
      <point x="590" y="167" type="curve" smooth="yes"/>
      <point x="590" y="236"/>
      <point x="551" y="276"/>
      <point x="491" y="276" type="curve" smooth="yes"/>
      <point x="401" y="276"/>
      <point x="352" y="189"/>
      <point x="352" y="102" type="curve" smooth="yes"/>
      <point x="352" y="34"/>
      <point x="390" y="-6"/>
    </contour>
    <contour>
      <point x="100" y="386" type="line"/>
      <point x="188" y="386" type="line"/>
      <point x="245" y="700" type="line"/>
      <point x="163" y="700" type="line"/>
      <point x="154" y="646"/>
      <point x="135" y="629"/>
      <point x="75" y="629" type="curve"/>
      <point x="63" y="561" type="line"/>
      <point x="181" y="561" type="line"/>
      <point x="142" y="621" type="line"/>
    </contour>
    <contour>
      <point x="-43" y="0" type="line"/>
      <point x="46" y="0" type="line"/>
      <point x="510" y="700" type="line"/>
      <point x="421" y="700" type="line"/>
    </contour>
    <contour>
      <point x="458" y="58" type="curve" smooth="yes"/>
      <point x="440" y="58"/>
      <point x="430" y="73"/>
      <point x="430" y="105" type="curve" smooth="yes"/>
      <point x="430" y="150"/>
      <point x="446" y="212"/>
      <point x="484" y="212" type="curve" smooth="yes"/>
      <point x="502" y="212"/>
      <point x="512" y="197"/>
      <point x="512" y="165" type="curve" smooth="yes"/>
      <point x="512" y="120"/>
      <point x="496" y="58"/>
    </contour>
  </outline>
</glyph>
<glyph name="arrowup" format="2">
  <advance width="600"/>
  <unicode hex="2191"/>
  <outline>
    <contour>
      <point x="121" y="268" type="line"/>
      <point x="300" y="448" type="line"/>
      <point x="479" y="268" type="line"/>
      <point x="569" y="358" type="line"/>
      <point x="300" y="626" type="line"/>
      <point x="31" y="358" type="line"/>
    </contour>
    <contour>
      <point x="236" y="75" type="line"/>
      <point x="364" y="75" type="line"/>
      <point x="364" y="491" type="line"/>
      <point x="236" y="491" type="line"/>
    </contour>
  </outline>
</glyph>
<glyph name="notequal" format="2">
  <advance width="600"/>
  <unicode hex="2260"/>
  <outline>
    <contour>
      <point x="48" y="70" type="line"/>
      <point x="177" y="70" type="line"/>
      <point x="584" y="610" type="line"/>
      <point x="455" y="610" type="line"/>
    </contour>
    <component base="equal"/>
  </outline>
</glyph>
<glyph name="circlewhite" format="2">
  <advance width="600"/>
  <unicode hex="25CB"/>
  <outline>
    <contour>
      <point x="512" y="373" type="curve" smooth="yes"/>
      <point x="512" y="252"/>
      <point x="424" y="147"/>
      <point x="299" y="147" type="curve" smooth="yes"/>
      <point x="194" y="147"/>
      <point x="125" y="219"/>
      <point x="125" y="328" type="curve" smooth="yes"/>
      <point x="125" y="462"/>
      <point x="225" y="553"/>
      <point x="338" y="553" type="curve" smooth="yes"/>
      <point x="443" y="553"/>
      <point x="512" y="482"/>
    </contour>
    <contour>
      <point x="37" y="320" type="curve" smooth="yes"/>
      <point x="37" y="169"/>
      <point x="143" y="65"/>
      <point x="294" y="65" type="curve" smooth="yes"/>
      <point x="469" y="65"/>
      <point x="600" y="212"/>
      <point x="600" y="380" type="curve" smooth="yes"/>
      <point x="600" y="531"/>
      <point x="494" y="635"/>
      <point x="343" y="635" type="curve" smooth="yes"/>
      <point x="168" y="635"/>
      <point x="37" y="488"/>
    </contour>
  </outline>
</glyph>
<glyph name="onesanscircled" format="2">
  <advance width="600"/>
  <unicode hex="2780"/>
  <outline>
    <contour>
      <point x="319" y="500" type="line"/>
      <point x="310" y="448"/>
      <point x="292" y="432"/>
      <point x="235" y="432" type="curve"/>
      <point x="223" y="368" type="line"/>
      <point x="288" y="368" type="line"/>
      <point x="258" y="200" type="line"/>
      <point x="342" y="200" type="line"/>
      <point x="396" y="500" type="line"/>
    </contour>
    <component base="circlewhite" identifier="82E2A7FD"/>
  </outline>
</glyph>
<glyph name="twosanscircled" format="2">
  <advance width="600"/>
  <unicode hex="2781"/>
  <outline>
    <contour>
      <point x="192" y="267" type="curve"/>
      <point x="181" y="199" type="line"/>
      <point x="394" y="199" type="line"/>
      <point x="406" y="269" type="line"/>
      <point x="309" y="269" type="line"/>
      <point x="381" y="316"/>
      <point x="432" y="355"/>
      <point x="432" y="416" type="curve" smooth="yes"/>
      <point x="432" y="461"/>
      <point x="404" y="504"/>
      <point x="331" y="504" type="curve" smooth="yes"/>
      <point x="248" y="504"/>
      <point x="210" y="454"/>
      <point x="210" y="405" type="curve" smooth="yes"/>
      <point x="210" y="395"/>
      <point x="212" y="386"/>
      <point x="216" y="376" type="curve"/>
      <point x="296" y="383" type="line"/>
      <point x="293" y="389"/>
      <point x="291" y="396"/>
      <point x="291" y="403" type="curve" smooth="yes"/>
      <point x="291" y="423"/>
      <point x="303" y="437"/>
      <point x="322" y="437" type="curve" smooth="yes"/>
      <point x="336" y="437"/>
      <point x="345" y="431"/>
      <point x="345" y="413" type="curve" smooth="yes"/>
      <point x="345" y="374"/>
      <point x="303" y="349"/>
    </contour>
    <component base="circlewhite" identifier="F24110CD"/>
  </outline>
</glyph>
<glyph name="threesanscircled" format="2">
  <advance width="600"/>
  <unicode hex="2782"/>
  <outline>
    <contour>
      <point x="191" y="306" type="line"/>
      <point x="189" y="297"/>
      <point x="187" y="288"/>
      <point x="187" y="280" type="curve" smooth="yes"/>
      <point x="187" y="224"/>
      <point x="235" y="195"/>
      <point x="298" y="195" type="curve" smooth="yes"/>
      <point x="379" y="195"/>
      <point x="424" y="241"/>
      <point x="424" y="297" type="curve" smooth="yes"/>
      <point x="424" y="326"/>
      <point x="406" y="345"/>
      <point x="380" y="353" type="curve"/>
      <point x="408" y="363"/>
      <point x="439" y="386"/>
      <point x="439" y="429" type="curve" smooth="yes"/>
      <point x="439" y="468"/>
      <point x="409" y="504"/>
      <point x="335" y="504" type="curve" smooth="yes"/>
      <point x="268" y="504"/>
      <point x="219" y="468"/>
      <point x="211" y="397" type="curve"/>
      <point x="294" y="403" type="line"/>
      <point x="295" y="423"/>
      <point x="307" y="439"/>
      <point x="328" y="439" type="curve" smooth="yes"/>
      <point x="338" y="439"/>
      <point x="352" y="432"/>
      <point x="352" y="414" type="curve" smooth="yes"/>
      <point x="352" y="396"/>
      <point x="340" y="384"/>
      <point x="323" y="384" type="curve" smooth="yes"/>
      <point x="305" y="384" type="line"/>
      <point x="295" y="324" type="line"/>
      <point x="305" y="324" type="line" smooth="yes"/>
      <point x="328" y="324"/>
      <point x="338" y="315"/>
      <point x="338" y="297" type="curve" smooth="yes"/>
      <point x="338" y="278"/>
      <point x="328" y="260"/>
      <point x="302" y="260" type="curve" smooth="yes"/>
      <point x="284" y="260"/>
      <point x="272" y="270"/>
      <point x="272" y="288" type="curve" smooth="yes"/>
      <point x="272" y="291"/>
      <point x="273" y="296"/>
      <point x="274" y="301" type="curve"/>
    </contour>
    <component base="circlewhite" identifier="FB022389"/>
  </outline>
</glyph>
<glyph name="foursanscircled" format="2">
  <advance width="600"/>
  <unicode hex="2783"/>
  <outline>
    <contour>
      <point x="407" y="499" type="line"/>
      <point x="299" y="499" type="line"/>
      <point x="177" y="322" type="line"/>
      <point x="165" y="252" type="line"/>
      <point x="287" y="252" type="line"/>
      <point x="278" y="199" type="line"/>
      <point x="354" y="199" type="line"/>
      <point x="363" y="252" type="line"/>
      <point x="407" y="252" type="line"/>
      <point x="418" y="319" type="line"/>
      <point x="375" y="319" type="line"/>
    </contour>
    <contour>
      <point x="246" y="319" type="line"/>
      <point x="317" y="423" type="line"/>
      <point x="299" y="319" type="line"/>
    </contour>
    <component base="circlewhite" identifier="926D6958"/>
  </outline>
</glyph>
<glyph name="fivesanscircled" format="2">
  <advance width="600"/>
  <unicode hex="2784"/>
  <outline>
    <contour>
      <point x="422" y="322" type="curve" smooth="yes"/>
      <point x="422" y="369"/>
      <point x="397" y="403"/>
      <point x="349" y="403" type="curve" smooth="yes"/>
      <point x="327" y="403"/>
      <point x="310" y="396"/>
      <point x="295" y="387" type="curve"/>
      <point x="308" y="429" type="line"/>
      <point x="433" y="429" type="line"/>
      <point x="445" y="499" type="line"/>
      <point x="251" y="499" type="line"/>
      <point x="208" y="332" type="line"/>
      <point x="287" y="324" type="line"/>
      <point x="293" y="333"/>
      <point x="300" y="341"/>
      <point x="314" y="341" type="curve" smooth="yes"/>
      <point x="329" y="341"/>
      <point x="335" y="332"/>
      <point x="335" y="313" type="curve" smooth="yes"/>
      <point x="335" y="289"/>
      <point x="324" y="260"/>
      <point x="303" y="260" type="curve" smooth="yes"/>
      <point x="286" y="260"/>
      <point x="276" y="274"/>
      <point x="279" y="296" type="curve"/>
      <point x="193" y="306" type="line"/>
      <point x="192" y="301"/>
      <point x="192" y="294"/>
      <point x="192" y="288" type="curve" smooth="yes"/>
      <point x="192" y="226"/>
      <point x="236" y="195"/>
      <point x="302" y="195" type="curve" smooth="yes"/>
      <point x="390" y="195"/>
      <point x="422" y="258"/>
    </contour>
    <component base="circlewhite" identifier="AD56DAC6"/>
  </outline>
</glyph>
<glyph name="sevensanscircled" format="2">
  <advance width="600"/>
  <unicode hex="2786"/>
  <outline>
    <contour>
      <point x="217" y="499" type="line"/>
      <point x="195" y="376" type="line"/>
      <point x="272" y="376" type="line"/>
      <point x="282" y="431" type="line"/>
      <point x="351" y="431" type="line"/>
      <point x="295" y="358"/>
      <point x="247" y="289"/>
      <point x="232" y="199" type="curve"/>
      <point x="322" y="199" type="line"/>
      <point x="341" y="299"/>
      <point x="388" y="369"/>
      <point x="447" y="449" type="curve"/>
      <point x="456" y="499" type="line"/>
    </contour>
    <component base="circlewhite" identifier="BB5841D1"/>
  </outline>
</glyph>
<glyph name="eightsanscircled" format="2">
  <advance width="600"/>
  <unicode hex="2787"/>
  <outline>
    <contour>
      <point x="432" y="295" type="curve" smooth="yes"/>
      <point x="432" y="327"/>
      <point x="413" y="347"/>
      <point x="386" y="357" type="curve"/>
      <point x="418" y="366"/>
      <point x="445" y="391"/>
      <point x="445" y="430" type="curve" smooth="yes"/>
      <point x="445" y="472"/>
      <point x="408" y="504"/>
      <point x="337" y="504" type="curve" smooth="yes"/>
      <point x="257" y="504"/>
      <point x="217" y="461"/>
      <point x="217" y="414" type="curve" smooth="yes"/>
      <point x="217" y="386"/>
      <point x="231" y="370"/>
      <point x="253" y="361" type="curve"/>
      <point x="214" y="351"/>
      <point x="183" y="323"/>
      <point x="183" y="278" type="curve" smooth="yes"/>
      <point x="183" y="228"/>
      <point x="224" y="195"/>
      <point x="300" y="195" type="curve" smooth="yes"/>
      <point x="390" y="195"/>
      <point x="432" y="248"/>
    </contour>
    <contour>
      <point x="297" y="414" type="curve" smooth="yes"/>
      <point x="297" y="429"/>
      <point x="309" y="444"/>
      <point x="333" y="444" type="curve" smooth="yes"/>
      <point x="352" y="444"/>
      <point x="363" y="433"/>
      <point x="363" y="419" type="curve" smooth="yes"/>
      <point x="363" y="404"/>
      <point x="350" y="387"/>
      <point x="327" y="387" type="curve" smooth="yes"/>
      <point x="309" y="387"/>
      <point x="297" y="399"/>
    </contour>
    <contour>
      <point x="349" y="297" type="curve" smooth="yes"/>
      <point x="349" y="278"/>
      <point x="334" y="254"/>
      <point x="305" y="254" type="curve" smooth="yes"/>
      <point x="282" y="254"/>
      <point x="267" y="268"/>
      <point x="267" y="288" type="curve" smooth="yes"/>
      <point x="267" y="307"/>
      <point x="282" y="329"/>
      <point x="311" y="329" type="curve" smooth="yes"/>
      <point x="334" y="329"/>
      <point x="349" y="316"/>
    </contour>
    <component base="circlewhite" identifier="9F1985FC"/>
  </outline>
</glyph>
<glyph name="ninesanscircled" format="2">
  <advance width="600"/>
  <unicode hex="2788"/>
  <outline>
    <contour>
      <point x="338" y="504" type="curve" smooth="yes"/>
      <point x="246" y="504"/>
      <point x="207" y="440"/>
      <point x="207" y="381" type="curve" smooth="yes"/>
      <point x="207" y="329"/>
      <point x="240" y="303"/>
      <point x="290" y="303" type="curve" smooth="yes"/>
      <point x="315" y="303"/>
      <point x="336" y="310"/>
      <point x="351" y="323" type="curve"/>
      <point x="342" y="287"/>
      <point x="327" y="256"/>
      <point x="302" y="256" type="curve" smooth="yes"/>
      <point x="284" y="256"/>
      <point x="276" y="269"/>
      <point x="280" y="288" type="curve"/>
      <point x="193" y="300" type="line"/>
      <point x="192" y="294"/>
      <point x="192" y="292"/>
      <point x="192" y="287" type="curve" smooth="yes"/>
      <point x="192" y="227"/>
      <point x="234" y="195"/>
      <point x="296" y="195" type="curve" smooth="yes"/>
      <point x="381" y="195"/>
      <point x="424" y="251"/>
      <point x="442" y="351" type="curve" smooth="yes"/>
      <point x="445" y="371"/>
      <point x="447" y="387"/>
      <point x="447" y="402" type="curve" smooth="yes"/>
      <point x="447" y="456"/>
      <point x="418" y="504"/>
    </contour>
    <contour>
      <point x="322" y="359" type="curve" smooth="yes"/>
      <point x="304" y="359"/>
      <point x="293" y="370"/>
      <point x="293" y="392" type="curve" smooth="yes"/>
      <point x="293" y="418"/>
      <point x="309" y="441"/>
      <point x="334" y="441" type="curve" smooth="yes"/>
      <point x="352" y="441"/>
      <point x="363" y="429"/>
      <point x="363" y="407" type="curve" smooth="yes"/>
      <point x="363" y="381"/>
      <point x="346" y="359"/>
    </contour>
    <component base="circlewhite" identifier="799CFD61"/>
  </outline>
</glyph>
<glyph name="tensanscircled" format="2">
  <advance width="600"/>
  <unicode hex="2789"/>
  <outline>
    <contour>
      <point x="399" y="504" type="curve" smooth="yes"/>
      <point x="306" y="504"/>
      <point x="287" y="350"/>
      <point x="287" y="295" type="curve" smooth="yes"/>
      <point x="287" y="221"/>
      <point x="319" y="196"/>
      <point x="361" y="196" type="curve" smooth="yes"/>
      <point x="450" y="196"/>
      <point x="472" y="342"/>
      <point x="472" y="405" type="curve" smooth="yes"/>
      <point x="472" y="479"/>
      <point x="439" y="504"/>
    </contour>
    <contour>
      <point x="233" y="499" type="line"/>
      <point x="225" y="457"/>
      <point x="214" y="441"/>
      <point x="177" y="441" type="curve"/>
      <point x="165" y="377" type="line"/>
      <point x="207" y="377" type="line"/>
      <point x="176" y="199" type="line"/>
      <point x="245" y="199" type="line"/>
      <point x="298" y="499" type="line"/>
    </contour>
    <contour>
      <point x="354" y="284" type="curve" smooth="yes"/>
      <point x="354" y="301"/>
      <point x="369" y="436"/>
      <point x="394" y="436" type="curve" smooth="yes"/>
      <point x="400" y="436"/>
      <point x="405" y="433"/>
      <point x="405" y="416" type="curve" smooth="yes"/>
      <point x="405" y="399"/>
      <point x="388" y="264"/>
      <point x="366" y="264" type="curve" smooth="yes"/>
      <point x="359" y="264"/>
      <point x="354" y="268"/>
    </contour>
    <component base="circlewhite" identifier="92092839"/>
  </outline>
</glyph>
<glyph name="onesansnegativecircled" format="2">
  <advance width="600"/>
  <unicode hex="278A"/>
  <outline>
    <contour>
      <point x="319" y="500" type="curve"/>
      <point x="396" y="500" type="line"/>
      <point x="342" y="200" type="line"/>
      <point x="258" y="200" type="line"/>
      <point x="288" y="368" type="line"/>
      <point x="223" y="368" type="line"/>
      <point x="235" y="432" type="line"/>
      <point x="292" y="432"/>
      <point x="310" y="448"/>
    </contour>
    <component base="circleblack" identifier="B98BE642"/>
  </outline>
</glyph>
<glyph name="twosansnegativecircled" format="2">
  <advance width="600"/>
  <unicode hex="278B"/>
  <outline>
    <contour>
      <point x="197" y="267" type="line"/>
      <point x="308" y="349"/>
      <point x="350" y="374"/>
      <point x="350" y="413" type="curve" smooth="yes"/>
      <point x="350" y="431"/>
      <point x="340" y="437"/>
      <point x="326" y="437" type="curve" smooth="yes"/>
      <point x="308" y="437"/>
      <point x="296" y="423"/>
      <point x="296" y="403" type="curve" smooth="yes"/>
      <point x="296" y="396"/>
      <point x="298" y="389"/>
      <point x="300" y="383" type="curve"/>
      <point x="220" y="376" type="line"/>
      <point x="217" y="386"/>
      <point x="215" y="395"/>
      <point x="215" y="405" type="curve" smooth="yes"/>
      <point x="215" y="454"/>
      <point x="253" y="503"/>
      <point x="335" y="503" type="curve" smooth="yes"/>
      <point x="409" y="503"/>
      <point x="436" y="461"/>
      <point x="436" y="416" type="curve" smooth="yes"/>
      <point x="436" y="355"/>
      <point x="385" y="316"/>
      <point x="313" y="269" type="curve"/>
      <point x="410" y="269" type="line"/>
      <point x="398" y="199" type="line"/>
      <point x="185" y="199" type="line"/>
    </contour>
    <component base="circleblack" identifier="415A799F"/>
  </outline>
</glyph>
<glyph name="threesansnegativecircled" format="2">
  <advance width="600"/>
  <unicode hex="278C"/>
  <outline>
    <contour>
      <point x="191" y="306" type="curve"/>
      <point x="274" y="301" type="line"/>
      <point x="273" y="296"/>
      <point x="272" y="291"/>
      <point x="272" y="287" type="curve" smooth="yes"/>
      <point x="272" y="270"/>
      <point x="284" y="260"/>
      <point x="302" y="260" type="curve" smooth="yes"/>
      <point x="327" y="260"/>
      <point x="338" y="278"/>
      <point x="338" y="297" type="curve" smooth="yes"/>
      <point x="338" y="315"/>
      <point x="328" y="323"/>
      <point x="305" y="323" type="curve" smooth="yes"/>
      <point x="295" y="323" type="line"/>
      <point x="305" y="384" type="line"/>
      <point x="323" y="384" type="line" smooth="yes"/>
      <point x="340" y="384"/>
      <point x="352" y="396"/>
      <point x="352" y="414" type="curve" smooth="yes"/>
      <point x="352" y="432"/>
      <point x="338" y="439"/>
      <point x="327" y="439" type="curve" smooth="yes"/>
      <point x="307" y="439"/>
      <point x="295" y="423"/>
      <point x="294" y="403" type="curve"/>
      <point x="211" y="397" type="line"/>
      <point x="218" y="467"/>
      <point x="268" y="503"/>
      <point x="335" y="503" type="curve" smooth="yes"/>
      <point x="408" y="503"/>
      <point x="439" y="467"/>
      <point x="439" y="429" type="curve" smooth="yes"/>
      <point x="439" y="387"/>
      <point x="409" y="363"/>
      <point x="380" y="353" type="curve"/>
      <point x="406" y="345"/>
      <point x="424" y="326"/>
      <point x="424" y="296" type="curve" smooth="yes"/>
      <point x="424" y="241"/>
      <point x="379" y="195"/>
      <point x="298" y="195" type="curve" smooth="yes"/>
      <point x="235" y="195"/>
      <point x="187" y="224"/>
      <point x="187" y="280" type="curve" smooth="yes"/>
      <point x="187" y="288"/>
      <point x="189" y="297"/>
    </contour>
    <component base="circleblack" identifier="843C417A"/>
  </outline>
</glyph>
<glyph name="foursansnegativecircled" format="2">
  <advance width="600"/>
  <unicode hex="278D"/>
  <outline>
    <contour>
      <point x="412" y="499" type="line"/>
      <point x="380" y="319" type="line"/>
      <point x="424" y="319" type="line"/>
      <point x="412" y="252" type="line"/>
      <point x="368" y="252" type="line"/>
      <point x="359" y="199" type="line"/>
      <point x="283" y="199" type="line"/>
      <point x="292" y="252" type="line"/>
      <point x="170" y="252" type="line"/>
      <point x="182" y="322" type="line"/>
      <point x="304" y="499" type="line"/>
    </contour>
    <contour>
      <point x="251" y="319" type="line"/>
      <point x="304" y="319" type="line"/>
      <point x="323" y="425" type="line"/>
    </contour>
    <component base="circleblack" identifier="83C5A94D"/>
  </outline>
</glyph>
<glyph name="fivesansnegativecircled" format="2">
  <advance width="600"/>
  <unicode hex="278E"/>
  <outline>
    <contour>
      <point x="422" y="322" type="curve" smooth="yes"/>
      <point x="422" y="258"/>
      <point x="390" y="195"/>
      <point x="302" y="195" type="curve" smooth="yes"/>
      <point x="237" y="195"/>
      <point x="192" y="226"/>
      <point x="192" y="287" type="curve" smooth="yes"/>
      <point x="192" y="294"/>
      <point x="192" y="301"/>
      <point x="193" y="306" type="curve"/>
      <point x="279" y="296" type="line"/>
      <point x="275" y="274"/>
      <point x="286" y="260"/>
      <point x="303" y="260" type="curve" smooth="yes"/>
      <point x="324" y="260"/>
      <point x="335" y="289"/>
      <point x="335" y="313" type="curve" smooth="yes"/>
      <point x="335" y="332"/>
      <point x="329" y="341"/>
      <point x="314" y="341" type="curve" smooth="yes"/>
      <point x="300" y="341"/>
      <point x="293" y="332"/>
      <point x="287" y="323" type="curve"/>
      <point x="207" y="332" type="line"/>
      <point x="251" y="499" type="line"/>
      <point x="445" y="499" type="line"/>
      <point x="433" y="429" type="line"/>
      <point x="308" y="429" type="line"/>
      <point x="295" y="387" type="line"/>
      <point x="310" y="396"/>
      <point x="327" y="403"/>
      <point x="349" y="403" type="curve" smooth="yes"/>
      <point x="396" y="403"/>
      <point x="422" y="369"/>
    </contour>
    <component base="circleblack" identifier="A9878533"/>
  </outline>
</glyph>
<glyph name="sixsansnegativecircled" format="2">
  <advance width="600"/>
  <unicode hex="278F"/>
  <outline>
    <contour>
      <point x="295" y="195" type="curve" smooth="yes"/>
      <point x="224" y="195"/>
      <point x="187" y="234"/>
      <point x="187" y="300" type="curve" smooth="yes"/>
      <point x="187" y="314"/>
      <point x="189" y="329"/>
      <point x="191" y="345" type="curve" smooth="yes"/>
      <point x="208" y="441"/>
      <point x="267" y="503"/>
      <point x="347" y="503" type="curve" smooth="yes"/>
      <point x="408" y="503"/>
      <point x="441" y="472"/>
      <point x="441" y="420" type="curve" smooth="yes"/>
      <point x="441" y="416"/>
      <point x="440" y="410"/>
      <point x="439" y="405" type="curve"/>
      <point x="357" y="414" type="line"/>
      <point x="360" y="428"/>
      <point x="352" y="436"/>
      <point x="338" y="436" type="curve" smooth="yes"/>
      <point x="319" y="436"/>
      <point x="296" y="419"/>
      <point x="284" y="378" type="curve"/>
      <point x="301" y="391"/>
      <point x="322" y="398"/>
      <point x="346" y="398" type="curve" smooth="yes"/>
      <point x="397" y="398"/>
      <point x="428" y="369"/>
      <point x="428" y="319" type="curve" smooth="yes"/>
      <point x="428" y="260"/>
      <point x="385" y="195"/>
    </contour>
    <contour>
      <point x="271" y="290" type="curve" smooth="yes"/>
      <point x="271" y="269"/>
      <point x="281" y="257"/>
      <point x="300" y="257" type="curve" smooth="yes"/>
      <point x="328" y="257"/>
      <point x="342" y="287"/>
      <point x="342" y="308" type="curve" smooth="yes"/>
      <point x="342" y="329"/>
      <point x="331" y="341"/>
      <point x="313" y="341" type="curve" smooth="yes"/>
      <point x="285" y="341"/>
      <point x="271" y="313"/>
    </contour>
    <component base="circleblack" identifier="1C7F8462"/>
  </outline>
</glyph>
<glyph name="sevensansnegativecircled" format="2">
  <advance width="600"/>
  <unicode hex="2790"/>
  <outline>
    <contour>
      <point x="217" y="499" type="line"/>
      <point x="456" y="499" type="line"/>
      <point x="447" y="449" type="line"/>
      <point x="389" y="368"/>
      <point x="341" y="299"/>
      <point x="322" y="199" type="curve"/>
      <point x="232" y="199" type="line"/>
      <point x="247" y="289"/>
      <point x="295" y="358"/>
      <point x="351" y="431" type="curve"/>
      <point x="282" y="431" type="line"/>
      <point x="272" y="376" type="line"/>
      <point x="195" y="376" type="line"/>
    </contour>
    <component base="circleblack" identifier="D444BF8C"/>
  </outline>
</glyph>
<glyph name="eightsansnegativecircled" format="2">
  <advance width="600"/>
  <unicode hex="2791"/>
  <outline>
    <contour>
      <point x="432" y="295" type="curve" smooth="yes"/>
      <point x="432" y="248"/>
      <point x="390" y="195"/>
      <point x="299" y="195" type="curve" smooth="yes"/>
      <point x="224" y="195"/>
      <point x="182" y="228"/>
      <point x="182" y="278" type="curve" smooth="yes"/>
      <point x="182" y="323"/>
      <point x="214" y="351"/>
      <point x="253" y="361" type="curve"/>
      <point x="231" y="370"/>
      <point x="217" y="386"/>
      <point x="217" y="414" type="curve" smooth="yes"/>
      <point x="217" y="461"/>
      <point x="257" y="503"/>
      <point x="337" y="503" type="curve" smooth="yes"/>
      <point x="407" y="503"/>
      <point x="445" y="472"/>
      <point x="445" y="430" type="curve" smooth="yes"/>
      <point x="445" y="391"/>
      <point x="419" y="366"/>
      <point x="386" y="357" type="curve"/>
      <point x="413" y="347"/>
      <point x="432" y="327"/>
    </contour>
    <contour>
      <point x="297" y="413" type="curve" smooth="yes"/>
      <point x="297" y="399"/>
      <point x="308" y="387"/>
      <point x="327" y="387" type="curve" smooth="yes"/>
      <point x="350" y="387"/>
      <point x="363" y="404"/>
      <point x="363" y="419" type="curve" smooth="yes"/>
      <point x="363" y="433"/>
      <point x="352" y="444"/>
      <point x="333" y="444" type="curve" smooth="yes"/>
      <point x="309" y="444"/>
      <point x="297" y="429"/>
    </contour>
    <contour>
      <point x="349" y="297" type="curve" smooth="yes"/>
      <point x="349" y="316"/>
      <point x="334" y="329"/>
      <point x="311" y="329" type="curve" smooth="yes"/>
      <point x="282" y="329"/>
      <point x="267" y="307"/>
      <point x="267" y="287" type="curve" smooth="yes"/>
      <point x="267" y="268"/>
      <point x="282" y="254"/>
      <point x="305" y="254" type="curve" smooth="yes"/>
      <point x="334" y="254"/>
      <point x="349" y="278"/>
    </contour>
    <component base="circleblack" identifier="05178452"/>
  </outline>
</glyph>
<glyph name="tensansnegativecircled" format="2">
  <advance width="600"/>
  <unicode hex="2793"/>
  <outline>
    <contour>
      <point x="472" y="405" type="curve" smooth="yes"/>
      <point x="472" y="342"/>
      <point x="450" y="196"/>
      <point x="361" y="196" type="curve" smooth="yes"/>
      <point x="319" y="196"/>
      <point x="287" y="221"/>
      <point x="287" y="295" type="curve" smooth="yes"/>
      <point x="287" y="350"/>
      <point x="306" y="504"/>
      <point x="399" y="504" type="curve" smooth="yes"/>
      <point x="439" y="504"/>
      <point x="472" y="479"/>
    </contour>
    <contour>
      <point x="233" y="499" type="curve"/>
      <point x="298" y="499" type="line"/>
      <point x="245" y="199" type="line"/>
      <point x="176" y="199" type="line"/>
      <point x="207" y="377" type="line"/>
      <point x="165" y="377" type="line"/>
      <point x="177" y="441" type="line"/>
      <point x="214" y="441"/>
      <point x="225" y="457"/>
    </contour>
    <contour>
      <point x="366" y="264" type="curve" smooth="yes"/>
      <point x="388" y="264"/>
      <point x="405" y="399"/>
      <point x="405" y="416" type="curve" smooth="yes"/>
      <point x="405" y="433"/>
      <point x="400" y="436"/>
      <point x="394" y="436" type="curve" smooth="yes"/>
      <point x="369" y="436"/>
      <point x="354" y="301"/>
      <point x="354" y="284" type="curve" smooth="yes"/>
      <point x="354" y="268"/>
      <point x="359" y="264"/>
    </contour>
    <component base="circleblack" identifier="D5CED8C7"/>
  </outline>
</glyph>
<glyph name="R.alt1" format="2">
  <advance width="600"/>
  <outline>
    <contour>
      <point x="135" y="700" type="line"/>
      <point x="12" y="0" type="line"/>
      <point x="160" y="0" type="line"/>
      <point x="283" y="700" type="line"/>
    </contour>
    <contour>
      <point x="612" y="519" type="curve" smooth="yes"/>
      <point x="612" y="638"/>
      <point x="539" y="700"/>
      <point x="404" y="700" type="curve" smooth="yes"/>
      <point x="213" y="700" type="line"/>
      <point x="191" y="577" type="line"/>
      <point x="369" y="577" type="line" smooth="yes"/>
      <point x="425" y="577"/>
      <point x="455" y="552"/>
      <point x="455" y="503" type="curve" smooth="yes"/>
      <point x="455" y="444"/>
      <point x="412" y="399"/>
      <point x="338" y="399" type="curve" smooth="yes"/>
      <point x="155" y="399" type="line"/>
      <point x="133" y="277" type="line"/>
      <point x="348" y="277" type="line" smooth="yes"/>
      <point x="373" y="277"/>
      <point x="391" y="257"/>
      <point x="391" y="211" type="curve" smooth="yes"/>
      <point x="391" y="187"/>
      <point x="370" y="77"/>
      <point x="370" y="46" type="curve" smooth="yes"/>
      <point x="370" y="28"/>
      <point x="373" y="13"/>
      <point x="382" y="0" type="curve"/>
      <point x="534" y="0" type="line"/>
      <point x="537" y="17" type="line"/>
      <point x="527" y="24"/>
      <point x="524" y="39"/>
      <point x="524" y="60" type="curve" smooth="yes"/>
      <point x="524" y="97"/>
      <point x="541" y="198"/>
      <point x="541" y="220" type="curve" smooth="yes"/>
      <point x="541" y="278"/>
      <point x="508" y="314"/>
      <point x="444" y="330" type="curve"/>
      <point x="439" y="303" type="line"/>
      <point x="563" y="324"/>
      <point x="612" y="421"/>
    </contour>
  </outline>
</glyph>
<glyph name="acutecmb.uc" format="2">
  <advance width="600"/>
  <outline>
    <contour>
      <point x="398" y="892" type="line"/>
      <point x="561" y="892" type="line"/>
      <point x="420" y="760" type="line"/>
      <point x="293" y="760" type="line"/>
    </contour>
  </outline>
</glyph>
<glyph name="backslash.uc" format="2">
  <advance width="600"/>
  <outline>
    <contour>
      <point x="238" y="745" type="line"/>
      <point x="99" y="745" type="line"/>
      <point x="378" y="-83" type="line"/>
      <point x="517" y="-83" type="line"/>
    </contour>
  </outline>
</glyph>
<glyph name="bitcoin.tab" format="2">
  <advance width="600"/>
  <outline>
    <contour>
      <point x="152" y="700" type="line"/>
      <point x="29" y="0" type="line"/>
      <point x="168" y="0" type="line"/>
      <point x="291" y="700" type="line"/>
    </contour>
    <contour>
      <point x="253" y="668" type="line"/>
      <point x="348" y="668" type="line"/>
      <point x="371" y="797" type="line"/>
      <point x="276" y="797" type="line"/>
    </contour>
    <contour>
      <point x="384" y="668" type="line"/>
      <point x="479" y="668" type="line"/>
      <point x="502" y="797" type="line"/>
      <point x="407" y="797" type="line"/>
    </contour>
    <contour>
      <point x="116" y="-112" type="line"/>
      <point x="211" y="-112" type="line"/>
      <point x="234" y="17" type="line"/>
      <point x="139" y="17" type="line"/>
    </contour>
    <contour>
      <point x="247" y="-112" type="line"/>
      <point x="342" y="-112" type="line"/>
      <point x="365" y="17" type="line"/>
      <point x="270" y="17" type="line"/>
    </contour>
    <contour>
      <point x="288" y="0" type="line"/>
      <point x="463" y="0"/>
      <point x="559" y="121"/>
      <point x="559" y="235" type="curve" smooth="yes"/>
      <point x="559" y="308"/>
      <point x="514" y="348"/>
      <point x="466" y="371" type="curve"/>
      <point x="463" y="353" type="line"/>
      <point x="539" y="375"/>
      <point x="597" y="440"/>
      <point x="597" y="536" type="curve" smooth="yes"/>
      <point x="597" y="628"/>
      <point x="533" y="700"/>
      <point x="412" y="700" type="curve" smooth="yes"/>
      <point x="209" y="700" type="line"/>
      <point x="188" y="582" type="line"/>
      <point x="380" y="582" type="line" smooth="yes"/>
      <point x="427" y="582"/>
      <point x="460" y="557"/>
      <point x="460" y="515" type="curve" smooth="yes"/>
      <point x="460" y="468"/>
      <point x="425" y="418"/>
      <point x="355" y="418" type="curve" smooth="yes"/>
      <point x="158" y="418" type="line"/>
      <point x="137" y="300" type="line"/>
      <point x="331" y="300" type="line" smooth="yes"/>
      <point x="377" y="300"/>
      <point x="419" y="274"/>
      <point x="419" y="224" type="curve" smooth="yes"/>
      <point x="419" y="157"/>
      <point x="365" y="119"/>
      <point x="299" y="119" type="curve" smooth="yes"/>
      <point x="106" y="119" type="line"/>
      <point x="85" y="0" type="line"/>
    </contour>
  </outline>
</glyph>
<glyph name="brevecmb.uc" format="2">
  <advance width="600"/>
  <outline>
    <contour>
      <point x="250" y="895" type="line"/>
      <point x="243" y="834"/>
      <point x="284" y="754"/>
      <point x="400" y="754" type="curve" smooth="yes"/>
      <point x="503" y="754"/>
      <point x="566" y="824"/>
      <point x="578" y="895" type="curve"/>
      <point x="467" y="895" type="line"/>
      <point x="462" y="866"/>
      <point x="442" y="844"/>
      <point x="409" y="844" type="curve" smooth="yes"/>
      <point x="376" y="844"/>
      <point x="359" y="864"/>
      <point x="361" y="895" type="curve"/>
    </contour>
  </outline>
</glyph>
<glyph name="brokenbar.uc" format="2">
  <advance width="600"/>
  <outline>
    <contour>
      <point x="313" y="745" type="line"/>
      <point x="249" y="382" type="line"/>
      <point x="396" y="382" type="line"/>
      <point x="460" y="745" type="line"/>
    </contour>
    <contour>
      <point x="231" y="280" type="line"/>
      <point x="167" y="-83" type="line"/>
      <point x="314" y="-83" type="line"/>
      <point x="378" y="280" type="line"/>
    </contour>
  </outline>
</glyph>
<glyph name="caroncmb.alt" format="2">
  <advance width="600"/>
  <outline>
    <contour>
      <point x="339" y="700" type="line"/>
      <point x="303" y="540" type="line"/>
      <point x="410" y="540" type="line"/>
      <point x="473" y="700" type="line"/>
    </contour>
  </outline>
</glyph>
<glyph name="caroncmb.uc" format="2">
  <advance width="600"/>
  <outline>
    <contour>
      <point x="466" y="760" type="line"/>
      <point x="603" y="892" type="line"/>
      <point x="471" y="892" type="line"/>
      <point x="339" y="798" type="line"/>
      <point x="445" y="798" type="line"/>
      <point x="347" y="892" type="line"/>
      <point x="223" y="892" type="line"/>
      <point x="314" y="760" type="line"/>
    </contour>
  </outline>
</glyph>
<glyph name="caroncmb.ucalt" format="2">
  <advance width="600"/>
  <outline>
    <contour>
      <point x="335" y="700" type="line"/>
      <point x="281" y="434" type="line"/>
      <point x="393" y="434" type="line"/>
      <point x="474" y="700" type="line"/>
    </contour>
  </outline>
</glyph>
<glyph name="circumflexcmb.uc" format="2">
  <advance width="600"/>
  <outline>
    <contour>
      <point x="337" y="892" type="line"/>
      <point x="200" y="760" type="line"/>
      <point x="332" y="760" type="line"/>
      <point x="464" y="854" type="line"/>
      <point x="358" y="854" type="line"/>
      <point x="456" y="760" type="line"/>
      <point x="580" y="760" type="line"/>
      <point x="489" y="892" type="line"/>
    </contour>
  </outline>
</glyph>
<glyph name="comma.tab" format="2">
  <advance width="600"/>
  <outline>
    <contour>
      <point x="212" y="179" type="line"/>
      <point x="181" y="0" type="line"/>
      <point x="260" y="0" type="line"/>
      <point x="257" y="-13" type="line" smooth="yes"/>
      <point x="245" y="-67"/>
      <point x="217" y="-100"/>
      <point x="141" y="-100" type="curve"/>
      <point x="130" y="-162" type="line"/>
      <point x="271" y="-162"/>
      <point x="320" y="-72"/>
      <point x="330" y="-12" type="curve" smooth="yes"/>
      <point x="363" y="179" type="line"/>
    </contour>
  </outline>
</glyph>
<glyph name="dieresiscmb.uc" format="2">
  <advance width="600"/>
  <outline>
    <contour>
      <point x="234" y="908" type="line"/>
      <point x="208" y="760" type="line"/>
      <point x="360" y="760" type="line"/>
      <point x="386" y="908" type="line"/>
    </contour>
    <contour>
      <point x="446" y="908" type="line"/>
      <point x="420" y="760" type="line"/>
      <point x="572" y="760" type="line"/>
      <point x="598" y="908" type="line"/>
    </contour>
  </outline>
</glyph>
<glyph name="dotaccentcmb.uc" format="2">
  <advance width="600"/>
  <outline>
    <contour>
      <point x="337" y="907" type="line"/>
      <point x="311" y="761" type="line"/>
      <point x="471" y="761" type="line"/>
      <point x="497" y="907" type="line"/>
    </contour>
  </outline>
</glyph>
<glyph name="dotbelowcmb.uc" format="2">
  <advance width="600"/>
  <outline>
    <contour>
      <point x="166" y="-60" type="line"/>
      <point x="141" y="-206" type="line"/>
      <point x="301" y="-206" type="line"/>
      <point x="326" y="-60" type="line"/>
    </contour>
  </outline>
</glyph>
<glyph name="eight.den" format="2">
  <advance width="600"/>
  <outline>
    <contour>
      <point x="450" y="270" type="curve" smooth="yes"/>
      <point x="471" y="270"/>
      <point x="484" y="258"/>
      <point x="484" y="242" type="curve" smooth="yes"/>
      <point x="484" y="225"/>
      <point x="469" y="207"/>
      <point x="444" y="207" type="curve" smooth="yes"/>
      <point x="423" y="207"/>
      <point x="410" y="220"/>
      <point x="410" y="236" type="curve" smooth="yes"/>
      <point x="410" y="253"/>
      <point x="424" y="270"/>
    </contour>
    <contour>
      <point x="455" y="336" type="curve" smooth="yes"/>
      <point x="366" y="336"/>
      <point x="321" y="289"/>
      <point x="321" y="237" type="curve" smooth="yes"/>
      <point x="321" y="200"/>
      <point x="344" y="181"/>
      <point x="376" y="173" type="curve"/>
      <point x="377" y="181" type="line"/>
      <point x="327" y="174"/>
      <point x="283" y="141"/>
      <point x="283" y="85" type="curve" smooth="yes"/>
      <point x="283" y="30"/>
      <point x="329" y="-7"/>
      <point x="413" y="-7" type="curve" smooth="yes"/>
      <point x="514" y="-7"/>
      <point x="560" y="52"/>
      <point x="560" y="104" type="curve" smooth="yes"/>
      <point x="560" y="145"/>
      <point x="531" y="169"/>
      <point x="495" y="178" type="curve"/>
      <point x="493" y="170" type="line"/>
      <point x="536" y="175"/>
      <point x="575" y="204"/>
      <point x="575" y="254" type="curve" smooth="yes"/>
      <point x="575" y="301"/>
      <point x="533" y="336"/>
    </contour>
    <contour>
      <point x="426" y="142" type="curve" smooth="yes"/>
      <point x="451" y="142"/>
      <point x="468" y="128"/>
      <point x="468" y="107" type="curve" smooth="yes"/>
      <point x="468" y="85"/>
      <point x="451" y="59"/>
      <point x="419" y="59" type="curve" smooth="yes"/>
      <point x="394" y="59"/>
      <point x="377" y="74"/>
      <point x="377" y="96" type="curve" smooth="yes"/>
      <point x="377" y="118"/>
      <point x="394" y="142"/>
    </contour>
  </outline>
</glyph>
<glyph name="eight.sub" format="2">
  <advance width="600"/>
  <outline>
    <contour>
      <point x="244" y="178" type="curve" smooth="yes"/>
      <point x="244" y="198"/>
      <point x="261" y="218"/>
      <point x="291" y="218" type="curve" smooth="yes"/>
      <point x="316" y="218"/>
      <point x="331" y="204"/>
      <point x="331" y="185" type="curve" smooth="yes"/>
      <point x="331" y="165"/>
      <point x="314" y="144"/>
      <point x="284" y="144" type="curve" smooth="yes"/>
      <point x="259" y="144"/>
      <point x="244" y="159"/>
    </contour>
    <contour>
      <point x="204" y="104" type="curve"/>
      <point x="206" y="114" type="line"/>
      <point x="147" y="105"/>
      <point x="95" y="66"/>
      <point x="95" y="1" type="curve" smooth="yes"/>
      <point x="95" y="-64"/>
      <point x="149" y="-108"/>
      <point x="248" y="-108" type="curve" smooth="yes"/>
      <point x="367" y="-108"/>
      <point x="421" y="-38"/>
      <point x="421" y="23" type="curve" smooth="yes"/>
      <point x="421" y="71"/>
      <point x="387" y="99"/>
      <point x="344" y="110" type="curve"/>
      <point x="342" y="100" type="line"/>
      <point x="392" y="107"/>
      <point x="438" y="140"/>
      <point x="438" y="199" type="curve" smooth="yes"/>
      <point x="438" y="255"/>
      <point x="389" y="296"/>
      <point x="297" y="296" type="curve" smooth="yes"/>
      <point x="193" y="296"/>
      <point x="139" y="241"/>
      <point x="139" y="179" type="curve" smooth="yes"/>
      <point x="139" y="136"/>
      <point x="167" y="113"/>
    </contour>
    <contour>
      <point x="255" y="-30" type="curve" smooth="yes"/>
      <point x="225" y="-30"/>
      <point x="205" y="-12"/>
      <point x="205" y="13" type="curve" smooth="yes"/>
      <point x="205" y="39"/>
      <point x="225" y="68"/>
      <point x="263" y="68" type="curve" smooth="yes"/>
      <point x="293" y="68"/>
      <point x="313" y="51"/>
      <point x="313" y="26" type="curve" smooth="yes"/>
      <point x="313" y="0"/>
      <point x="293" y="-30"/>
    </contour>
  </outline>
</glyph>
